<?xml version="1.0" encoding="utf-8" standalone="no"?>
<!DOCTYPE svg PUBLIC "-//W3C//DTD SVG 1.1//EN"
  "http://www.w3.org/Graphics/SVG/1.1/DTD/svg11.dtd">
<svg xmlns:xlink="http://www.w3.org/1999/xlink" width="1000.456562pt" height="568.196094pt" viewBox="0 0 1000.456562 568.196094" xmlns="http://www.w3.org/2000/svg" version="1.1">
 <metadata>
  <rdf:RDF xmlns:dc="http://purl.org/dc/elements/1.1/" xmlns:cc="http://creativecommons.org/ns#" xmlns:rdf="http://www.w3.org/1999/02/22-rdf-syntax-ns#">
   <cc:Work>
    <dc:type rdf:resource="http://purl.org/dc/dcmitype/StillImage"/>
    <dc:date>2025-06-10T15:58:34.613182</dc:date>
    <dc:format>image/svg+xml</dc:format>
    <dc:creator>
     <cc:Agent>
      <dc:title>Matplotlib v3.9.2, https://matplotlib.org/</dc:title>
     </cc:Agent>
    </dc:creator>
   </cc:Work>
  </rdf:RDF>
 </metadata>
 <defs>
  <style type="text/css">*{stroke-linejoin: round; stroke-linecap: butt}</style>
 </defs>
 <g id="figure_1">
  <g id="patch_1">
   <path d="M 0 568.196094 
L 1000.456562 568.196094 
L 1000.456562 0 
L 0 0 
z
" style="fill: #ffffff"/>
  </g>
  <g id="axes_1">
   <g id="patch_2">
    <path d="M 43.506563 544.317969 
L 153.050848 544.317969 
L 153.050848 23.077969 
L 43.506563 23.077969 
z
" style="fill: #ffffff"/>
   </g>
   <g id="PolyCollection_1">
    <defs>
     <path id="m6c0342bf2c" d="M 99.436258 -154.839268 
L 97.121152 -154.839268 
L 96.883062 -155.195531 
L 96.608549 -155.551793 
L 96.294867 -155.908055 
L 95.939648 -156.264317 
L 95.541035 -156.62058 
L 95.097815 -156.976842 
L 94.60954 -157.333104 
L 94.076648 -157.689366 
L 93.500548 -158.045629 
L 92.883687 -158.401891 
L 92.229583 -158.758153 
L 91.542814 -159.114415 
L 90.828964 -159.470678 
L 90.094522 -159.82694 
L 89.346738 -160.183202 
L 88.593426 -160.539464 
L 87.842739 -160.895727 
L 87.102895 -161.251989 
L 86.381899 -161.608251 
L 85.687236 -161.964513 
L 85.025573 -162.320776 
L 84.402473 -162.677038 
L 83.822131 -163.0333 
L 83.287153 -163.389562 
L 82.798385 -163.745825 
L 82.354788 -164.102087 
L 81.953396 -164.458349 
L 81.589326 -164.814611 
L 81.255864 -165.170874 
L 80.944614 -165.527136 
L 80.645718 -165.883398 
L 80.348121 -166.23966 
L 80.039889 -166.595922 
L 79.708571 -166.952185 
L 79.341576 -167.308447 
L 78.926579 -167.664709 
L 78.451931 -168.020971 
L 77.907056 -168.377234 
L 77.282849 -168.733496 
L 76.572034 -169.089758 
L 75.769494 -169.44602 
L 74.872561 -169.802283 
L 73.881241 -170.158545 
L 72.798387 -170.514807 
L 71.629795 -170.871069 
L 70.384217 -171.227332 
L 69.073303 -171.583594 
L 67.711434 -171.939856 
L 66.315485 -172.296118 
L 64.904483 -172.652381 
L 63.499192 -173.008643 
L 62.121623 -173.364905 
L 60.794486 -173.721167 
L 59.540596 -174.07743 
L 58.382272 -174.433692 
L 57.340726 -174.789954 
L 56.435492 -175.146216 
L 55.6839 -175.502479 
L 55.100627 -175.858741 
L 54.697344 -176.215003 
L 54.48246 -176.571265 
L 54.460991 -176.927528 
L 54.634533 -177.28379 
L 55.001356 -177.640052 
L 55.556593 -177.996314 
L 56.292512 -178.352577 
L 57.198863 -178.708839 
L 58.263258 -179.065101 
L 59.47159 -179.421363 
L 60.808437 -179.777626 
L 62.257474 -180.133888 
L 63.801837 -180.49015 
L 65.424458 -180.846412 
L 67.108355 -181.202675 
L 68.836876 -181.558937 
L 70.593893 -181.915199 
L 72.363966 -182.271461 
L 74.132465 -182.627724 
L 75.885674 -182.983986 
L 77.610866 -183.340248 
L 79.296379 -183.69651 
L 80.931668 -184.052773 
L 82.507363 -184.409035 
L 84.015314 -184.765297 
L 85.448632 -185.121559 
L 86.801715 -185.477822 
L 88.070268 -185.834084 
L 89.251301 -186.190346 
L 90.343107 -186.546608 
L 91.34522 -186.902871 
L 92.258346 -187.259133 
L 93.084276 -187.615395 
L 93.825777 -187.971657 
L 94.486459 -188.32792 
L 95.07064 -188.684182 
L 95.583193 -189.040444 
L 96.029395 -189.396706 
L 96.414781 -189.752969 
L 96.745001 -190.109231 
L 99.812409 -190.109231 
L 99.812409 -190.109231 
L 100.14263 -189.752969 
L 100.528016 -189.396706 
L 100.974218 -189.040444 
L 101.48677 -188.684182 
L 102.070951 -188.32792 
L 102.731634 -187.971657 
L 103.473134 -187.615395 
L 104.299065 -187.259133 
L 105.212191 -186.902871 
L 106.214303 -186.546608 
L 107.306109 -186.190346 
L 108.487142 -185.834084 
L 109.755696 -185.477822 
L 111.108779 -185.121559 
L 112.542096 -184.765297 
L 114.050048 -184.409035 
L 115.625743 -184.052773 
L 117.261032 -183.69651 
L 118.946545 -183.340248 
L 120.671737 -182.983986 
L 122.424945 -182.627724 
L 124.193445 -182.271461 
L 125.963518 -181.915199 
L 127.720535 -181.558937 
L 129.449056 -181.202675 
L 131.132953 -180.846412 
L 132.755574 -180.49015 
L 134.299936 -180.133888 
L 135.748973 -179.777626 
L 137.085821 -179.421363 
L 138.294152 -179.065101 
L 139.358548 -178.708839 
L 140.264898 -178.352577 
L 141.000818 -177.996314 
L 141.556054 -177.640052 
L 141.922878 -177.28379 
L 142.09642 -176.927528 
L 142.07495 -176.571265 
L 141.860067 -176.215003 
L 141.456784 -175.858741 
L 140.873511 -175.502479 
L 140.121919 -175.146216 
L 139.216685 -174.789954 
L 138.175139 -174.433692 
L 137.016815 -174.07743 
L 135.762925 -173.721167 
L 134.435788 -173.364905 
L 133.058219 -173.008643 
L 131.652928 -172.652381 
L 130.241926 -172.296118 
L 128.845977 -171.939856 
L 127.484108 -171.583594 
L 126.173193 -171.227332 
L 124.927616 -170.871069 
L 123.759023 -170.514807 
L 122.67617 -170.158545 
L 121.68485 -169.802283 
L 120.787917 -169.44602 
L 119.985377 -169.089758 
L 119.274561 -168.733496 
L 118.650354 -168.377234 
L 118.10548 -168.020971 
L 117.630831 -167.664709 
L 117.215835 -167.308447 
L 116.84884 -166.952185 
L 116.517521 -166.595922 
L 116.20929 -166.23966 
L 115.911693 -165.883398 
L 115.612797 -165.527136 
L 115.301547 -165.170874 
L 114.968084 -164.814611 
L 114.604014 -164.458349 
L 114.202623 -164.102087 
L 113.759026 -163.745825 
L 113.270257 -163.389562 
L 112.73528 -163.0333 
L 112.154938 -162.677038 
L 111.531837 -162.320776 
L 110.870175 -161.964513 
L 110.175512 -161.608251 
L 109.454516 -161.251989 
L 108.714672 -160.895727 
L 107.963984 -160.539464 
L 107.210673 -160.183202 
L 106.462889 -159.82694 
L 105.728447 -159.470678 
L 105.014597 -159.114415 
L 104.327828 -158.758153 
L 103.673724 -158.401891 
L 103.056863 -158.045629 
L 102.480762 -157.689366 
L 101.94787 -157.333104 
L 101.459596 -156.976842 
L 101.016375 -156.62058 
L 100.617763 -156.264317 
L 100.262543 -155.908055 
L 99.948861 -155.551793 
L 99.674349 -155.195531 
L 99.436258 -154.839268 
z
" style="stroke: #545454; stroke-width: 1.25"/>
    </defs>
    <g clip-path="url(#pa12b8223c5)">
     <use xlink:href="#m6c0342bf2c" x="0" y="568.196094" style="fill: #597dbf; stroke: #545454; stroke-width: 1.25"/>
    </g>
   </g>
   <g id="matplotlib.axis_1">
    <g id="xtick_1">
     <g id="line2d_1">
      <defs>
       <path id="m81f6a549d7" d="M 0 0 
L 0 3.5 
" style="stroke: #000000; stroke-width: 0.8"/>
      </defs>
      <g>
       <use xlink:href="#m81f6a549d7" x="98.278705" y="544.317969" style="stroke: #000000; stroke-width: 0.8"/>
      </g>
     </g>
     <g id="text_1">
      <!-- 0 -->
      <g transform="translate(95.097455 558.916406) scale(0.1 -0.1)">
       <defs>
        <path id="DejaVuSans-30" d="M 2034 4250 
Q 1547 4250 1301 3770 
Q 1056 3291 1056 2328 
Q 1056 1369 1301 889 
Q 1547 409 2034 409 
Q 2525 409 2770 889 
Q 3016 1369 3016 2328 
Q 3016 3291 2770 3770 
Q 2525 4250 2034 4250 
z
M 2034 4750 
Q 2819 4750 3233 4129 
Q 3647 3509 3647 2328 
Q 3647 1150 3233 529 
Q 2819 -91 2034 -91 
Q 1250 -91 836 529 
Q 422 1150 422 2328 
Q 422 3509 836 4129 
Q 1250 4750 2034 4750 
z
" transform="scale(0.015625)"/>
       </defs>
       <use xlink:href="#DejaVuSans-30"/>
      </g>
     </g>
    </g>
   </g>
   <g id="matplotlib.axis_2">
    <g id="ytick_1">
     <g id="line2d_2">
      <path d="M 43.506563 475.958624 
L 153.050848 475.958624 
" clip-path="url(#pa12b8223c5)" style="fill: none; stroke: #b0b0b0; stroke-width: 0.8; stroke-linecap: square"/>
     </g>
     <g id="line2d_3">
      <defs>
       <path id="me54c84fe99" d="M 0 0 
L -3.5 0 
" style="stroke: #000000; stroke-width: 0.8"/>
      </defs>
      <g>
       <use xlink:href="#me54c84fe99" x="43.506563" y="475.958624" style="stroke: #000000; stroke-width: 0.8"/>
      </g>
     </g>
     <g id="text_2">
      <!-- 10 -->
      <g transform="translate(23.781563 479.757843) scale(0.1 -0.1)">
       <defs>
        <path id="DejaVuSans-31" d="M 794 531 
L 1825 531 
L 1825 4091 
L 703 3866 
L 703 4441 
L 1819 4666 
L 2450 4666 
L 2450 531 
L 3481 531 
L 3481 0 
L 794 0 
L 794 531 
z
" transform="scale(0.015625)"/>
       </defs>
       <use xlink:href="#DejaVuSans-31"/>
       <use xlink:href="#DejaVuSans-30" x="63.623047"/>
      </g>
     </g>
    </g>
    <g id="ytick_2">
     <g id="line2d_4">
      <path d="M 43.506563 390.509444 
L 153.050848 390.509444 
" clip-path="url(#pa12b8223c5)" style="fill: none; stroke: #b0b0b0; stroke-width: 0.8; stroke-linecap: square"/>
     </g>
     <g id="line2d_5">
      <g>
       <use xlink:href="#me54c84fe99" x="43.506563" y="390.509444" style="stroke: #000000; stroke-width: 0.8"/>
      </g>
     </g>
     <g id="text_3">
      <!-- 20 -->
      <g transform="translate(23.781563 394.308663) scale(0.1 -0.1)">
       <defs>
        <path id="DejaVuSans-32" d="M 1228 531 
L 3431 531 
L 3431 0 
L 469 0 
L 469 531 
Q 828 903 1448 1529 
Q 2069 2156 2228 2338 
Q 2531 2678 2651 2914 
Q 2772 3150 2772 3378 
Q 2772 3750 2511 3984 
Q 2250 4219 1831 4219 
Q 1534 4219 1204 4116 
Q 875 4013 500 3803 
L 500 4441 
Q 881 4594 1212 4672 
Q 1544 4750 1819 4750 
Q 2544 4750 2975 4387 
Q 3406 4025 3406 3419 
Q 3406 3131 3298 2873 
Q 3191 2616 2906 2266 
Q 2828 2175 2409 1742 
Q 1991 1309 1228 531 
z
" transform="scale(0.015625)"/>
       </defs>
       <use xlink:href="#DejaVuSans-32"/>
       <use xlink:href="#DejaVuSans-30" x="63.623047"/>
      </g>
     </g>
    </g>
    <g id="ytick_3">
     <g id="line2d_6">
      <path d="M 43.506563 305.060264 
L 153.050848 305.060264 
" clip-path="url(#pa12b8223c5)" style="fill: none; stroke: #b0b0b0; stroke-width: 0.8; stroke-linecap: square"/>
     </g>
     <g id="line2d_7">
      <g>
       <use xlink:href="#me54c84fe99" x="43.506563" y="305.060264" style="stroke: #000000; stroke-width: 0.8"/>
      </g>
     </g>
     <g id="text_4">
      <!-- 30 -->
      <g transform="translate(23.781563 308.859483) scale(0.1 -0.1)">
       <defs>
        <path id="DejaVuSans-33" d="M 2597 2516 
Q 3050 2419 3304 2112 
Q 3559 1806 3559 1356 
Q 3559 666 3084 287 
Q 2609 -91 1734 -91 
Q 1441 -91 1130 -33 
Q 819 25 488 141 
L 488 750 
Q 750 597 1062 519 
Q 1375 441 1716 441 
Q 2309 441 2620 675 
Q 2931 909 2931 1356 
Q 2931 1769 2642 2001 
Q 2353 2234 1838 2234 
L 1294 2234 
L 1294 2753 
L 1863 2753 
Q 2328 2753 2575 2939 
Q 2822 3125 2822 3475 
Q 2822 3834 2567 4026 
Q 2313 4219 1838 4219 
Q 1578 4219 1281 4162 
Q 984 4106 628 3988 
L 628 4550 
Q 988 4650 1302 4700 
Q 1616 4750 1894 4750 
Q 2613 4750 3031 4423 
Q 3450 4097 3450 3541 
Q 3450 3153 3228 2886 
Q 3006 2619 2597 2516 
z
" transform="scale(0.015625)"/>
       </defs>
       <use xlink:href="#DejaVuSans-33"/>
       <use xlink:href="#DejaVuSans-30" x="63.623047"/>
      </g>
     </g>
    </g>
    <g id="ytick_4">
     <g id="line2d_8">
      <path d="M 43.506563 219.611084 
L 153.050848 219.611084 
" clip-path="url(#pa12b8223c5)" style="fill: none; stroke: #b0b0b0; stroke-width: 0.8; stroke-linecap: square"/>
     </g>
     <g id="line2d_9">
      <g>
       <use xlink:href="#me54c84fe99" x="43.506563" y="219.611084" style="stroke: #000000; stroke-width: 0.8"/>
      </g>
     </g>
     <g id="text_5">
      <!-- 40 -->
      <g transform="translate(23.781563 223.410302) scale(0.1 -0.1)">
       <defs>
        <path id="DejaVuSans-34" d="M 2419 4116 
L 825 1625 
L 2419 1625 
L 2419 4116 
z
M 2253 4666 
L 3047 4666 
L 3047 1625 
L 3713 1625 
L 3713 1100 
L 3047 1100 
L 3047 0 
L 2419 0 
L 2419 1100 
L 313 1100 
L 313 1709 
L 2253 4666 
z
" transform="scale(0.015625)"/>
       </defs>
       <use xlink:href="#DejaVuSans-34"/>
       <use xlink:href="#DejaVuSans-30" x="63.623047"/>
      </g>
     </g>
    </g>
    <g id="ytick_5">
     <g id="line2d_10">
      <path d="M 43.506563 134.161903 
L 153.050848 134.161903 
" clip-path="url(#pa12b8223c5)" style="fill: none; stroke: #b0b0b0; stroke-width: 0.8; stroke-linecap: square"/>
     </g>
     <g id="line2d_11">
      <g>
       <use xlink:href="#me54c84fe99" x="43.506563" y="134.161903" style="stroke: #000000; stroke-width: 0.8"/>
      </g>
     </g>
     <g id="text_6">
      <!-- 50 -->
      <g transform="translate(23.781563 137.961122) scale(0.1 -0.1)">
       <defs>
        <path id="DejaVuSans-35" d="M 691 4666 
L 3169 4666 
L 3169 4134 
L 1269 4134 
L 1269 2991 
Q 1406 3038 1543 3061 
Q 1681 3084 1819 3084 
Q 2600 3084 3056 2656 
Q 3513 2228 3513 1497 
Q 3513 744 3044 326 
Q 2575 -91 1722 -91 
Q 1428 -91 1123 -41 
Q 819 9 494 109 
L 494 744 
Q 775 591 1075 516 
Q 1375 441 1709 441 
Q 2250 441 2565 725 
Q 2881 1009 2881 1497 
Q 2881 1984 2565 2268 
Q 2250 2553 1709 2553 
Q 1456 2553 1204 2497 
Q 953 2441 691 2322 
L 691 4666 
z
" transform="scale(0.015625)"/>
       </defs>
       <use xlink:href="#DejaVuSans-35"/>
       <use xlink:href="#DejaVuSans-30" x="63.623047"/>
      </g>
     </g>
    </g>
    <g id="ytick_6">
     <g id="line2d_12">
      <path d="M 43.506563 48.712723 
L 153.050848 48.712723 
" clip-path="url(#pa12b8223c5)" style="fill: none; stroke: #b0b0b0; stroke-width: 0.8; stroke-linecap: square"/>
     </g>
     <g id="line2d_13">
      <g>
       <use xlink:href="#me54c84fe99" x="43.506563" y="48.712723" style="stroke: #000000; stroke-width: 0.8"/>
      </g>
     </g>
     <g id="text_7">
      <!-- 60 -->
      <g transform="translate(23.781563 52.511942) scale(0.1 -0.1)">
       <defs>
        <path id="DejaVuSans-36" d="M 2113 2584 
Q 1688 2584 1439 2293 
Q 1191 2003 1191 1497 
Q 1191 994 1439 701 
Q 1688 409 2113 409 
Q 2538 409 2786 701 
Q 3034 994 3034 1497 
Q 3034 2003 2786 2293 
Q 2538 2584 2113 2584 
z
M 3366 4563 
L 3366 3988 
Q 3128 4100 2886 4159 
Q 2644 4219 2406 4219 
Q 1781 4219 1451 3797 
Q 1122 3375 1075 2522 
Q 1259 2794 1537 2939 
Q 1816 3084 2150 3084 
Q 2853 3084 3261 2657 
Q 3669 2231 3669 1497 
Q 3669 778 3244 343 
Q 2819 -91 2113 -91 
Q 1303 -91 875 529 
Q 447 1150 447 2328 
Q 447 3434 972 4092 
Q 1497 4750 2381 4750 
Q 2619 4750 2861 4703 
Q 3103 4656 3366 4563 
z
" transform="scale(0.015625)"/>
       </defs>
       <use xlink:href="#DejaVuSans-36"/>
       <use xlink:href="#DejaVuSans-30" x="63.623047"/>
      </g>
     </g>
    </g>
    <g id="text_8">
     <!-- Ammonium [mM] -->
     <g transform="translate(17.077969 340.237813) rotate(-90) scale(0.13 -0.13)">
      <defs>
       <path id="DejaVuSans-41" d="M 2188 4044 
L 1331 1722 
L 3047 1722 
L 2188 4044 
z
M 1831 4666 
L 2547 4666 
L 4325 0 
L 3669 0 
L 3244 1197 
L 1141 1197 
L 716 0 
L 50 0 
L 1831 4666 
z
" transform="scale(0.015625)"/>
       <path id="DejaVuSans-6d" d="M 3328 2828 
Q 3544 3216 3844 3400 
Q 4144 3584 4550 3584 
Q 5097 3584 5394 3201 
Q 5691 2819 5691 2113 
L 5691 0 
L 5113 0 
L 5113 2094 
Q 5113 2597 4934 2840 
Q 4756 3084 4391 3084 
Q 3944 3084 3684 2787 
Q 3425 2491 3425 1978 
L 3425 0 
L 2847 0 
L 2847 2094 
Q 2847 2600 2669 2842 
Q 2491 3084 2119 3084 
Q 1678 3084 1418 2786 
Q 1159 2488 1159 1978 
L 1159 0 
L 581 0 
L 581 3500 
L 1159 3500 
L 1159 2956 
Q 1356 3278 1631 3431 
Q 1906 3584 2284 3584 
Q 2666 3584 2933 3390 
Q 3200 3197 3328 2828 
z
" transform="scale(0.015625)"/>
       <path id="DejaVuSans-6f" d="M 1959 3097 
Q 1497 3097 1228 2736 
Q 959 2375 959 1747 
Q 959 1119 1226 758 
Q 1494 397 1959 397 
Q 2419 397 2687 759 
Q 2956 1122 2956 1747 
Q 2956 2369 2687 2733 
Q 2419 3097 1959 3097 
z
M 1959 3584 
Q 2709 3584 3137 3096 
Q 3566 2609 3566 1747 
Q 3566 888 3137 398 
Q 2709 -91 1959 -91 
Q 1206 -91 779 398 
Q 353 888 353 1747 
Q 353 2609 779 3096 
Q 1206 3584 1959 3584 
z
" transform="scale(0.015625)"/>
       <path id="DejaVuSans-6e" d="M 3513 2113 
L 3513 0 
L 2938 0 
L 2938 2094 
Q 2938 2591 2744 2837 
Q 2550 3084 2163 3084 
Q 1697 3084 1428 2787 
Q 1159 2491 1159 1978 
L 1159 0 
L 581 0 
L 581 3500 
L 1159 3500 
L 1159 2956 
Q 1366 3272 1645 3428 
Q 1925 3584 2291 3584 
Q 2894 3584 3203 3211 
Q 3513 2838 3513 2113 
z
" transform="scale(0.015625)"/>
       <path id="DejaVuSans-69" d="M 603 3500 
L 1178 3500 
L 1178 0 
L 603 0 
L 603 3500 
z
M 603 4863 
L 1178 4863 
L 1178 4134 
L 603 4134 
L 603 4863 
z
" transform="scale(0.015625)"/>
       <path id="DejaVuSans-75" d="M 544 1381 
L 544 3500 
L 1119 3500 
L 1119 1403 
Q 1119 906 1312 657 
Q 1506 409 1894 409 
Q 2359 409 2629 706 
Q 2900 1003 2900 1516 
L 2900 3500 
L 3475 3500 
L 3475 0 
L 2900 0 
L 2900 538 
Q 2691 219 2414 64 
Q 2138 -91 1772 -91 
Q 1169 -91 856 284 
Q 544 659 544 1381 
z
M 1991 3584 
L 1991 3584 
z
" transform="scale(0.015625)"/>
       <path id="DejaVuSans-20" transform="scale(0.015625)"/>
       <path id="DejaVuSans-5b" d="M 550 4863 
L 1875 4863 
L 1875 4416 
L 1125 4416 
L 1125 -397 
L 1875 -397 
L 1875 -844 
L 550 -844 
L 550 4863 
z
" transform="scale(0.015625)"/>
       <path id="DejaVuSans-4d" d="M 628 4666 
L 1569 4666 
L 2759 1491 
L 3956 4666 
L 4897 4666 
L 4897 0 
L 4281 0 
L 4281 4097 
L 3078 897 
L 2444 897 
L 1241 4097 
L 1241 0 
L 628 0 
L 628 4666 
z
" transform="scale(0.015625)"/>
       <path id="DejaVuSans-5d" d="M 1947 4863 
L 1947 -844 
L 622 -844 
L 622 -397 
L 1369 -397 
L 1369 4416 
L 622 4416 
L 622 4863 
L 1947 4863 
z
" transform="scale(0.015625)"/>
      </defs>
      <use xlink:href="#DejaVuSans-41"/>
      <use xlink:href="#DejaVuSans-6d" x="68.408203"/>
      <use xlink:href="#DejaVuSans-6d" x="165.820312"/>
      <use xlink:href="#DejaVuSans-6f" x="263.232422"/>
      <use xlink:href="#DejaVuSans-6e" x="324.414062"/>
      <use xlink:href="#DejaVuSans-69" x="387.792969"/>
      <use xlink:href="#DejaVuSans-75" x="415.576172"/>
      <use xlink:href="#DejaVuSans-6d" x="478.955078"/>
      <use xlink:href="#DejaVuSans-20" x="576.367188"/>
      <use xlink:href="#DejaVuSans-5b" x="608.154297"/>
      <use xlink:href="#DejaVuSans-6d" x="647.167969"/>
      <use xlink:href="#DejaVuSans-4d" x="744.580078"/>
      <use xlink:href="#DejaVuSans-5d" x="830.859375"/>
     </g>
    </g>
   </g>
   <g id="line2d_14">
    <path d="M 98.278705 402.557779 
L 98.278705 385.980638 
" clip-path="url(#pa12b8223c5)" style="fill: none; stroke: #545454; stroke-width: 1.875; stroke-linecap: square"/>
   </g>
   <g id="line2d_15">
    <path d="M 98.278705 396.597698 
L 98.278705 390.744429 
" clip-path="url(#pa12b8223c5)" style="fill: none; stroke: #545454; stroke-width: 5.625; stroke-linecap: square"/>
   </g>
   <g id="line2d_16">
    <path d="M 98.278705 392.389326 
" clip-path="url(#pa12b8223c5)" style="fill: none; stroke: #545454; stroke-width: 1.5; stroke-linecap: square"/>
    <defs>
     <path id="m500d1b99fc" d="M 2.34375 0 
L -2.34375 -0 
" style="stroke: #ffffff; stroke-width: 1.125"/>
    </defs>
    <g clip-path="url(#pa12b8223c5)">
     <use xlink:href="#m500d1b99fc" x="98.278705" y="392.389326" style="fill: #ffffff; stroke: #ffffff; stroke-width: 1.125"/>
    </g>
   </g>
   <g id="line2d_17">
    <path d="M 43.506563 518.683215 
L 153.050848 518.683215 
" clip-path="url(#pa12b8223c5)" style="fill: none; stroke-dasharray: 5.55,2.4; stroke-dashoffset: 0; stroke: #ff0000; stroke-width: 1.5"/>
   </g>
   <g id="line2d_18">
    <path d="M 43.506563 48.712723 
L 153.050848 48.712723 
" clip-path="url(#pa12b8223c5)" style="fill: none; stroke-dasharray: 5.55,2.4; stroke-dashoffset: 0; stroke: #0000ff; stroke-width: 1.5"/>
   </g>
   <g id="patch_3">
    <path d="M 43.506563 544.317969 
L 43.506563 23.077969 
" style="fill: none; stroke: #000000; stroke-width: 0.8; stroke-linejoin: miter; stroke-linecap: square"/>
   </g>
   <g id="patch_4">
    <path d="M 153.050848 544.317969 
L 153.050848 23.077969 
" style="fill: none; stroke: #000000; stroke-width: 0.8; stroke-linejoin: miter; stroke-linecap: square"/>
   </g>
   <g id="patch_5">
    <path d="M 43.506563 544.317969 
L 153.050848 544.317969 
" style="fill: none; stroke: #000000; stroke-width: 0.8; stroke-linejoin: miter; stroke-linecap: square"/>
   </g>
   <g id="patch_6">
    <path d="M 43.506563 23.077969 
L 153.050848 23.077969 
" style="fill: none; stroke: #000000; stroke-width: 0.8; stroke-linejoin: miter; stroke-linecap: square"/>
   </g>
   <g id="text_9">
    <!-- Iteration 0 -->
    <g transform="translate(64.506127 17.077969) scale(0.13 -0.13)">
     <defs>
      <path id="DejaVuSans-49" d="M 628 4666 
L 1259 4666 
L 1259 0 
L 628 0 
L 628 4666 
z
" transform="scale(0.015625)"/>
      <path id="DejaVuSans-74" d="M 1172 4494 
L 1172 3500 
L 2356 3500 
L 2356 3053 
L 1172 3053 
L 1172 1153 
Q 1172 725 1289 603 
Q 1406 481 1766 481 
L 2356 481 
L 2356 0 
L 1766 0 
Q 1100 0 847 248 
Q 594 497 594 1153 
L 594 3053 
L 172 3053 
L 172 3500 
L 594 3500 
L 594 4494 
L 1172 4494 
z
" transform="scale(0.015625)"/>
      <path id="DejaVuSans-65" d="M 3597 1894 
L 3597 1613 
L 953 1613 
Q 991 1019 1311 708 
Q 1631 397 2203 397 
Q 2534 397 2845 478 
Q 3156 559 3463 722 
L 3463 178 
Q 3153 47 2828 -22 
Q 2503 -91 2169 -91 
Q 1331 -91 842 396 
Q 353 884 353 1716 
Q 353 2575 817 3079 
Q 1281 3584 2069 3584 
Q 2775 3584 3186 3129 
Q 3597 2675 3597 1894 
z
M 3022 2063 
Q 3016 2534 2758 2815 
Q 2500 3097 2075 3097 
Q 1594 3097 1305 2825 
Q 1016 2553 972 2059 
L 3022 2063 
z
" transform="scale(0.015625)"/>
      <path id="DejaVuSans-72" d="M 2631 2963 
Q 2534 3019 2420 3045 
Q 2306 3072 2169 3072 
Q 1681 3072 1420 2755 
Q 1159 2438 1159 1844 
L 1159 0 
L 581 0 
L 581 3500 
L 1159 3500 
L 1159 2956 
Q 1341 3275 1631 3429 
Q 1922 3584 2338 3584 
Q 2397 3584 2469 3576 
Q 2541 3569 2628 3553 
L 2631 2963 
z
" transform="scale(0.015625)"/>
      <path id="DejaVuSans-61" d="M 2194 1759 
Q 1497 1759 1228 1600 
Q 959 1441 959 1056 
Q 959 750 1161 570 
Q 1363 391 1709 391 
Q 2188 391 2477 730 
Q 2766 1069 2766 1631 
L 2766 1759 
L 2194 1759 
z
M 3341 1997 
L 3341 0 
L 2766 0 
L 2766 531 
Q 2569 213 2275 61 
Q 1981 -91 1556 -91 
Q 1019 -91 701 211 
Q 384 513 384 1019 
Q 384 1609 779 1909 
Q 1175 2209 1959 2209 
L 2766 2209 
L 2766 2266 
Q 2766 2663 2505 2880 
Q 2244 3097 1772 3097 
Q 1472 3097 1187 3025 
Q 903 2953 641 2809 
L 641 3341 
Q 956 3463 1253 3523 
Q 1550 3584 1831 3584 
Q 2591 3584 2966 3190 
Q 3341 2797 3341 1997 
z
" transform="scale(0.015625)"/>
     </defs>
     <use xlink:href="#DejaVuSans-49"/>
     <use xlink:href="#DejaVuSans-74" x="29.492188"/>
     <use xlink:href="#DejaVuSans-65" x="68.701172"/>
     <use xlink:href="#DejaVuSans-72" x="130.224609"/>
     <use xlink:href="#DejaVuSans-61" x="171.337891"/>
     <use xlink:href="#DejaVuSans-74" x="232.617188"/>
     <use xlink:href="#DejaVuSans-69" x="271.826172"/>
     <use xlink:href="#DejaVuSans-6f" x="299.609375"/>
     <use xlink:href="#DejaVuSans-6e" x="360.791016"/>
     <use xlink:href="#DejaVuSans-20" x="424.169922"/>
     <use xlink:href="#DejaVuSans-30" x="455.957031"/>
    </g>
   </g>
  </g>
  <g id="axes_2">
   <g id="patch_7">
    <path d="M 183.540848 544.317969 
L 293.085134 544.317969 
L 293.085134 23.077969 
L 183.540848 23.077969 
z
" style="fill: #ffffff"/>
   </g>
   <g id="PolyCollection_2">
    <path d="M 241.72019 834.397623 
L 234.905792 834.397623 
L 234.362036 823.336249 
L 233.752596 812.274874 
L 233.073322 801.2135 
L 232.320442 790.152125 
L 231.490682 779.090751 
L 230.581394 768.029377 
L 229.590689 756.968002 
L 228.517557 745.906628 
L 227.361997 734.845253 
L 226.125121 723.783879 
L 224.80926 712.722504 
L 223.418038 701.66113 
L 221.956435 690.599756 
L 220.430817 679.538381 
L 218.848941 668.477007 
L 217.21993 657.415632 
L 215.554206 646.354258 
L 213.863404 635.292883 
L 212.160238 624.231509 
L 210.458345 613.170134 
L 208.772089 602.10876 
L 207.116349 591.047386 
L 205.506277 579.986011 
L 203.957041 568.924637 
L 202.483553 557.863262 
L 201.100202 546.801888 
L 199.820575 535.740513 
L 198.657199 524.679139 
L 197.621289 513.617764 
L 196.722525 502.55639 
L 195.968855 491.495016 
L 195.366328 480.433641 
L 194.918969 469.372267 
L 194.628696 458.310892 
L 194.495277 447.249518 
L 194.516336 436.188143 
L 194.687404 425.126769 
L 195.002009 414.065394 
L 195.45182 403.00402 
L 196.026815 391.942646 
L 196.715496 380.881271 
L 197.505131 369.819897 
L 198.382016 358.758522 
L 199.331758 347.697148 
L 200.339574 336.635773 
L 201.390583 325.574399 
L 202.470112 314.513025 
L 203.563973 303.45165 
L 204.658743 292.390276 
L 205.742007 281.328901 
L 206.80258 270.267527 
L 207.830694 259.206152 
L 208.818151 248.144778 
L 209.758424 237.083403 
L 210.64673 226.022029 
L 211.480049 214.960655 
L 212.257098 203.89928 
L 212.978271 192.837906 
L 213.645527 181.776531 
L 214.262251 170.715157 
L 214.833076 159.653782 
L 215.363684 148.592408 
L 215.860578 137.531033 
L 216.330849 126.469659 
L 216.781932 115.408285 
L 217.221365 104.34691 
L 217.656551 93.285536 
L 218.094537 82.224161 
L 218.54182 71.162787 
L 219.004167 60.101412 
L 219.48647 49.040038 
L 219.992641 37.978663 
L 220.525532 26.917289 
L 221.086896 15.855915 
L 221.677382 4.79454 
L 222.296566 -6.266834 
L 222.94301 -17.328209 
L 223.614347 -28.389583 
L 224.307399 -39.450958 
L 225.018295 -50.512332 
L 225.74262 -61.573706 
L 226.47556 -72.635081 
L 227.21205 -83.696455 
L 227.946927 -94.75783 
L 228.675063 -105.819204 
L 229.391499 -116.880579 
L 230.091555 -127.941953 
L 230.770932 -139.003328 
L 231.425784 -150.064702 
L 232.052781 -161.126076 
L 232.64915 -172.187451 
L 233.212691 -183.248825 
L 233.741788 -194.3102 
L 234.235389 -205.371574 
L 234.692984 -216.432949 
L 235.114565 -227.494323 
L 235.500583 -238.555698 
L 235.85189 -249.617072 
L 236.169684 -260.678446 
L 240.456298 -260.678446 
L 240.456298 -260.678446 
L 240.774092 -249.617072 
L 241.125399 -238.555698 
L 241.511417 -227.494323 
L 241.932999 -216.432949 
L 242.390593 -205.371574 
L 242.884194 -194.3102 
L 243.413291 -183.248825 
L 243.976833 -172.187451 
L 244.573201 -161.126076 
L 245.200198 -150.064702 
L 245.85505 -139.003328 
L 246.534427 -127.941953 
L 247.234484 -116.880579 
L 247.95092 -105.819204 
L 248.679056 -94.75783 
L 249.413932 -83.696455 
L 250.150422 -72.635081 
L 250.883362 -61.573706 
L 251.607687 -50.512332 
L 252.318583 -39.450958 
L 253.011635 -28.389583 
L 253.682973 -17.328209 
L 254.329416 -6.266834 
L 254.9486 4.79454 
L 255.539086 15.855915 
L 256.10045 26.917289 
L 256.633341 37.978663 
L 257.139512 49.040038 
L 257.621816 60.101412 
L 258.084162 71.162787 
L 258.531445 82.224161 
L 258.969431 93.285536 
L 259.404617 104.34691 
L 259.84405 115.408285 
L 260.295134 126.469659 
L 260.765405 137.531033 
L 261.262298 148.592408 
L 261.792906 159.653782 
L 262.363731 170.715157 
L 262.980455 181.776531 
L 263.647711 192.837906 
L 264.368884 203.89928 
L 265.145933 214.960655 
L 265.979252 226.022029 
L 266.867558 237.083403 
L 267.807831 248.144778 
L 268.795288 259.206152 
L 269.823402 270.267527 
L 270.883975 281.328901 
L 271.967239 292.390276 
L 273.062009 303.45165 
L 274.15587 314.513025 
L 275.235399 325.574399 
L 276.286409 336.635773 
L 277.294224 347.697148 
L 278.243966 358.758522 
L 279.120851 369.819897 
L 279.910486 380.881271 
L 280.599167 391.942646 
L 281.174162 403.00402 
L 281.623973 414.065394 
L 281.938578 425.126769 
L 282.109646 436.188143 
L 282.130705 447.249518 
L 281.997286 458.310892 
L 281.707013 469.372267 
L 281.259654 480.433641 
L 280.657127 491.495016 
L 279.903457 502.55639 
L 279.004693 513.617764 
L 277.968784 524.679139 
L 276.805407 535.740513 
L 275.52578 546.801888 
L 274.142429 557.863262 
L 272.668941 568.924637 
L 271.119705 579.986011 
L 269.509633 591.047386 
L 267.853893 602.10876 
L 266.167637 613.170134 
L 264.465744 624.231509 
L 262.762578 635.292883 
L 261.071776 646.354258 
L 259.406053 657.415632 
L 257.777041 668.477007 
L 256.195165 679.538381 
L 254.669547 690.599756 
L 253.207944 701.66113 
L 251.816722 712.722504 
L 250.500861 723.783879 
L 249.263985 734.845253 
L 248.108425 745.906628 
L 247.035293 756.968002 
L 246.044588 768.029377 
L 245.135301 779.090751 
L 244.30554 790.152125 
L 243.55266 801.2135 
L 242.873386 812.274874 
L 242.263946 823.336249 
L 241.72019 834.397623 
z
" clip-path="url(#pf2745923b0)" style="fill: #597dbf; stroke: #545454; stroke-width: 1.25"/>
   </g>
   <g id="matplotlib.axis_3">
    <g id="xtick_2">
     <g id="line2d_19">
      <g>
       <use xlink:href="#m81f6a549d7" x="238.312991" y="544.317969" style="stroke: #000000; stroke-width: 0.8"/>
      </g>
     </g>
     <g id="text_10">
      <!-- 1 -->
      <g transform="translate(235.131741 558.916406) scale(0.1 -0.1)">
       <use xlink:href="#DejaVuSans-31"/>
      </g>
     </g>
    </g>
   </g>
   <g id="matplotlib.axis_4">
    <g id="ytick_7">
     <g id="line2d_20">
      <path d="M 183.540848 475.958624 
L 293.085134 475.958624 
" clip-path="url(#pf2745923b0)" style="fill: none; stroke: #b0b0b0; stroke-width: 0.8; stroke-linecap: square"/>
     </g>
     <g id="line2d_21">
      <g>
       <use xlink:href="#me54c84fe99" x="183.540848" y="475.958624" style="stroke: #000000; stroke-width: 0.8"/>
      </g>
     </g>
     <g id="text_11">
      <!-- 10 -->
      <g transform="translate(163.815848 479.757843) scale(0.1 -0.1)">
       <use xlink:href="#DejaVuSans-31"/>
       <use xlink:href="#DejaVuSans-30" x="63.623047"/>
      </g>
     </g>
    </g>
    <g id="ytick_8">
     <g id="line2d_22">
      <path d="M 183.540848 390.509444 
L 293.085134 390.509444 
" clip-path="url(#pf2745923b0)" style="fill: none; stroke: #b0b0b0; stroke-width: 0.8; stroke-linecap: square"/>
     </g>
     <g id="line2d_23">
      <g>
       <use xlink:href="#me54c84fe99" x="183.540848" y="390.509444" style="stroke: #000000; stroke-width: 0.8"/>
      </g>
     </g>
     <g id="text_12">
      <!-- 20 -->
      <g transform="translate(163.815848 394.308663) scale(0.1 -0.1)">
       <use xlink:href="#DejaVuSans-32"/>
       <use xlink:href="#DejaVuSans-30" x="63.623047"/>
      </g>
     </g>
    </g>
    <g id="ytick_9">
     <g id="line2d_24">
      <path d="M 183.540848 305.060264 
L 293.085134 305.060264 
" clip-path="url(#pf2745923b0)" style="fill: none; stroke: #b0b0b0; stroke-width: 0.8; stroke-linecap: square"/>
     </g>
     <g id="line2d_25">
      <g>
       <use xlink:href="#me54c84fe99" x="183.540848" y="305.060264" style="stroke: #000000; stroke-width: 0.8"/>
      </g>
     </g>
     <g id="text_13">
      <!-- 30 -->
      <g transform="translate(163.815848 308.859483) scale(0.1 -0.1)">
       <use xlink:href="#DejaVuSans-33"/>
       <use xlink:href="#DejaVuSans-30" x="63.623047"/>
      </g>
     </g>
    </g>
    <g id="ytick_10">
     <g id="line2d_26">
      <path d="M 183.540848 219.611084 
L 293.085134 219.611084 
" clip-path="url(#pf2745923b0)" style="fill: none; stroke: #b0b0b0; stroke-width: 0.8; stroke-linecap: square"/>
     </g>
     <g id="line2d_27">
      <g>
       <use xlink:href="#me54c84fe99" x="183.540848" y="219.611084" style="stroke: #000000; stroke-width: 0.8"/>
      </g>
     </g>
     <g id="text_14">
      <!-- 40 -->
      <g transform="translate(163.815848 223.410302) scale(0.1 -0.1)">
       <use xlink:href="#DejaVuSans-34"/>
       <use xlink:href="#DejaVuSans-30" x="63.623047"/>
      </g>
     </g>
    </g>
    <g id="ytick_11">
     <g id="line2d_28">
      <path d="M 183.540848 134.161903 
L 293.085134 134.161903 
" clip-path="url(#pf2745923b0)" style="fill: none; stroke: #b0b0b0; stroke-width: 0.8; stroke-linecap: square"/>
     </g>
     <g id="line2d_29">
      <g>
       <use xlink:href="#me54c84fe99" x="183.540848" y="134.161903" style="stroke: #000000; stroke-width: 0.8"/>
      </g>
     </g>
     <g id="text_15">
      <!-- 50 -->
      <g transform="translate(163.815848 137.961122) scale(0.1 -0.1)">
       <use xlink:href="#DejaVuSans-35"/>
       <use xlink:href="#DejaVuSans-30" x="63.623047"/>
      </g>
     </g>
    </g>
    <g id="ytick_12">
     <g id="line2d_30">
      <path d="M 183.540848 48.712723 
L 293.085134 48.712723 
" clip-path="url(#pf2745923b0)" style="fill: none; stroke: #b0b0b0; stroke-width: 0.8; stroke-linecap: square"/>
     </g>
     <g id="line2d_31">
      <g>
       <use xlink:href="#me54c84fe99" x="183.540848" y="48.712723" style="stroke: #000000; stroke-width: 0.8"/>
      </g>
     </g>
     <g id="text_16">
      <!-- 60 -->
      <g transform="translate(163.815848 52.511942) scale(0.1 -0.1)">
       <use xlink:href="#DejaVuSans-36"/>
       <use xlink:href="#DejaVuSans-30" x="63.623047"/>
      </g>
     </g>
    </g>
   </g>
   <g id="line2d_32">
    <path d="M 238.312991 518.683215 
L 238.312991 55.035962 
" clip-path="url(#pf2745923b0)" style="fill: none; stroke: #545454; stroke-width: 1.875; stroke-linecap: square"/>
   </g>
   <g id="line2d_33">
    <path d="M 238.312991 483.050906 
L 238.312991 279.468234 
" clip-path="url(#pf2745923b0)" style="fill: none; stroke: #545454; stroke-width: 5.625; stroke-linecap: square"/>
   </g>
   <g id="line2d_34">
    <path d="M 238.312991 412.726231 
" clip-path="url(#pf2745923b0)" style="fill: none; stroke: #545454; stroke-width: 1.5; stroke-linecap: square"/>
    <g clip-path="url(#pf2745923b0)">
     <use xlink:href="#m500d1b99fc" x="238.312991" y="412.726231" style="fill: #ffffff; stroke: #ffffff; stroke-width: 1.125"/>
    </g>
   </g>
   <g id="line2d_35">
    <path d="M 183.540848 518.683215 
L 293.085134 518.683215 
" clip-path="url(#pf2745923b0)" style="fill: none; stroke-dasharray: 5.55,2.4; stroke-dashoffset: 0; stroke: #ff0000; stroke-width: 1.5"/>
   </g>
   <g id="line2d_36">
    <path d="M 183.540848 48.712723 
L 293.085134 48.712723 
" clip-path="url(#pf2745923b0)" style="fill: none; stroke-dasharray: 5.55,2.4; stroke-dashoffset: 0; stroke: #0000ff; stroke-width: 1.5"/>
   </g>
   <g id="patch_8">
    <path d="M 183.540848 544.317969 
L 183.540848 23.077969 
" style="fill: none; stroke: #000000; stroke-width: 0.8; stroke-linejoin: miter; stroke-linecap: square"/>
   </g>
   <g id="patch_9">
    <path d="M 293.085134 544.317969 
L 293.085134 23.077969 
" style="fill: none; stroke: #000000; stroke-width: 0.8; stroke-linejoin: miter; stroke-linecap: square"/>
   </g>
   <g id="patch_10">
    <path d="M 183.540848 544.317969 
L 293.085134 544.317969 
" style="fill: none; stroke: #000000; stroke-width: 0.8; stroke-linejoin: miter; stroke-linecap: square"/>
   </g>
   <g id="patch_11">
    <path d="M 183.540848 23.077969 
L 293.085134 23.077969 
" style="fill: none; stroke: #000000; stroke-width: 0.8; stroke-linejoin: miter; stroke-linecap: square"/>
   </g>
   <g id="text_17">
    <!-- Iteration 1 -->
    <g transform="translate(204.540413 17.077969) scale(0.13 -0.13)">
     <use xlink:href="#DejaVuSans-49"/>
     <use xlink:href="#DejaVuSans-74" x="29.492188"/>
     <use xlink:href="#DejaVuSans-65" x="68.701172"/>
     <use xlink:href="#DejaVuSans-72" x="130.224609"/>
     <use xlink:href="#DejaVuSans-61" x="171.337891"/>
     <use xlink:href="#DejaVuSans-74" x="232.617188"/>
     <use xlink:href="#DejaVuSans-69" x="271.826172"/>
     <use xlink:href="#DejaVuSans-6f" x="299.609375"/>
     <use xlink:href="#DejaVuSans-6e" x="360.791016"/>
     <use xlink:href="#DejaVuSans-20" x="424.169922"/>
     <use xlink:href="#DejaVuSans-31" x="455.957031"/>
    </g>
   </g>
  </g>
  <g id="axes_3">
   <g id="patch_12">
    <path d="M 323.575134 544.317969 
L 433.11942 544.317969 
L 433.11942 23.077969 
L 323.575134 23.077969 
z
" style="fill: #ffffff"/>
   </g>
   <g id="PolyCollection_3">
    <path d="M 380.981955 742.508274 
L 375.712599 742.508274 
L 375.318377 734.834431 
L 374.880321 727.160587 
L 374.396086 719.486743 
L 373.863589 711.8129 
L 373.281083 704.139056 
L 372.647211 696.465212 
L 371.961072 688.791369 
L 371.222279 681.117525 
L 370.431008 673.443681 
L 369.588044 665.769837 
L 368.694814 658.095994 
L 367.75341 650.42215 
L 366.766596 642.748306 
L 365.737803 635.074463 
L 364.671115 627.400619 
L 363.571223 619.726775 
L 362.443383 612.052932 
L 361.293348 604.379088 
L 360.127283 596.705244 
L 358.951679 589.0314 
L 357.773245 581.357557 
L 356.598796 573.683713 
L 355.435136 566.009869 
L 354.288934 558.336026 
L 353.166601 550.662182 
L 352.07417 542.988338 
L 351.017177 535.314495 
L 350.000558 527.640651 
L 349.028548 519.966807 
L 348.1046 512.292963 
L 347.231317 504.61912 
L 346.4104 496.945276 
L 345.642624 489.271432 
L 344.927822 481.597589 
L 344.264904 473.923745 
L 343.65189 466.249901 
L 343.085972 458.576058 
L 342.56359 450.902214 
L 342.08054 443.22837 
L 341.632095 435.554527 
L 341.213147 427.880683 
L 340.818363 420.206839 
L 340.442354 412.532995 
L 340.079857 404.859152 
L 339.725912 397.185308 
L 339.376048 389.511464 
L 339.026461 381.837621 
L 338.674178 374.163777 
L 338.317209 366.489933 
L 337.954678 358.81609 
L 337.586919 351.142246 
L 337.215553 343.468402 
L 336.843518 335.794558 
L 336.475072 328.120715 
L 336.115741 320.446871 
L 335.772238 312.773027 
L 335.452338 305.099184 
L 335.164707 297.42534 
L 334.91871 289.751496 
L 334.724173 282.077653 
L 334.591132 274.403809 
L 334.529562 266.729965 
L 334.549097 259.056121 
L 334.65875 251.382278 
L 334.866642 243.708434 
L 335.179755 236.03459 
L 335.603701 228.360747 
L 336.142534 220.686903 
L 336.798599 213.013059 
L 337.572426 205.339216 
L 338.462677 197.665372 
L 339.466138 189.991528 
L 340.577766 182.317684 
L 341.790783 174.643841 
L 343.096817 166.969997 
L 344.486078 159.296153 
L 345.947575 151.62231 
L 347.469357 143.948466 
L 349.038765 136.274622 
L 350.642707 128.600779 
L 352.267925 120.926935 
L 353.901257 113.253091 
L 355.52989 105.579247 
L 357.141586 97.905404 
L 358.724889 90.23156 
L 360.269292 82.557716 
L 361.765382 74.883873 
L 363.204943 67.210029 
L 364.581024 59.536185 
L 365.887974 51.862342 
L 367.121444 44.188498 
L 368.278358 36.514654 
L 369.356858 28.84081 
L 370.356225 21.166967 
L 371.276786 13.493123 
L 372.119802 5.819279 
L 372.887348 -1.854564 
L 373.582191 -9.528408 
L 374.207663 -17.202252 
L 382.48689 -17.202252 
L 382.48689 -17.202252 
L 383.112362 -9.528408 
L 383.807205 -1.854564 
L 384.574751 5.819279 
L 385.417767 13.493123 
L 386.338328 21.166967 
L 387.337696 28.84081 
L 388.416196 36.514654 
L 389.57311 44.188498 
L 390.80658 51.862342 
L 392.11353 59.536185 
L 393.489611 67.210029 
L 394.929172 74.883873 
L 396.425262 82.557716 
L 397.969665 90.23156 
L 399.552967 97.905404 
L 401.164664 105.579247 
L 402.793297 113.253091 
L 404.426629 120.926935 
L 406.051847 128.600779 
L 407.655789 136.274622 
L 409.225197 143.948466 
L 410.746978 151.62231 
L 412.208476 159.296153 
L 413.597737 166.969997 
L 414.90377 174.643841 
L 416.116787 182.317684 
L 417.228415 189.991528 
L 418.231877 197.665372 
L 419.122128 205.339216 
L 419.895955 213.013059 
L 420.55202 220.686903 
L 421.090853 228.360747 
L 421.514798 236.03459 
L 421.827911 243.708434 
L 422.035804 251.382278 
L 422.145456 259.056121 
L 422.164991 266.729965 
L 422.103421 274.403809 
L 421.97038 282.077653 
L 421.775843 289.751496 
L 421.529846 297.42534 
L 421.242216 305.099184 
L 420.922315 312.773027 
L 420.578813 320.446871 
L 420.219481 328.120715 
L 419.851035 335.794558 
L 419.479001 343.468402 
L 419.107635 351.142246 
L 418.739876 358.81609 
L 418.377344 366.489933 
L 418.020376 374.163777 
L 417.668093 381.837621 
L 417.318506 389.511464 
L 416.968642 397.185308 
L 416.614697 404.859152 
L 416.252199 412.532995 
L 415.876191 420.206839 
L 415.481407 427.880683 
L 415.062459 435.554527 
L 414.614014 443.22837 
L 414.130964 450.902214 
L 413.608582 458.576058 
L 413.042663 466.249901 
L 412.42965 473.923745 
L 411.766732 481.597589 
L 411.05193 489.271432 
L 410.284154 496.945276 
L 409.463237 504.61912 
L 408.589954 512.292963 
L 407.666006 519.966807 
L 406.693996 527.640651 
L 405.677377 535.314495 
L 404.620384 542.988338 
L 403.527952 550.662182 
L 402.40562 558.336026 
L 401.259418 566.009869 
L 400.095758 573.683713 
L 398.921309 581.357557 
L 397.742875 589.0314 
L 396.56727 596.705244 
L 395.401206 604.379088 
L 394.25117 612.052932 
L 393.123331 619.726775 
L 392.023439 627.400619 
L 390.95675 635.074463 
L 389.927958 642.748306 
L 388.941143 650.42215 
L 387.999739 658.095994 
L 387.10651 665.769837 
L 386.263546 673.443681 
L 385.472275 681.117525 
L 384.733481 688.791369 
L 384.047342 696.465212 
L 383.41347 704.139056 
L 382.830964 711.8129 
L 382.298468 719.486743 
L 381.814232 727.160587 
L 381.376176 734.834431 
L 380.981955 742.508274 
z
" clip-path="url(#p76b224a0d1)" style="fill: #597dbf; stroke: #545454; stroke-width: 1.25"/>
   </g>
   <g id="matplotlib.axis_5">
    <g id="xtick_3">
     <g id="line2d_37">
      <g>
       <use xlink:href="#m81f6a549d7" x="378.347277" y="544.317969" style="stroke: #000000; stroke-width: 0.8"/>
      </g>
     </g>
     <g id="text_18">
      <!-- 2 -->
      <g transform="translate(375.166027 558.916406) scale(0.1 -0.1)">
       <use xlink:href="#DejaVuSans-32"/>
      </g>
     </g>
    </g>
   </g>
   <g id="matplotlib.axis_6">
    <g id="ytick_13">
     <g id="line2d_38">
      <path d="M 323.575134 475.958624 
L 433.11942 475.958624 
" clip-path="url(#p76b224a0d1)" style="fill: none; stroke: #b0b0b0; stroke-width: 0.8; stroke-linecap: square"/>
     </g>
     <g id="line2d_39">
      <g>
       <use xlink:href="#me54c84fe99" x="323.575134" y="475.958624" style="stroke: #000000; stroke-width: 0.8"/>
      </g>
     </g>
     <g id="text_19">
      <!-- 10 -->
      <g transform="translate(303.850134 479.757843) scale(0.1 -0.1)">
       <use xlink:href="#DejaVuSans-31"/>
       <use xlink:href="#DejaVuSans-30" x="63.623047"/>
      </g>
     </g>
    </g>
    <g id="ytick_14">
     <g id="line2d_40">
      <path d="M 323.575134 390.509444 
L 433.11942 390.509444 
" clip-path="url(#p76b224a0d1)" style="fill: none; stroke: #b0b0b0; stroke-width: 0.8; stroke-linecap: square"/>
     </g>
     <g id="line2d_41">
      <g>
       <use xlink:href="#me54c84fe99" x="323.575134" y="390.509444" style="stroke: #000000; stroke-width: 0.8"/>
      </g>
     </g>
     <g id="text_20">
      <!-- 20 -->
      <g transform="translate(303.850134 394.308663) scale(0.1 -0.1)">
       <use xlink:href="#DejaVuSans-32"/>
       <use xlink:href="#DejaVuSans-30" x="63.623047"/>
      </g>
     </g>
    </g>
    <g id="ytick_15">
     <g id="line2d_42">
      <path d="M 323.575134 305.060264 
L 433.11942 305.060264 
" clip-path="url(#p76b224a0d1)" style="fill: none; stroke: #b0b0b0; stroke-width: 0.8; stroke-linecap: square"/>
     </g>
     <g id="line2d_43">
      <g>
       <use xlink:href="#me54c84fe99" x="323.575134" y="305.060264" style="stroke: #000000; stroke-width: 0.8"/>
      </g>
     </g>
     <g id="text_21">
      <!-- 30 -->
      <g transform="translate(303.850134 308.859483) scale(0.1 -0.1)">
       <use xlink:href="#DejaVuSans-33"/>
       <use xlink:href="#DejaVuSans-30" x="63.623047"/>
      </g>
     </g>
    </g>
    <g id="ytick_16">
     <g id="line2d_44">
      <path d="M 323.575134 219.611084 
L 433.11942 219.611084 
" clip-path="url(#p76b224a0d1)" style="fill: none; stroke: #b0b0b0; stroke-width: 0.8; stroke-linecap: square"/>
     </g>
     <g id="line2d_45">
      <g>
       <use xlink:href="#me54c84fe99" x="323.575134" y="219.611084" style="stroke: #000000; stroke-width: 0.8"/>
      </g>
     </g>
     <g id="text_22">
      <!-- 40 -->
      <g transform="translate(303.850134 223.410302) scale(0.1 -0.1)">
       <use xlink:href="#DejaVuSans-34"/>
       <use xlink:href="#DejaVuSans-30" x="63.623047"/>
      </g>
     </g>
    </g>
    <g id="ytick_17">
     <g id="line2d_46">
      <path d="M 323.575134 134.161903 
L 433.11942 134.161903 
" clip-path="url(#p76b224a0d1)" style="fill: none; stroke: #b0b0b0; stroke-width: 0.8; stroke-linecap: square"/>
     </g>
     <g id="line2d_47">
      <g>
       <use xlink:href="#me54c84fe99" x="323.575134" y="134.161903" style="stroke: #000000; stroke-width: 0.8"/>
      </g>
     </g>
     <g id="text_23">
      <!-- 50 -->
      <g transform="translate(303.850134 137.961122) scale(0.1 -0.1)">
       <use xlink:href="#DejaVuSans-35"/>
       <use xlink:href="#DejaVuSans-30" x="63.623047"/>
      </g>
     </g>
    </g>
    <g id="ytick_18">
     <g id="line2d_48">
      <path d="M 323.575134 48.712723 
L 433.11942 48.712723 
" clip-path="url(#p76b224a0d1)" style="fill: none; stroke: #b0b0b0; stroke-width: 0.8; stroke-linecap: square"/>
     </g>
     <g id="line2d_49">
      <g>
       <use xlink:href="#me54c84fe99" x="323.575134" y="48.712723" style="stroke: #000000; stroke-width: 0.8"/>
      </g>
     </g>
     <g id="text_24">
      <!-- 60 -->
      <g transform="translate(303.850134 52.511942) scale(0.1 -0.1)">
       <use xlink:href="#DejaVuSans-36"/>
       <use xlink:href="#DejaVuSans-30" x="63.623047"/>
      </g>
     </g>
    </g>
   </g>
   <g id="line2d_50">
    <path d="M 378.347277 518.683215 
L 378.347277 206.622808 
" clip-path="url(#p76b224a0d1)" style="fill: none; stroke: #545454; stroke-width: 1.875; stroke-linecap: square"/>
   </g>
   <g id="line2d_51">
    <path d="M 378.347277 427.679838 
L 378.347277 223.029051 
" clip-path="url(#p76b224a0d1)" style="fill: none; stroke: #545454; stroke-width: 5.625; stroke-linecap: square"/>
   </g>
   <g id="line2d_52">
    <path d="M 378.347277 312.921588 
" clip-path="url(#p76b224a0d1)" style="fill: none; stroke: #545454; stroke-width: 1.5; stroke-linecap: square"/>
    <g clip-path="url(#p76b224a0d1)">
     <use xlink:href="#m500d1b99fc" x="378.347277" y="312.921588" style="fill: #ffffff; stroke: #ffffff; stroke-width: 1.125"/>
    </g>
   </g>
   <g id="line2d_53">
    <path d="M 323.575134 518.683215 
L 433.11942 518.683215 
" clip-path="url(#p76b224a0d1)" style="fill: none; stroke-dasharray: 5.55,2.4; stroke-dashoffset: 0; stroke: #ff0000; stroke-width: 1.5"/>
   </g>
   <g id="line2d_54">
    <path d="M 323.575134 48.712723 
L 433.11942 48.712723 
" clip-path="url(#p76b224a0d1)" style="fill: none; stroke-dasharray: 5.55,2.4; stroke-dashoffset: 0; stroke: #0000ff; stroke-width: 1.5"/>
   </g>
   <g id="patch_13">
    <path d="M 323.575134 544.317969 
L 323.575134 23.077969 
" style="fill: none; stroke: #000000; stroke-width: 0.8; stroke-linejoin: miter; stroke-linecap: square"/>
   </g>
   <g id="patch_14">
    <path d="M 433.11942 544.317969 
L 433.11942 23.077969 
" style="fill: none; stroke: #000000; stroke-width: 0.8; stroke-linejoin: miter; stroke-linecap: square"/>
   </g>
   <g id="patch_15">
    <path d="M 323.575134 544.317969 
L 433.11942 544.317969 
" style="fill: none; stroke: #000000; stroke-width: 0.8; stroke-linejoin: miter; stroke-linecap: square"/>
   </g>
   <g id="patch_16">
    <path d="M 323.575134 23.077969 
L 433.11942 23.077969 
" style="fill: none; stroke: #000000; stroke-width: 0.8; stroke-linejoin: miter; stroke-linecap: square"/>
   </g>
   <g id="text_25">
    <!-- Iteration 2 -->
    <g transform="translate(344.574699 17.077969) scale(0.13 -0.13)">
     <use xlink:href="#DejaVuSans-49"/>
     <use xlink:href="#DejaVuSans-74" x="29.492188"/>
     <use xlink:href="#DejaVuSans-65" x="68.701172"/>
     <use xlink:href="#DejaVuSans-72" x="130.224609"/>
     <use xlink:href="#DejaVuSans-61" x="171.337891"/>
     <use xlink:href="#DejaVuSans-74" x="232.617188"/>
     <use xlink:href="#DejaVuSans-69" x="271.826172"/>
     <use xlink:href="#DejaVuSans-6f" x="299.609375"/>
     <use xlink:href="#DejaVuSans-6e" x="360.791016"/>
     <use xlink:href="#DejaVuSans-20" x="424.169922"/>
     <use xlink:href="#DejaVuSans-32" x="455.957031"/>
    </g>
   </g>
  </g>
  <g id="axes_4">
   <g id="patch_17">
    <path d="M 463.60942 544.317969 
L 573.153705 544.317969 
L 573.153705 23.077969 
L 463.60942 23.077969 
z
" style="fill: #ffffff"/>
   </g>
   <g id="PolyCollection_4">
    <defs>
     <path id="m6176668ded" d="M 523.677232 12.331183 
L 513.085893 12.331183 
L 512.350795 10.291187 
L 511.54327 8.251191 
L 510.661019 6.211196 
L 509.702444 4.1712 
L 508.666776 2.131204 
L 507.554171 0.091208 
L 506.365818 -1.948787 
L 505.104025 -3.988783 
L 503.772281 -6.028779 
L 502.375312 -8.068774 
L 500.919098 -10.10877 
L 499.41087 -12.148766 
L 497.85907 -14.188761 
L 496.273287 -16.228757 
L 494.664151 -18.268753 
L 493.043195 -20.308748 
L 491.422691 -22.348744 
L 489.815446 -24.38874 
L 488.234581 -26.428735 
L 486.693283 -28.468731 
L 485.204539 -30.508727 
L 483.780867 -32.548722 
L 482.434043 -34.588718 
L 481.174827 -36.628714 
L 480.012717 -38.668709 
L 478.955707 -40.708705 
L 478.010097 -42.748701 
L 477.180319 -44.788697 
L 476.468821 -46.828692 
L 475.875995 -48.868688 
L 475.400157 -50.908684 
L 475.037582 -52.948679 
L 474.782595 -54.988675 
L 474.627714 -57.028671 
L 474.563848 -59.068666 
L 474.580534 -61.108662 
L 474.666219 -63.148658 
L 474.808574 -65.188653 
L 474.994823 -67.228649 
L 475.212098 -69.268645 
L 475.447786 -71.30864 
L 475.689871 -73.348636 
L 475.927265 -75.388632 
L 476.150102 -77.428627 
L 476.35 -79.468623 
L 476.520285 -81.508619 
L 476.656151 -83.548614 
L 476.754784 -85.58861 
L 476.81541 -87.628606 
L 476.839298 -89.668602 
L 476.829696 -91.708597 
L 476.791719 -93.748593 
L 476.73218 -95.788589 
L 476.659377 -97.828584 
L 476.582843 -99.86858 
L 476.513063 -101.908576 
L 476.461169 -103.948571 
L 476.438624 -105.988567 
L 476.456902 -108.028563 
L 476.527169 -110.068558 
L 476.659985 -112.108554 
L 476.865026 -114.14855 
L 477.150831 -116.188545 
L 477.524591 -118.228541 
L 477.991977 -120.268537 
L 478.557006 -122.308532 
L 479.22196 -124.348528 
L 479.987349 -126.388524 
L 480.851915 -128.428519 
L 481.812689 -130.468515 
L 482.865078 -132.508511 
L 484.002994 -134.548507 
L 485.219014 -136.588502 
L 486.504563 -138.628498 
L 487.850119 -140.668494 
L 489.245423 -142.708489 
L 490.679712 -144.748485 
L 492.141931 -146.788481 
L 493.620958 -148.828476 
L 495.10581 -150.868472 
L 496.58583 -152.908468 
L 498.050868 -154.948463 
L 499.491422 -156.988459 
L 500.898774 -159.028455 
L 502.265084 -161.06845 
L 503.583468 -163.108446 
L 504.848046 -165.148442 
L 506.053965 -167.188437 
L 507.197401 -169.228433 
L 508.275537 -171.268429 
L 509.286525 -173.308424 
L 510.22943 -175.34842 
L 511.104157 -177.388416 
L 511.911379 -179.428412 
L 512.652446 -181.468407 
L 513.329294 -183.508403 
L 513.944357 -185.548399 
L 514.500471 -187.588394 
L 515.000785 -189.62839 
L 521.76234 -189.62839 
L 521.76234 -189.62839 
L 522.262654 -187.588394 
L 522.818768 -185.548399 
L 523.433831 -183.508403 
L 524.110679 -181.468407 
L 524.851746 -179.428412 
L 525.658968 -177.388416 
L 526.533695 -175.34842 
L 527.4766 -173.308424 
L 528.487588 -171.268429 
L 529.565724 -169.228433 
L 530.70916 -167.188437 
L 531.915079 -165.148442 
L 533.179657 -163.108446 
L 534.498041 -161.06845 
L 535.864351 -159.028455 
L 537.271703 -156.988459 
L 538.712257 -154.948463 
L 540.177295 -152.908468 
L 541.657315 -150.868472 
L 543.142167 -148.828476 
L 544.621194 -146.788481 
L 546.083413 -144.748485 
L 547.517702 -142.708489 
L 548.913006 -140.668494 
L 550.258562 -138.628498 
L 551.544111 -136.588502 
L 552.760131 -134.548507 
L 553.898047 -132.508511 
L 554.950436 -130.468515 
L 555.91121 -128.428519 
L 556.775776 -126.388524 
L 557.541165 -124.348528 
L 558.206119 -122.308532 
L 558.771148 -120.268537 
L 559.238534 -118.228541 
L 559.612294 -116.188545 
L 559.898099 -114.14855 
L 560.10314 -112.108554 
L 560.235956 -110.068558 
L 560.306223 -108.028563 
L 560.324501 -105.988567 
L 560.301956 -103.948571 
L 560.250062 -101.908576 
L 560.180282 -99.86858 
L 560.103748 -97.828584 
L 560.030945 -95.788589 
L 559.971406 -93.748593 
L 559.933429 -91.708597 
L 559.923827 -89.668602 
L 559.947715 -87.628606 
L 560.008341 -85.58861 
L 560.106974 -83.548614 
L 560.24284 -81.508619 
L 560.413125 -79.468623 
L 560.613023 -77.428627 
L 560.83586 -75.388632 
L 561.073254 -73.348636 
L 561.315339 -71.30864 
L 561.551027 -69.268645 
L 561.768302 -67.228649 
L 561.954551 -65.188653 
L 562.096906 -63.148658 
L 562.182591 -61.108662 
L 562.199277 -59.068666 
L 562.135411 -57.028671 
L 561.98053 -54.988675 
L 561.725543 -52.948679 
L 561.362968 -50.908684 
L 560.88713 -48.868688 
L 560.294304 -46.828692 
L 559.582806 -44.788697 
L 558.753028 -42.748701 
L 557.807418 -40.708705 
L 556.750408 -38.668709 
L 555.588298 -36.628714 
L 554.329082 -34.588718 
L 552.982258 -32.548722 
L 551.558586 -30.508727 
L 550.069842 -28.468731 
L 548.528544 -26.428735 
L 546.947679 -24.38874 
L 545.340434 -22.348744 
L 543.71993 -20.308748 
L 542.098974 -18.268753 
L 540.489838 -16.228757 
L 538.904055 -14.188761 
L 537.352255 -12.148766 
L 535.844027 -10.10877 
L 534.387813 -8.068774 
L 532.990844 -6.028779 
L 531.6591 -3.988783 
L 530.397307 -1.948787 
L 529.208954 0.091208 
L 528.096349 2.131204 
L 527.060681 4.1712 
L 526.102106 6.211196 
L 525.219855 8.251191 
L 524.41233 10.291187 
L 523.677232 12.331183 
z
" style="stroke: #545454; stroke-width: 1.25"/>
    </defs>
    <g clip-path="url(#pf2f0a5dde9)">
     <use xlink:href="#m6176668ded" x="0" y="568.196094" style="fill: #597dbf; stroke: #545454; stroke-width: 1.25"/>
    </g>
   </g>
   <g id="matplotlib.axis_7">
    <g id="xtick_4">
     <g id="line2d_55">
      <g>
       <use xlink:href="#m81f6a549d7" x="518.381563" y="544.317969" style="stroke: #000000; stroke-width: 0.8"/>
      </g>
     </g>
     <g id="text_26">
      <!-- 3 -->
      <g transform="translate(515.200313 558.916406) scale(0.1 -0.1)">
       <use xlink:href="#DejaVuSans-33"/>
      </g>
     </g>
    </g>
   </g>
   <g id="matplotlib.axis_8">
    <g id="ytick_19">
     <g id="line2d_56">
      <path d="M 463.60942 475.958624 
L 573.153705 475.958624 
" clip-path="url(#pf2f0a5dde9)" style="fill: none; stroke: #b0b0b0; stroke-width: 0.8; stroke-linecap: square"/>
     </g>
     <g id="line2d_57">
      <g>
       <use xlink:href="#me54c84fe99" x="463.60942" y="475.958624" style="stroke: #000000; stroke-width: 0.8"/>
      </g>
     </g>
     <g id="text_27">
      <!-- 10 -->
      <g transform="translate(443.88442 479.757843) scale(0.1 -0.1)">
       <use xlink:href="#DejaVuSans-31"/>
       <use xlink:href="#DejaVuSans-30" x="63.623047"/>
      </g>
     </g>
    </g>
    <g id="ytick_20">
     <g id="line2d_58">
      <path d="M 463.60942 390.509444 
L 573.153705 390.509444 
" clip-path="url(#pf2f0a5dde9)" style="fill: none; stroke: #b0b0b0; stroke-width: 0.8; stroke-linecap: square"/>
     </g>
     <g id="line2d_59">
      <g>
       <use xlink:href="#me54c84fe99" x="463.60942" y="390.509444" style="stroke: #000000; stroke-width: 0.8"/>
      </g>
     </g>
     <g id="text_28">
      <!-- 20 -->
      <g transform="translate(443.88442 394.308663) scale(0.1 -0.1)">
       <use xlink:href="#DejaVuSans-32"/>
       <use xlink:href="#DejaVuSans-30" x="63.623047"/>
      </g>
     </g>
    </g>
    <g id="ytick_21">
     <g id="line2d_60">
      <path d="M 463.60942 305.060264 
L 573.153705 305.060264 
" clip-path="url(#pf2f0a5dde9)" style="fill: none; stroke: #b0b0b0; stroke-width: 0.8; stroke-linecap: square"/>
     </g>
     <g id="line2d_61">
      <g>
       <use xlink:href="#me54c84fe99" x="463.60942" y="305.060264" style="stroke: #000000; stroke-width: 0.8"/>
      </g>
     </g>
     <g id="text_29">
      <!-- 30 -->
      <g transform="translate(443.88442 308.859483) scale(0.1 -0.1)">
       <use xlink:href="#DejaVuSans-33"/>
       <use xlink:href="#DejaVuSans-30" x="63.623047"/>
      </g>
     </g>
    </g>
    <g id="ytick_22">
     <g id="line2d_62">
      <path d="M 463.60942 219.611084 
L 573.153705 219.611084 
" clip-path="url(#pf2f0a5dde9)" style="fill: none; stroke: #b0b0b0; stroke-width: 0.8; stroke-linecap: square"/>
     </g>
     <g id="line2d_63">
      <g>
       <use xlink:href="#me54c84fe99" x="463.60942" y="219.611084" style="stroke: #000000; stroke-width: 0.8"/>
      </g>
     </g>
     <g id="text_30">
      <!-- 40 -->
      <g transform="translate(443.88442 223.410302) scale(0.1 -0.1)">
       <use xlink:href="#DejaVuSans-34"/>
       <use xlink:href="#DejaVuSans-30" x="63.623047"/>
      </g>
     </g>
    </g>
    <g id="ytick_23">
     <g id="line2d_64">
      <path d="M 463.60942 134.161903 
L 573.153705 134.161903 
" clip-path="url(#pf2f0a5dde9)" style="fill: none; stroke: #b0b0b0; stroke-width: 0.8; stroke-linecap: square"/>
     </g>
     <g id="line2d_65">
      <g>
       <use xlink:href="#me54c84fe99" x="463.60942" y="134.161903" style="stroke: #000000; stroke-width: 0.8"/>
      </g>
     </g>
     <g id="text_31">
      <!-- 50 -->
      <g transform="translate(443.88442 137.961122) scale(0.1 -0.1)">
       <use xlink:href="#DejaVuSans-35"/>
       <use xlink:href="#DejaVuSans-30" x="63.623047"/>
      </g>
     </g>
    </g>
    <g id="ytick_24">
     <g id="line2d_66">
      <path d="M 463.60942 48.712723 
L 573.153705 48.712723 
" clip-path="url(#pf2f0a5dde9)" style="fill: none; stroke: #b0b0b0; stroke-width: 0.8; stroke-linecap: square"/>
     </g>
     <g id="line2d_67">
      <g>
       <use xlink:href="#me54c84fe99" x="463.60942" y="48.712723" style="stroke: #000000; stroke-width: 0.8"/>
      </g>
     </g>
     <g id="text_32">
      <!-- 60 -->
      <g transform="translate(443.88442 52.511942) scale(0.1 -0.1)">
       <use xlink:href="#DejaVuSans-36"/>
       <use xlink:href="#DejaVuSans-30" x="63.623047"/>
      </g>
     </g>
    </g>
   </g>
   <g id="line2d_68">
    <path d="M 518.381563 518.683215 
L 518.381563 440.411765 
" clip-path="url(#pf2f0a5dde9)" style="fill: none; stroke: #545454; stroke-width: 1.875; stroke-linecap: square"/>
   </g>
   <g id="line2d_69">
    <path d="M 518.381563 518.683215 
L 518.381563 453.421403 
" clip-path="url(#pf2f0a5dde9)" style="fill: none; stroke: #545454; stroke-width: 5.625; stroke-linecap: square"/>
   </g>
   <g id="line2d_70">
    <path d="M 518.381563 488.220582 
" clip-path="url(#pf2f0a5dde9)" style="fill: none; stroke: #545454; stroke-width: 1.5; stroke-linecap: square"/>
    <g clip-path="url(#pf2f0a5dde9)">
     <use xlink:href="#m500d1b99fc" x="518.381563" y="488.220582" style="fill: #ffffff; stroke: #ffffff; stroke-width: 1.125"/>
    </g>
   </g>
   <g id="line2d_71">
    <path d="M 463.60942 518.683215 
L 573.153705 518.683215 
" clip-path="url(#pf2f0a5dde9)" style="fill: none; stroke-dasharray: 5.55,2.4; stroke-dashoffset: 0; stroke: #ff0000; stroke-width: 1.5"/>
   </g>
   <g id="line2d_72">
    <path d="M 463.60942 48.712723 
L 573.153705 48.712723 
" clip-path="url(#pf2f0a5dde9)" style="fill: none; stroke-dasharray: 5.55,2.4; stroke-dashoffset: 0; stroke: #0000ff; stroke-width: 1.5"/>
   </g>
   <g id="patch_18">
    <path d="M 463.60942 544.317969 
L 463.60942 23.077969 
" style="fill: none; stroke: #000000; stroke-width: 0.8; stroke-linejoin: miter; stroke-linecap: square"/>
   </g>
   <g id="patch_19">
    <path d="M 573.153705 544.317969 
L 573.153705 23.077969 
" style="fill: none; stroke: #000000; stroke-width: 0.8; stroke-linejoin: miter; stroke-linecap: square"/>
   </g>
   <g id="patch_20">
    <path d="M 463.60942 544.317969 
L 573.153705 544.317969 
" style="fill: none; stroke: #000000; stroke-width: 0.8; stroke-linejoin: miter; stroke-linecap: square"/>
   </g>
   <g id="patch_21">
    <path d="M 463.60942 23.077969 
L 573.153705 23.077969 
" style="fill: none; stroke: #000000; stroke-width: 0.8; stroke-linejoin: miter; stroke-linecap: square"/>
   </g>
   <g id="text_33">
    <!-- Iteration 3 -->
    <g transform="translate(484.608984 17.077969) scale(0.13 -0.13)">
     <use xlink:href="#DejaVuSans-49"/>
     <use xlink:href="#DejaVuSans-74" x="29.492188"/>
     <use xlink:href="#DejaVuSans-65" x="68.701172"/>
     <use xlink:href="#DejaVuSans-72" x="130.224609"/>
     <use xlink:href="#DejaVuSans-61" x="171.337891"/>
     <use xlink:href="#DejaVuSans-74" x="232.617188"/>
     <use xlink:href="#DejaVuSans-69" x="271.826172"/>
     <use xlink:href="#DejaVuSans-6f" x="299.609375"/>
     <use xlink:href="#DejaVuSans-6e" x="360.791016"/>
     <use xlink:href="#DejaVuSans-20" x="424.169922"/>
     <use xlink:href="#DejaVuSans-33" x="455.957031"/>
    </g>
   </g>
  </g>
  <g id="axes_5">
   <g id="patch_22">
    <path d="M 603.643705 544.317969 
L 713.187991 544.317969 
L 713.187991 23.077969 
L 603.643705 23.077969 
z
" style="fill: #ffffff"/>
   </g>
   <g id="PolyCollection_5">
    <defs>
     <path id="m870879795c" d="M 661.444369 17.95033 
L 655.387327 17.95033 
L 654.922958 15.161558 
L 654.404932 12.372785 
L 653.830064 9.584013 
L 653.195469 6.795241 
L 652.498648 4.006468 
L 651.737576 1.217696 
L 650.910796 -1.571076 
L 650.017505 -4.359849 
L 649.057639 -7.148621 
L 648.031949 -9.937394 
L 646.942061 -12.726166 
L 645.790535 -15.514938 
L 644.580892 -18.303711 
L 643.317636 -21.092483 
L 642.006245 -23.881255 
L 640.653143 -26.670028 
L 639.26565 -29.4588 
L 637.851905 -32.247572 
L 636.420762 -35.036345 
L 634.981664 -37.825117 
L 633.5445 -40.61389 
L 632.119437 -43.402662 
L 630.716735 -46.191434 
L 629.346551 -48.980207 
L 628.018742 -51.768979 
L 626.742653 -54.557751 
L 625.526917 -57.346524 
L 624.379264 -60.135296 
L 623.306338 -62.924069 
L 622.313544 -65.712841 
L 621.404911 -68.501613 
L 620.582996 -71.290386 
L 619.848815 -74.079158 
L 619.201818 -76.86793 
L 618.639904 -79.656703 
L 618.159478 -82.445475 
L 617.755551 -85.234247 
L 617.42188 -88.02302 
L 617.151152 -90.811792 
L 616.935192 -93.600565 
L 616.765214 -96.389337 
L 616.632081 -99.178109 
L 616.526593 -101.966882 
L 616.439772 -104.755654 
L 616.363153 -107.544426 
L 616.289062 -110.333199 
L 616.210871 -113.121971 
L 616.123235 -115.910743 
L 616.02228 -118.699516 
L 615.905761 -121.488288 
L 615.773159 -124.277061 
L 615.625738 -127.065833 
L 615.466538 -129.854605 
L 615.300311 -132.643378 
L 615.133411 -135.43215 
L 614.973619 -138.220922 
L 614.829934 -141.009695 
L 614.712314 -143.798467 
L 614.631386 -146.58724 
L 614.598134 -149.376012 
L 614.623573 -152.164784 
L 614.718416 -154.953557 
L 614.892752 -157.742329 
L 615.155739 -160.531101 
L 615.515323 -163.319874 
L 615.977995 -166.108646 
L 616.548588 -168.897418 
L 617.230125 -171.686191 
L 618.023717 -174.474963 
L 618.928514 -177.263736 
L 619.941719 -180.052508 
L 621.058642 -182.84128 
L 622.272817 -185.630053 
L 623.576156 -188.418825 
L 624.959143 -191.207597 
L 626.411062 -193.99637 
L 627.920246 -196.785142 
L 629.474344 -199.573915 
L 631.060589 -202.362687 
L 632.66607 -205.151459 
L 634.277996 -207.940232 
L 635.883935 -210.729004 
L 637.47204 -213.517776 
L 639.031241 -216.306549 
L 640.551412 -219.095321 
L 642.023501 -221.884093 
L 643.439623 -224.672866 
L 644.793129 -227.461638 
L 646.078626 -230.250411 
L 647.291981 -233.039183 
L 648.430287 -235.827955 
L 649.491808 -238.616728 
L 650.475901 -241.4055 
L 651.382924 -244.194272 
L 652.214129 -246.983045 
L 652.971548 -249.771817 
L 653.657873 -252.56059 
L 654.276336 -255.349362 
L 654.830596 -258.138134 
L 662.001101 -258.138134 
L 662.001101 -258.138134 
L 662.55536 -255.349362 
L 663.173824 -252.56059 
L 663.860148 -249.771817 
L 664.617567 -246.983045 
L 665.448773 -244.194272 
L 666.355796 -241.4055 
L 667.339889 -238.616728 
L 668.401409 -235.827955 
L 669.539715 -233.039183 
L 670.75307 -230.250411 
L 672.038567 -227.461638 
L 673.392073 -224.672866 
L 674.808196 -221.884093 
L 676.280284 -219.095321 
L 677.800455 -216.306549 
L 679.359657 -213.517776 
L 680.947761 -210.729004 
L 682.5537 -207.940232 
L 684.165626 -205.151459 
L 685.771108 -202.362687 
L 687.357352 -199.573915 
L 688.91145 -196.785142 
L 690.420634 -193.99637 
L 691.872554 -191.207597 
L 693.255541 -188.418825 
L 694.558879 -185.630053 
L 695.773054 -182.84128 
L 696.889977 -180.052508 
L 697.903182 -177.263736 
L 698.80798 -174.474963 
L 699.601571 -171.686191 
L 700.283109 -168.897418 
L 700.853702 -166.108646 
L 701.316374 -163.319874 
L 701.675957 -160.531101 
L 701.938944 -157.742329 
L 702.11328 -154.953557 
L 702.208123 -152.164784 
L 702.233563 -149.376012 
L 702.200311 -146.58724 
L 702.119383 -143.798467 
L 702.001763 -141.009695 
L 701.858078 -138.220922 
L 701.698286 -135.43215 
L 701.531385 -132.643378 
L 701.365158 -129.854605 
L 701.205958 -127.065833 
L 701.058538 -124.277061 
L 700.925936 -121.488288 
L 700.809416 -118.699516 
L 700.708461 -115.910743 
L 700.620825 -113.121971 
L 700.542635 -110.333199 
L 700.468543 -107.544426 
L 700.391924 -104.755654 
L 700.305103 -101.966882 
L 700.199615 -99.178109 
L 700.066482 -96.389337 
L 699.896504 -93.600565 
L 699.680545 -90.811792 
L 699.409816 -88.02302 
L 699.076146 -85.234247 
L 698.672218 -82.445475 
L 698.191792 -79.656703 
L 697.629878 -76.86793 
L 696.982881 -74.079158 
L 696.2487 -71.290386 
L 695.426785 -68.501613 
L 694.518153 -65.712841 
L 693.525359 -62.924069 
L 692.452433 -60.135296 
L 691.304779 -57.346524 
L 690.089044 -54.557751 
L 688.812954 -51.768979 
L 687.485145 -48.980207 
L 686.114962 -46.191434 
L 684.712259 -43.402662 
L 683.287196 -40.61389 
L 681.850033 -37.825117 
L 680.410935 -35.036345 
L 678.979791 -32.247572 
L 677.566046 -29.4588 
L 676.178554 -26.670028 
L 674.825452 -23.881255 
L 673.51406 -21.092483 
L 672.250804 -18.303711 
L 671.041161 -15.514938 
L 669.889635 -12.726166 
L 668.799748 -9.937394 
L 667.774057 -7.148621 
L 666.814192 -4.359849 
L 665.920901 -1.571076 
L 665.094121 1.217696 
L 664.333048 4.006468 
L 663.636227 6.795241 
L 663.001632 9.584013 
L 662.426765 12.372785 
L 661.908738 15.161558 
L 661.444369 17.95033 
z
" style="stroke: #545454; stroke-width: 1.25"/>
    </defs>
    <g clip-path="url(#peb8ca069f2)">
     <use xlink:href="#m870879795c" x="0" y="568.196094" style="fill: #597dbf; stroke: #545454; stroke-width: 1.25"/>
    </g>
   </g>
   <g id="matplotlib.axis_9">
    <g id="xtick_5">
     <g id="line2d_73">
      <g>
       <use xlink:href="#m81f6a549d7" x="658.415848" y="544.317969" style="stroke: #000000; stroke-width: 0.8"/>
      </g>
     </g>
     <g id="text_34">
      <!-- 4 -->
      <g transform="translate(655.234598 558.916406) scale(0.1 -0.1)">
       <use xlink:href="#DejaVuSans-34"/>
      </g>
     </g>
    </g>
   </g>
   <g id="matplotlib.axis_10">
    <g id="ytick_25">
     <g id="line2d_74">
      <path d="M 603.643705 475.958624 
L 713.187991 475.958624 
" clip-path="url(#peb8ca069f2)" style="fill: none; stroke: #b0b0b0; stroke-width: 0.8; stroke-linecap: square"/>
     </g>
     <g id="line2d_75">
      <g>
       <use xlink:href="#me54c84fe99" x="603.643705" y="475.958624" style="stroke: #000000; stroke-width: 0.8"/>
      </g>
     </g>
     <g id="text_35">
      <!-- 10 -->
      <g transform="translate(583.918705 479.757843) scale(0.1 -0.1)">
       <use xlink:href="#DejaVuSans-31"/>
       <use xlink:href="#DejaVuSans-30" x="63.623047"/>
      </g>
     </g>
    </g>
    <g id="ytick_26">
     <g id="line2d_76">
      <path d="M 603.643705 390.509444 
L 713.187991 390.509444 
" clip-path="url(#peb8ca069f2)" style="fill: none; stroke: #b0b0b0; stroke-width: 0.8; stroke-linecap: square"/>
     </g>
     <g id="line2d_77">
      <g>
       <use xlink:href="#me54c84fe99" x="603.643705" y="390.509444" style="stroke: #000000; stroke-width: 0.8"/>
      </g>
     </g>
     <g id="text_36">
      <!-- 20 -->
      <g transform="translate(583.918705 394.308663) scale(0.1 -0.1)">
       <use xlink:href="#DejaVuSans-32"/>
       <use xlink:href="#DejaVuSans-30" x="63.623047"/>
      </g>
     </g>
    </g>
    <g id="ytick_27">
     <g id="line2d_78">
      <path d="M 603.643705 305.060264 
L 713.187991 305.060264 
" clip-path="url(#peb8ca069f2)" style="fill: none; stroke: #b0b0b0; stroke-width: 0.8; stroke-linecap: square"/>
     </g>
     <g id="line2d_79">
      <g>
       <use xlink:href="#me54c84fe99" x="603.643705" y="305.060264" style="stroke: #000000; stroke-width: 0.8"/>
      </g>
     </g>
     <g id="text_37">
      <!-- 30 -->
      <g transform="translate(583.918705 308.859483) scale(0.1 -0.1)">
       <use xlink:href="#DejaVuSans-33"/>
       <use xlink:href="#DejaVuSans-30" x="63.623047"/>
      </g>
     </g>
    </g>
    <g id="ytick_28">
     <g id="line2d_80">
      <path d="M 603.643705 219.611084 
L 713.187991 219.611084 
" clip-path="url(#peb8ca069f2)" style="fill: none; stroke: #b0b0b0; stroke-width: 0.8; stroke-linecap: square"/>
     </g>
     <g id="line2d_81">
      <g>
       <use xlink:href="#me54c84fe99" x="603.643705" y="219.611084" style="stroke: #000000; stroke-width: 0.8"/>
      </g>
     </g>
     <g id="text_38">
      <!-- 40 -->
      <g transform="translate(583.918705 223.410302) scale(0.1 -0.1)">
       <use xlink:href="#DejaVuSans-34"/>
       <use xlink:href="#DejaVuSans-30" x="63.623047"/>
      </g>
     </g>
    </g>
    <g id="ytick_29">
     <g id="line2d_82">
      <path d="M 603.643705 134.161903 
L 713.187991 134.161903 
" clip-path="url(#peb8ca069f2)" style="fill: none; stroke: #b0b0b0; stroke-width: 0.8; stroke-linecap: square"/>
     </g>
     <g id="line2d_83">
      <g>
       <use xlink:href="#me54c84fe99" x="603.643705" y="134.161903" style="stroke: #000000; stroke-width: 0.8"/>
      </g>
     </g>
     <g id="text_39">
      <!-- 50 -->
      <g transform="translate(583.918705 137.961122) scale(0.1 -0.1)">
       <use xlink:href="#DejaVuSans-35"/>
       <use xlink:href="#DejaVuSans-30" x="63.623047"/>
      </g>
     </g>
    </g>
    <g id="ytick_30">
     <g id="line2d_84">
      <path d="M 603.643705 48.712723 
L 713.187991 48.712723 
" clip-path="url(#peb8ca069f2)" style="fill: none; stroke: #b0b0b0; stroke-width: 0.8; stroke-linecap: square"/>
     </g>
     <g id="line2d_85">
      <g>
       <use xlink:href="#me54c84fe99" x="603.643705" y="48.712723" style="stroke: #000000; stroke-width: 0.8"/>
      </g>
     </g>
     <g id="text_40">
      <!-- 60 -->
      <g transform="translate(583.918705 52.511942) scale(0.1 -0.1)">
       <use xlink:href="#DejaVuSans-36"/>
       <use xlink:href="#DejaVuSans-30" x="63.623047"/>
      </g>
     </g>
    </g>
   </g>
   <g id="line2d_86">
    <path d="M 658.415848 505.011346 
L 658.415848 391.193038 
" clip-path="url(#peb8ca069f2)" style="fill: none; stroke: #545454; stroke-width: 1.875; stroke-linecap: square"/>
   </g>
   <g id="line2d_87">
    <path d="M 658.415848 481.555546 
L 658.415848 404.779457 
" clip-path="url(#peb8ca069f2)" style="fill: none; stroke: #545454; stroke-width: 5.625; stroke-linecap: square"/>
   </g>
   <g id="line2d_88">
    <path d="M 658.415848 441.522605 
" clip-path="url(#peb8ca069f2)" style="fill: none; stroke: #545454; stroke-width: 1.5; stroke-linecap: square"/>
    <g clip-path="url(#peb8ca069f2)">
     <use xlink:href="#m500d1b99fc" x="658.415848" y="441.522605" style="fill: #ffffff; stroke: #ffffff; stroke-width: 1.125"/>
    </g>
   </g>
   <g id="line2d_89">
    <path d="M 603.643705 518.683215 
L 713.187991 518.683215 
" clip-path="url(#peb8ca069f2)" style="fill: none; stroke-dasharray: 5.55,2.4; stroke-dashoffset: 0; stroke: #ff0000; stroke-width: 1.5"/>
   </g>
   <g id="line2d_90">
    <path d="M 603.643705 48.712723 
L 713.187991 48.712723 
" clip-path="url(#peb8ca069f2)" style="fill: none; stroke-dasharray: 5.55,2.4; stroke-dashoffset: 0; stroke: #0000ff; stroke-width: 1.5"/>
   </g>
   <g id="patch_23">
    <path d="M 603.643705 544.317969 
L 603.643705 23.077969 
" style="fill: none; stroke: #000000; stroke-width: 0.8; stroke-linejoin: miter; stroke-linecap: square"/>
   </g>
   <g id="patch_24">
    <path d="M 713.187991 544.317969 
L 713.187991 23.077969 
" style="fill: none; stroke: #000000; stroke-width: 0.8; stroke-linejoin: miter; stroke-linecap: square"/>
   </g>
   <g id="patch_25">
    <path d="M 603.643705 544.317969 
L 713.187991 544.317969 
" style="fill: none; stroke: #000000; stroke-width: 0.8; stroke-linejoin: miter; stroke-linecap: square"/>
   </g>
   <g id="patch_26">
    <path d="M 603.643705 23.077969 
L 713.187991 23.077969 
" style="fill: none; stroke: #000000; stroke-width: 0.8; stroke-linejoin: miter; stroke-linecap: square"/>
   </g>
   <g id="text_41">
    <!-- Iteration 4 -->
    <g transform="translate(624.64327 17.077969) scale(0.13 -0.13)">
     <use xlink:href="#DejaVuSans-49"/>
     <use xlink:href="#DejaVuSans-74" x="29.492188"/>
     <use xlink:href="#DejaVuSans-65" x="68.701172"/>
     <use xlink:href="#DejaVuSans-72" x="130.224609"/>
     <use xlink:href="#DejaVuSans-61" x="171.337891"/>
     <use xlink:href="#DejaVuSans-74" x="232.617188"/>
     <use xlink:href="#DejaVuSans-69" x="271.826172"/>
     <use xlink:href="#DejaVuSans-6f" x="299.609375"/>
     <use xlink:href="#DejaVuSans-6e" x="360.791016"/>
     <use xlink:href="#DejaVuSans-20" x="424.169922"/>
     <use xlink:href="#DejaVuSans-34" x="455.957031"/>
    </g>
   </g>
  </g>
  <g id="axes_6">
   <g id="patch_27">
    <path d="M 743.677991 544.317969 
L 853.222277 544.317969 
L 853.222277 23.077969 
L 743.677991 23.077969 
z
" style="fill: #ffffff"/>
   </g>
   <g id="PolyCollection_6">
    <defs>
     <path id="mb3c670055f" d="M 803.867814 67.213274 
L 793.032454 67.213274 
L 792.310595 63.507835 
L 791.520415 59.802396 
L 790.659835 56.096957 
L 789.727397 52.391518 
L 788.722366 48.686079 
L 787.64482 44.980639 
L 786.495741 41.2752 
L 785.277089 37.569761 
L 783.991863 33.864322 
L 782.644152 30.158883 
L 781.239158 26.453444 
L 779.7832 22.748004 
L 778.283694 19.042565 
L 776.749105 15.337126 
L 775.188873 11.631687 
L 773.613307 7.926248 
L 772.033456 4.220809 
L 770.46095 0.515369 
L 768.907817 -3.19007 
L 767.386284 -6.895509 
L 765.90855 -10.600948 
L 764.486558 -14.306387 
L 763.13175 -18.011826 
L 761.854833 -21.717266 
L 760.665534 -25.422705 
L 759.572385 -29.128144 
L 758.582512 -32.833583 
L 757.701458 -36.539022 
L 756.933034 -40.244461 
L 756.279208 -43.949901 
L 755.740033 -47.65534 
L 755.31362 -51.360779 
L 754.996162 -55.066218 
L 754.782001 -58.771657 
L 754.663742 -62.477096 
L 754.63242 -66.182536 
L 754.677699 -69.887975 
L 754.788122 -73.593414 
L 754.951378 -77.298853 
L 755.154609 -81.004292 
L 755.384726 -84.709731 
L 755.628737 -88.415171 
L 755.874076 -92.12061 
L 756.108926 -95.826049 
L 756.322519 -99.531488 
L 756.505416 -103.236927 
L 756.649753 -106.942366 
L 756.749443 -110.647806 
L 756.800339 -114.353245 
L 756.800339 -118.058684 
L 756.749443 -121.764123 
L 756.649753 -125.469562 
L 756.505416 -129.175001 
L 756.322519 -132.880441 
L 756.108926 -136.58588 
L 755.874076 -140.291319 
L 755.628737 -143.996758 
L 755.384726 -147.702197 
L 755.154609 -151.407636 
L 754.951378 -155.113076 
L 754.788122 -158.818515 
L 754.677699 -162.523954 
L 754.63242 -166.229393 
L 754.663742 -169.934832 
L 754.782001 -173.640271 
L 754.996162 -177.345711 
L 755.31362 -181.05115 
L 755.740033 -184.756589 
L 756.279208 -188.462028 
L 756.933034 -192.167467 
L 757.701458 -195.872906 
L 758.582512 -199.578346 
L 759.572385 -203.283785 
L 760.665534 -206.989224 
L 761.854833 -210.694663 
L 763.13175 -214.400102 
L 764.486558 -218.105541 
L 765.90855 -221.810981 
L 767.386284 -225.51642 
L 768.907817 -229.221859 
L 770.46095 -232.927298 
L 772.033456 -236.632737 
L 773.613307 -240.338176 
L 775.188873 -244.043616 
L 776.749105 -247.749055 
L 778.283694 -251.454494 
L 779.7832 -255.159933 
L 781.239158 -258.865372 
L 782.644152 -262.570811 
L 783.991863 -266.276251 
L 785.277089 -269.98169 
L 786.495741 -273.687129 
L 787.64482 -277.392568 
L 788.722366 -281.098007 
L 789.727397 -284.803446 
L 790.659835 -288.508886 
L 791.520415 -292.214325 
L 792.310595 -295.919764 
L 793.032454 -299.625203 
L 803.867814 -299.625203 
L 803.867814 -299.625203 
L 804.589673 -295.919764 
L 805.379852 -292.214325 
L 806.240433 -288.508886 
L 807.172871 -284.803446 
L 808.177902 -281.098007 
L 809.255448 -277.392568 
L 810.404527 -273.687129 
L 811.623179 -269.98169 
L 812.908405 -266.276251 
L 814.256116 -262.570811 
L 815.66111 -258.865372 
L 817.117068 -255.159933 
L 818.616574 -251.454494 
L 820.151162 -247.749055 
L 821.711395 -244.043616 
L 823.286961 -240.338176 
L 824.866812 -236.632737 
L 826.439318 -232.927298 
L 827.99245 -229.221859 
L 829.513984 -225.51642 
L 830.991718 -221.810981 
L 832.41371 -218.105541 
L 833.768518 -214.400102 
L 835.045435 -210.694663 
L 836.234734 -206.989224 
L 837.327883 -203.283785 
L 838.317756 -199.578346 
L 839.19881 -195.872906 
L 839.967234 -192.167467 
L 840.62106 -188.462028 
L 841.160235 -184.756589 
L 841.586648 -181.05115 
L 841.904106 -177.345711 
L 842.118267 -173.640271 
L 842.236526 -169.934832 
L 842.267848 -166.229393 
L 842.222568 -162.523954 
L 842.112146 -158.818515 
L 841.94889 -155.113076 
L 841.745659 -151.407636 
L 841.515542 -147.702197 
L 841.271531 -143.996758 
L 841.026191 -140.291319 
L 840.791341 -136.58588 
L 840.577749 -132.880441 
L 840.394852 -129.175001 
L 840.250515 -125.469562 
L 840.150825 -121.764123 
L 840.099929 -118.058684 
L 840.099929 -114.353245 
L 840.150825 -110.647806 
L 840.250515 -106.942366 
L 840.394852 -103.236927 
L 840.577749 -99.531488 
L 840.791341 -95.826049 
L 841.026191 -92.12061 
L 841.271531 -88.415171 
L 841.515542 -84.709731 
L 841.745659 -81.004292 
L 841.94889 -77.298853 
L 842.112146 -73.593414 
L 842.222568 -69.887975 
L 842.267848 -66.182536 
L 842.236526 -62.477096 
L 842.118267 -58.771657 
L 841.904106 -55.066218 
L 841.586648 -51.360779 
L 841.160235 -47.65534 
L 840.62106 -43.949901 
L 839.967234 -40.244461 
L 839.19881 -36.539022 
L 838.317756 -32.833583 
L 837.327883 -29.128144 
L 836.234734 -25.422705 
L 835.045435 -21.717266 
L 833.768518 -18.011826 
L 832.41371 -14.306387 
L 830.991718 -10.600948 
L 829.513984 -6.895509 
L 827.99245 -3.19007 
L 826.439318 0.515369 
L 824.866812 4.220809 
L 823.286961 7.926248 
L 821.711395 11.631687 
L 820.151162 15.337126 
L 818.616574 19.042565 
L 817.117068 22.748004 
L 815.66111 26.453444 
L 814.256116 30.158883 
L 812.908405 33.864322 
L 811.623179 37.569761 
L 810.404527 41.2752 
L 809.255448 44.980639 
L 808.177902 48.686079 
L 807.172871 52.391518 
L 806.240433 56.096957 
L 805.379852 59.802396 
L 804.589673 63.507835 
L 803.867814 67.213274 
z
" style="stroke: #545454; stroke-width: 1.25"/>
    </defs>
    <g clip-path="url(#pe0907dde7d)">
     <use xlink:href="#mb3c670055f" x="0" y="568.196094" style="fill: #597dbf; stroke: #545454; stroke-width: 1.25"/>
    </g>
   </g>
   <g id="matplotlib.axis_11">
    <g id="xtick_6">
     <g id="line2d_91">
      <g>
       <use xlink:href="#m81f6a549d7" x="798.450134" y="544.317969" style="stroke: #000000; stroke-width: 0.8"/>
      </g>
     </g>
     <g id="text_42">
      <!-- 5 -->
      <g transform="translate(795.268884 558.916406) scale(0.1 -0.1)">
       <use xlink:href="#DejaVuSans-35"/>
      </g>
     </g>
    </g>
   </g>
   <g id="matplotlib.axis_12">
    <g id="ytick_31">
     <g id="line2d_92">
      <path d="M 743.677991 475.958624 
L 853.222277 475.958624 
" clip-path="url(#pe0907dde7d)" style="fill: none; stroke: #b0b0b0; stroke-width: 0.8; stroke-linecap: square"/>
     </g>
     <g id="line2d_93">
      <g>
       <use xlink:href="#me54c84fe99" x="743.677991" y="475.958624" style="stroke: #000000; stroke-width: 0.8"/>
      </g>
     </g>
     <g id="text_43">
      <!-- 10 -->
      <g transform="translate(723.952991 479.757843) scale(0.1 -0.1)">
       <use xlink:href="#DejaVuSans-31"/>
       <use xlink:href="#DejaVuSans-30" x="63.623047"/>
      </g>
     </g>
    </g>
    <g id="ytick_32">
     <g id="line2d_94">
      <path d="M 743.677991 390.509444 
L 853.222277 390.509444 
" clip-path="url(#pe0907dde7d)" style="fill: none; stroke: #b0b0b0; stroke-width: 0.8; stroke-linecap: square"/>
     </g>
     <g id="line2d_95">
      <g>
       <use xlink:href="#me54c84fe99" x="743.677991" y="390.509444" style="stroke: #000000; stroke-width: 0.8"/>
      </g>
     </g>
     <g id="text_44">
      <!-- 20 -->
      <g transform="translate(723.952991 394.308663) scale(0.1 -0.1)">
       <use xlink:href="#DejaVuSans-32"/>
       <use xlink:href="#DejaVuSans-30" x="63.623047"/>
      </g>
     </g>
    </g>
    <g id="ytick_33">
     <g id="line2d_96">
      <path d="M 743.677991 305.060264 
L 853.222277 305.060264 
" clip-path="url(#pe0907dde7d)" style="fill: none; stroke: #b0b0b0; stroke-width: 0.8; stroke-linecap: square"/>
     </g>
     <g id="line2d_97">
      <g>
       <use xlink:href="#me54c84fe99" x="743.677991" y="305.060264" style="stroke: #000000; stroke-width: 0.8"/>
      </g>
     </g>
     <g id="text_45">
      <!-- 30 -->
      <g transform="translate(723.952991 308.859483) scale(0.1 -0.1)">
       <use xlink:href="#DejaVuSans-33"/>
       <use xlink:href="#DejaVuSans-30" x="63.623047"/>
      </g>
     </g>
    </g>
    <g id="ytick_34">
     <g id="line2d_98">
      <path d="M 743.677991 219.611084 
L 853.222277 219.611084 
" clip-path="url(#pe0907dde7d)" style="fill: none; stroke: #b0b0b0; stroke-width: 0.8; stroke-linecap: square"/>
     </g>
     <g id="line2d_99">
      <g>
       <use xlink:href="#me54c84fe99" x="743.677991" y="219.611084" style="stroke: #000000; stroke-width: 0.8"/>
      </g>
     </g>
     <g id="text_46">
      <!-- 40 -->
      <g transform="translate(723.952991 223.410302) scale(0.1 -0.1)">
       <use xlink:href="#DejaVuSans-34"/>
       <use xlink:href="#DejaVuSans-30" x="63.623047"/>
      </g>
     </g>
    </g>
    <g id="ytick_35">
     <g id="line2d_100">
      <path d="M 743.677991 134.161903 
L 853.222277 134.161903 
" clip-path="url(#pe0907dde7d)" style="fill: none; stroke: #b0b0b0; stroke-width: 0.8; stroke-linecap: square"/>
     </g>
     <g id="line2d_101">
      <g>
       <use xlink:href="#me54c84fe99" x="743.677991" y="134.161903" style="stroke: #000000; stroke-width: 0.8"/>
      </g>
     </g>
     <g id="text_47">
      <!-- 50 -->
      <g transform="translate(723.952991 137.961122) scale(0.1 -0.1)">
       <use xlink:href="#DejaVuSans-35"/>
       <use xlink:href="#DejaVuSans-30" x="63.623047"/>
      </g>
     </g>
    </g>
    <g id="ytick_36">
     <g id="line2d_102">
      <path d="M 743.677991 48.712723 
L 853.222277 48.712723 
" clip-path="url(#pe0907dde7d)" style="fill: none; stroke: #b0b0b0; stroke-width: 0.8; stroke-linecap: square"/>
     </g>
     <g id="line2d_103">
      <g>
       <use xlink:href="#me54c84fe99" x="743.677991" y="48.712723" style="stroke: #000000; stroke-width: 0.8"/>
      </g>
     </g>
     <g id="text_48">
      <!-- 60 -->
      <g transform="translate(723.952991 52.511942) scale(0.1 -0.1)">
       <use xlink:href="#DejaVuSans-36"/>
       <use xlink:href="#DejaVuSans-30" x="63.623047"/>
      </g>
     </g>
    </g>
   </g>
   <g id="line2d_104">
    <path d="M 798.450134 518.683215 
L 798.450134 385.297044 
" clip-path="url(#pe0907dde7d)" style="fill: none; stroke: #545454; stroke-width: 1.875; stroke-linecap: square"/>
   </g>
   <g id="line2d_105">
    <path d="M 798.450134 518.683215 
L 798.450134 385.297044 
" clip-path="url(#pe0907dde7d)" style="fill: none; stroke: #545454; stroke-width: 5.625; stroke-linecap: square"/>
   </g>
   <g id="line2d_106">
    <path d="M 798.450134 451.990129 
" clip-path="url(#pe0907dde7d)" style="fill: none; stroke: #545454; stroke-width: 1.5; stroke-linecap: square"/>
    <g clip-path="url(#pe0907dde7d)">
     <use xlink:href="#m500d1b99fc" x="798.450134" y="451.990129" style="fill: #ffffff; stroke: #ffffff; stroke-width: 1.125"/>
    </g>
   </g>
   <g id="line2d_107">
    <path d="M 743.677991 518.683215 
L 853.222277 518.683215 
" clip-path="url(#pe0907dde7d)" style="fill: none; stroke-dasharray: 5.55,2.4; stroke-dashoffset: 0; stroke: #ff0000; stroke-width: 1.5"/>
   </g>
   <g id="line2d_108">
    <path d="M 743.677991 48.712723 
L 853.222277 48.712723 
" clip-path="url(#pe0907dde7d)" style="fill: none; stroke-dasharray: 5.55,2.4; stroke-dashoffset: 0; stroke: #0000ff; stroke-width: 1.5"/>
   </g>
   <g id="patch_28">
    <path d="M 743.677991 544.317969 
L 743.677991 23.077969 
" style="fill: none; stroke: #000000; stroke-width: 0.8; stroke-linejoin: miter; stroke-linecap: square"/>
   </g>
   <g id="patch_29">
    <path d="M 853.222277 544.317969 
L 853.222277 23.077969 
" style="fill: none; stroke: #000000; stroke-width: 0.8; stroke-linejoin: miter; stroke-linecap: square"/>
   </g>
   <g id="patch_30">
    <path d="M 743.677991 544.317969 
L 853.222277 544.317969 
" style="fill: none; stroke: #000000; stroke-width: 0.8; stroke-linejoin: miter; stroke-linecap: square"/>
   </g>
   <g id="patch_31">
    <path d="M 743.677991 23.077969 
L 853.222277 23.077969 
" style="fill: none; stroke: #000000; stroke-width: 0.8; stroke-linejoin: miter; stroke-linecap: square"/>
   </g>
   <g id="text_49">
    <!-- Iteration 5 -->
    <g transform="translate(764.677556 17.077969) scale(0.13 -0.13)">
     <use xlink:href="#DejaVuSans-49"/>
     <use xlink:href="#DejaVuSans-74" x="29.492188"/>
     <use xlink:href="#DejaVuSans-65" x="68.701172"/>
     <use xlink:href="#DejaVuSans-72" x="130.224609"/>
     <use xlink:href="#DejaVuSans-61" x="171.337891"/>
     <use xlink:href="#DejaVuSans-74" x="232.617188"/>
     <use xlink:href="#DejaVuSans-69" x="271.826172"/>
     <use xlink:href="#DejaVuSans-6f" x="299.609375"/>
     <use xlink:href="#DejaVuSans-6e" x="360.791016"/>
     <use xlink:href="#DejaVuSans-20" x="424.169922"/>
     <use xlink:href="#DejaVuSans-35" x="455.957031"/>
    </g>
   </g>
  </g>
  <g id="axes_7">
   <g id="patch_32">
    <path d="M 883.712277 544.317969 
L 993.256563 544.317969 
L 993.256563 23.077969 
L 883.712277 23.077969 
z
" style="fill: #ffffff"/>
   </g>
   <g id="matplotlib.axis_13">
    <g id="xtick_7">
     <g id="line2d_109">
      <g>
       <use xlink:href="#m81f6a549d7" x="938.48442" y="544.317969" style="stroke: #000000; stroke-width: 0.8"/>
      </g>
     </g>
     <g id="text_50">
      <!-- 6 -->
      <g transform="translate(935.30317 558.916406) scale(0.1 -0.1)">
       <use xlink:href="#DejaVuSans-36"/>
      </g>
     </g>
    </g>
   </g>
   <g id="matplotlib.axis_14">
    <g id="ytick_37">
     <g id="line2d_110">
      <path d="M 883.712277 475.958624 
L 993.256563 475.958624 
" clip-path="url(#p673626f9ff)" style="fill: none; stroke: #b0b0b0; stroke-width: 0.8; stroke-linecap: square"/>
     </g>
     <g id="line2d_111">
      <g>
       <use xlink:href="#me54c84fe99" x="883.712277" y="475.958624" style="stroke: #000000; stroke-width: 0.8"/>
      </g>
     </g>
     <g id="text_51">
      <!-- 10 -->
      <g transform="translate(863.987277 479.757843) scale(0.1 -0.1)">
       <use xlink:href="#DejaVuSans-31"/>
       <use xlink:href="#DejaVuSans-30" x="63.623047"/>
      </g>
     </g>
    </g>
    <g id="ytick_38">
     <g id="line2d_112">
      <path d="M 883.712277 390.509444 
L 993.256563 390.509444 
" clip-path="url(#p673626f9ff)" style="fill: none; stroke: #b0b0b0; stroke-width: 0.8; stroke-linecap: square"/>
     </g>
     <g id="line2d_113">
      <g>
       <use xlink:href="#me54c84fe99" x="883.712277" y="390.509444" style="stroke: #000000; stroke-width: 0.8"/>
      </g>
     </g>
     <g id="text_52">
      <!-- 20 -->
      <g transform="translate(863.987277 394.308663) scale(0.1 -0.1)">
       <use xlink:href="#DejaVuSans-32"/>
       <use xlink:href="#DejaVuSans-30" x="63.623047"/>
      </g>
     </g>
    </g>
    <g id="ytick_39">
     <g id="line2d_114">
      <path d="M 883.712277 305.060264 
L 993.256563 305.060264 
" clip-path="url(#p673626f9ff)" style="fill: none; stroke: #b0b0b0; stroke-width: 0.8; stroke-linecap: square"/>
     </g>
     <g id="line2d_115">
      <g>
       <use xlink:href="#me54c84fe99" x="883.712277" y="305.060264" style="stroke: #000000; stroke-width: 0.8"/>
      </g>
     </g>
     <g id="text_53">
      <!-- 30 -->
      <g transform="translate(863.987277 308.859483) scale(0.1 -0.1)">
       <use xlink:href="#DejaVuSans-33"/>
       <use xlink:href="#DejaVuSans-30" x="63.623047"/>
      </g>
     </g>
    </g>
    <g id="ytick_40">
     <g id="line2d_116">
      <path d="M 883.712277 219.611084 
L 993.256563 219.611084 
" clip-path="url(#p673626f9ff)" style="fill: none; stroke: #b0b0b0; stroke-width: 0.8; stroke-linecap: square"/>
     </g>
     <g id="line2d_117">
      <g>
       <use xlink:href="#me54c84fe99" x="883.712277" y="219.611084" style="stroke: #000000; stroke-width: 0.8"/>
      </g>
     </g>
     <g id="text_54">
      <!-- 40 -->
      <g transform="translate(863.987277 223.410302) scale(0.1 -0.1)">
       <use xlink:href="#DejaVuSans-34"/>
       <use xlink:href="#DejaVuSans-30" x="63.623047"/>
      </g>
     </g>
    </g>
    <g id="ytick_41">
     <g id="line2d_118">
      <path d="M 883.712277 134.161903 
L 993.256563 134.161903 
" clip-path="url(#p673626f9ff)" style="fill: none; stroke: #b0b0b0; stroke-width: 0.8; stroke-linecap: square"/>
     </g>
     <g id="line2d_119">
      <g>
       <use xlink:href="#me54c84fe99" x="883.712277" y="134.161903" style="stroke: #000000; stroke-width: 0.8"/>
      </g>
     </g>
     <g id="text_55">
      <!-- 50 -->
      <g transform="translate(863.987277 137.961122) scale(0.1 -0.1)">
       <use xlink:href="#DejaVuSans-35"/>
       <use xlink:href="#DejaVuSans-30" x="63.623047"/>
      </g>
     </g>
    </g>
    <g id="ytick_42">
     <g id="line2d_120">
      <path d="M 883.712277 48.712723 
L 993.256563 48.712723 
" clip-path="url(#p673626f9ff)" style="fill: none; stroke: #b0b0b0; stroke-width: 0.8; stroke-linecap: square"/>
     </g>
     <g id="line2d_121">
      <g>
       <use xlink:href="#me54c84fe99" x="883.712277" y="48.712723" style="stroke: #000000; stroke-width: 0.8"/>
      </g>
     </g>
     <g id="text_56">
      <!-- 60 -->
      <g transform="translate(863.987277 52.511942) scale(0.1 -0.1)">
       <use xlink:href="#DejaVuSans-36"/>
       <use xlink:href="#DejaVuSans-30" x="63.623047"/>
      </g>
     </g>
    </g>
   </g>
   <g id="line2d_122">
    <path d="M 894.666705 518.683215 
L 982.302134 518.683215 
" clip-path="url(#p673626f9ff)" style="fill: none; stroke: #545454; stroke-width: 1.25; stroke-linecap: square"/>
   </g>
   <g id="line2d_123">
    <path d="M 883.712277 518.683215 
L 993.256563 518.683215 
" clip-path="url(#p673626f9ff)" style="fill: none; stroke-dasharray: 5.55,2.4; stroke-dashoffset: 0; stroke: #ff0000; stroke-width: 1.5"/>
   </g>
   <g id="line2d_124">
    <path d="M 883.712277 48.712723 
L 993.256563 48.712723 
" clip-path="url(#p673626f9ff)" style="fill: none; stroke-dasharray: 5.55,2.4; stroke-dashoffset: 0; stroke: #0000ff; stroke-width: 1.5"/>
   </g>
   <g id="patch_33">
    <path d="M 883.712277 544.317969 
L 883.712277 23.077969 
" style="fill: none; stroke: #000000; stroke-width: 0.8; stroke-linejoin: miter; stroke-linecap: square"/>
   </g>
   <g id="patch_34">
    <path d="M 993.256563 544.317969 
L 993.256563 23.077969 
" style="fill: none; stroke: #000000; stroke-width: 0.8; stroke-linejoin: miter; stroke-linecap: square"/>
   </g>
   <g id="patch_35">
    <path d="M 883.712277 544.317969 
L 993.256563 544.317969 
" style="fill: none; stroke: #000000; stroke-width: 0.8; stroke-linejoin: miter; stroke-linecap: square"/>
   </g>
   <g id="patch_36">
    <path d="M 883.712277 23.077969 
L 993.256563 23.077969 
" style="fill: none; stroke: #000000; stroke-width: 0.8; stroke-linejoin: miter; stroke-linecap: square"/>
   </g>
   <g id="text_57">
    <!-- Iteration 6 -->
    <g transform="translate(904.711842 17.077969) scale(0.13 -0.13)">
     <use xlink:href="#DejaVuSans-49"/>
     <use xlink:href="#DejaVuSans-74" x="29.492188"/>
     <use xlink:href="#DejaVuSans-65" x="68.701172"/>
     <use xlink:href="#DejaVuSans-72" x="130.224609"/>
     <use xlink:href="#DejaVuSans-61" x="171.337891"/>
     <use xlink:href="#DejaVuSans-74" x="232.617188"/>
     <use xlink:href="#DejaVuSans-69" x="271.826172"/>
     <use xlink:href="#DejaVuSans-6f" x="299.609375"/>
     <use xlink:href="#DejaVuSans-6e" x="360.791016"/>
     <use xlink:href="#DejaVuSans-20" x="424.169922"/>
     <use xlink:href="#DejaVuSans-36" x="455.957031"/>
    </g>
   </g>
  </g>
 </g>
 <defs>
  <clipPath id="pa12b8223c5">
   <rect x="43.506563" y="23.077969" width="109.544286" height="521.24"/>
  </clipPath>
  <clipPath id="pf2745923b0">
   <rect x="183.540848" y="23.077969" width="109.544286" height="521.24"/>
  </clipPath>
  <clipPath id="p76b224a0d1">
   <rect x="323.575134" y="23.077969" width="109.544286" height="521.24"/>
  </clipPath>
  <clipPath id="pf2f0a5dde9">
   <rect x="463.60942" y="23.077969" width="109.544286" height="521.24"/>
  </clipPath>
  <clipPath id="peb8ca069f2">
   <rect x="603.643705" y="23.077969" width="109.544286" height="521.24"/>
  </clipPath>
  <clipPath id="pe0907dde7d">
   <rect x="743.677991" y="23.077969" width="109.544286" height="521.24"/>
  </clipPath>
  <clipPath id="p673626f9ff">
   <rect x="883.712277" y="23.077969" width="109.544286" height="521.24"/>
  </clipPath>
 </defs>
</svg>
