<?xml version="1.0" encoding="utf-8" standalone="no"?>
<!DOCTYPE svg PUBLIC "-//W3C//DTD SVG 1.1//EN"
  "http://www.w3.org/Graphics/SVG/1.1/DTD/svg11.dtd">
<svg xmlns:xlink="http://www.w3.org/1999/xlink" width="848.089375pt" height="422.64pt" viewBox="0 0 848.089375 422.64" xmlns="http://www.w3.org/2000/svg" version="1.1">
 <metadata>
  <rdf:RDF xmlns:dc="http://purl.org/dc/elements/1.1/" xmlns:cc="http://creativecommons.org/ns#" xmlns:rdf="http://www.w3.org/1999/02/22-rdf-syntax-ns#">
   <cc:Work>
    <dc:type rdf:resource="http://purl.org/dc/dcmitype/StillImage"/>
    <dc:date>2025-06-10T13:28:19.584820</dc:date>
    <dc:format>image/svg+xml</dc:format>
    <dc:creator>
     <cc:Agent>
      <dc:title>Matplotlib v3.9.2, https://matplotlib.org/</dc:title>
     </cc:Agent>
    </dc:creator>
   </cc:Work>
  </rdf:RDF>
 </metadata>
 <defs>
  <style type="text/css">*{stroke-linejoin: round; stroke-linecap: butt}</style>
 </defs>
 <g id="figure_1">
  <g id="patch_1">
   <path d="M 0 422.64 
L 848.089375 422.64 
L 848.089375 0 
L 0 0 
z
" style="fill: #ffffff"/>
  </g>
  <g id="axes_1">
   <g id="patch_2">
    <path d="M 47.019375 411.94 
L 412.669375 411.94 
L 412.669375 91.36 
L 47.019375 91.36 
z
" style="fill: #ffffff"/>
   </g>
   <g id="PolyCollection_1">
    <defs>
     <path id="mbfcf9e58c7" d="M 231.646785 -25.271818 
L 228.041965 -25.271818 
L 227.445889 -25.673647 
L 226.70228 -26.075476 
L 225.791384 -26.477305 
L 224.695761 -26.879135 
L 223.401815 -27.280964 
L 221.901317 -27.682793 
L 220.192742 -28.084622 
L 218.282221 -28.486451 
L 216.183932 -28.88828 
L 213.919758 -29.290109 
L 211.518106 -29.691938 
L 209.011855 -30.093767 
L 206.43548 -30.495596 
L 203.821538 -30.897425 
L 201.196739 -31.299255 
L 198.577978 -31.701084 
L 195.9687 -32.102913 
L 193.356039 -32.504742 
L 190.709127 -32.906571 
L 187.978925 -33.3084 
L 185.099828 -33.710229 
L 181.993148 -34.112058 
L 178.572441 -34.513887 
L 174.750436 -34.915716 
L 170.447185 -35.317545 
L 165.598843 -35.719375 
L 160.16641 -36.121204 
L 154.14365 -36.523033 
L 147.563402 -36.924862 
L 140.501561 -37.326691 
L 133.078132 -37.72852 
L 125.454983 -38.130349 
L 117.830179 -38.532178 
L 110.429101 -38.934007 
L 103.492845 -39.335836 
L 97.264701 -39.737666 
L 91.975739 -40.139495 
L 87.83062 -40.541324 
L 84.994831 -40.943153 
L 83.584375 -41.344982 
L 83.658756 -41.746811 
L 85.217795 -42.14864 
L 88.202425 -42.550469 
L 92.499259 -42.952298 
L 97.948398 -43.354127 
L 104.353671 -43.755956 
L 111.494374 -44.157786 
L 119.137529 -44.559615 
L 127.049761 -44.961444 
L 135.008056 -45.363273 
L 142.808848 -45.765102 
L 150.275138 -46.166931 
L 157.261519 -46.56876 
L 163.657161 -46.970589 
L 169.38692 -47.372418 
L 174.410772 -47.774247 
L 178.721828 -48.176076 
L 182.343131 -48.577906 
L 185.323479 -48.979735 
L 187.732451 -49.381564 
L 189.654882 -49.783393 
L 191.185005 -50.185222 
L 192.420533 -50.587051 
L 193.456983 -50.98888 
L 194.382537 -51.390709 
L 195.273742 -51.792538 
L 196.192289 -52.194367 
L 197.183063 -52.596196 
L 198.273537 -52.998026 
L 199.474484 -53.399855 
L 200.781876 -53.801684 
L 202.179731 -54.203513 
L 203.643595 -54.605342 
L 205.144309 -55.007171 
L 206.651694 -55.409 
L 208.137818 -55.810829 
L 209.579575 -56.212658 
L 210.960386 -56.614487 
L 212.270934 -57.016316 
L 213.50897 -57.418146 
L 214.678296 -57.819975 
L 215.787152 -58.221804 
L 216.84625 -58.623633 
L 217.866755 -59.025462 
L 218.85845 -59.427291 
L 219.82832 -59.82912 
L 220.779682 -60.230949 
L 221.711918 -60.632778 
L 222.620776 -61.034607 
L 223.499133 -61.436436 
L 224.33807 -61.838266 
L 225.128071 -62.240095 
L 225.860191 -62.641924 
L 226.527031 -63.043753 
L 227.123444 -63.445582 
L 227.646909 -63.847411 
L 228.097587 -64.24924 
L 228.478107 -64.651069 
L 228.793146 -65.052898 
L 230.895604 -65.052898 
L 230.895604 -65.052898 
L 231.210643 -64.651069 
L 231.591163 -64.24924 
L 232.041841 -63.847411 
L 232.565306 -63.445582 
L 233.161719 -63.043753 
L 233.828559 -62.641924 
L 234.560679 -62.240095 
L 235.35068 -61.838266 
L 236.189617 -61.436436 
L 237.067974 -61.034607 
L 237.976832 -60.632778 
L 238.909068 -60.230949 
L 239.86043 -59.82912 
L 240.8303 -59.427291 
L 241.821995 -59.025462 
L 242.8425 -58.623633 
L 243.901598 -58.221804 
L 245.010454 -57.819975 
L 246.17978 -57.418146 
L 247.417816 -57.016316 
L 248.728364 -56.614487 
L 250.109175 -56.212658 
L 251.550932 -55.810829 
L 253.037056 -55.409 
L 254.544441 -55.007171 
L 256.045155 -54.605342 
L 257.509019 -54.203513 
L 258.906874 -53.801684 
L 260.214266 -53.399855 
L 261.415213 -52.998026 
L 262.505687 -52.596196 
L 263.496461 -52.194367 
L 264.415008 -51.792538 
L 265.306213 -51.390709 
L 266.231767 -50.98888 
L 267.268217 -50.587051 
L 268.503745 -50.185222 
L 270.033868 -49.783393 
L 271.956299 -49.381564 
L 274.365271 -48.979735 
L 277.345619 -48.577906 
L 280.966922 -48.176076 
L 285.277978 -47.774247 
L 290.30183 -47.372418 
L 296.031589 -46.970589 
L 302.427231 -46.56876 
L 309.413612 -46.166931 
L 316.879902 -45.765102 
L 324.680694 -45.363273 
L 332.638989 -44.961444 
L 340.551221 -44.559615 
L 348.194376 -44.157786 
L 355.335079 -43.755956 
L 361.740352 -43.354127 
L 367.189491 -42.952298 
L 371.486325 -42.550469 
L 374.470955 -42.14864 
L 376.029994 -41.746811 
L 376.104375 -41.344982 
L 374.693919 -40.943153 
L 371.85813 -40.541324 
L 367.713011 -40.139495 
L 362.424049 -39.737666 
L 356.195905 -39.335836 
L 349.259649 -38.934007 
L 341.858571 -38.532178 
L 334.233767 -38.130349 
L 326.610618 -37.72852 
L 319.187189 -37.326691 
L 312.125348 -36.924862 
L 305.5451 -36.523033 
L 299.52234 -36.121204 
L 294.089907 -35.719375 
L 289.241565 -35.317545 
L 284.938314 -34.915716 
L 281.116309 -34.513887 
L 277.695602 -34.112058 
L 274.588922 -33.710229 
L 271.709825 -33.3084 
L 268.979623 -32.906571 
L 266.332711 -32.504742 
L 263.72005 -32.102913 
L 261.110772 -31.701084 
L 258.492011 -31.299255 
L 255.867212 -30.897425 
L 253.25327 -30.495596 
L 250.676895 -30.093767 
L 248.170644 -29.691938 
L 245.768992 -29.290109 
L 243.504818 -28.88828 
L 241.406529 -28.486451 
L 239.496008 -28.084622 
L 237.787433 -27.682793 
L 236.286935 -27.280964 
L 234.992989 -26.879135 
L 233.897366 -26.477305 
L 232.98647 -26.075476 
L 232.242861 -25.673647 
L 231.646785 -25.271818 
z
" style="stroke: #545454; stroke-width: 1.25"/>
    </defs>
    <g clip-path="url(#p365d366601)">
     <use xlink:href="#mbfcf9e58c7" x="0" y="422.64" style="fill: #597dbf; stroke: #545454; stroke-width: 1.25"/>
    </g>
   </g>
   <g id="matplotlib.axis_1">
    <g id="xtick_1">
     <g id="line2d_1">
      <defs>
       <path id="m30cbbd7d7c" d="M 0 0 
L 0 3.5 
" style="stroke: #000000; stroke-width: 0.8"/>
      </defs>
      <g>
       <use xlink:href="#m30cbbd7d7c" x="229.844375" y="411.94" style="stroke: #000000; stroke-width: 0.8"/>
      </g>
     </g>
    </g>
   </g>
   <g id="matplotlib.axis_2">
    <g id="ytick_1">
     <g id="line2d_2">
      <path d="M 47.019375 390.175615 
L 412.669375 390.175615 
" clip-path="url(#p365d366601)" style="fill: none; stroke: #b0b0b0; stroke-width: 0.8; stroke-linecap: square"/>
     </g>
     <g id="line2d_3">
      <defs>
       <path id="m17a2c1356a" d="M 0 0 
L -3.5 0 
" style="stroke: #000000; stroke-width: 0.8"/>
      </defs>
      <g>
       <use xlink:href="#m17a2c1356a" x="47.019375" y="390.175615" style="stroke: #000000; stroke-width: 0.8"/>
      </g>
     </g>
     <g id="text_1">
      <!-- 0 -->
      <g transform="translate(32.384375 394.734677) scale(0.12 -0.12)">
       <defs>
        <path id="DejaVuSans-30" d="M 2034 4250 
Q 1547 4250 1301 3770 
Q 1056 3291 1056 2328 
Q 1056 1369 1301 889 
Q 1547 409 2034 409 
Q 2525 409 2770 889 
Q 3016 1369 3016 2328 
Q 3016 3291 2770 3770 
Q 2525 4250 2034 4250 
z
M 2034 4750 
Q 2819 4750 3233 4129 
Q 3647 3509 3647 2328 
Q 3647 1150 3233 529 
Q 2819 -91 2034 -91 
Q 1250 -91 836 529 
Q 422 1150 422 2328 
Q 422 3509 836 4129 
Q 1250 4750 2034 4750 
z
" transform="scale(0.015625)"/>
       </defs>
       <use xlink:href="#DejaVuSans-30"/>
      </g>
     </g>
    </g>
    <g id="ytick_2">
     <g id="line2d_4">
      <path d="M 47.019375 333.326855 
L 412.669375 333.326855 
" clip-path="url(#p365d366601)" style="fill: none; stroke: #b0b0b0; stroke-width: 0.8; stroke-linecap: square"/>
     </g>
     <g id="line2d_5">
      <g>
       <use xlink:href="#m17a2c1356a" x="47.019375" y="333.326855" style="stroke: #000000; stroke-width: 0.8"/>
      </g>
     </g>
     <g id="text_2">
      <!-- 5 -->
      <g transform="translate(32.384375 337.885918) scale(0.12 -0.12)">
       <defs>
        <path id="DejaVuSans-35" d="M 691 4666 
L 3169 4666 
L 3169 4134 
L 1269 4134 
L 1269 2991 
Q 1406 3038 1543 3061 
Q 1681 3084 1819 3084 
Q 2600 3084 3056 2656 
Q 3513 2228 3513 1497 
Q 3513 744 3044 326 
Q 2575 -91 1722 -91 
Q 1428 -91 1123 -41 
Q 819 9 494 109 
L 494 744 
Q 775 591 1075 516 
Q 1375 441 1709 441 
Q 2250 441 2565 725 
Q 2881 1009 2881 1497 
Q 2881 1984 2565 2268 
Q 2250 2553 1709 2553 
Q 1456 2553 1204 2497 
Q 953 2441 691 2322 
L 691 4666 
z
" transform="scale(0.015625)"/>
       </defs>
       <use xlink:href="#DejaVuSans-35"/>
      </g>
     </g>
    </g>
    <g id="ytick_3">
     <g id="line2d_6">
      <path d="M 47.019375 276.478096 
L 412.669375 276.478096 
" clip-path="url(#p365d366601)" style="fill: none; stroke: #b0b0b0; stroke-width: 0.8; stroke-linecap: square"/>
     </g>
     <g id="line2d_7">
      <g>
       <use xlink:href="#m17a2c1356a" x="47.019375" y="276.478096" style="stroke: #000000; stroke-width: 0.8"/>
      </g>
     </g>
     <g id="text_3">
      <!-- 10 -->
      <g transform="translate(24.749375 281.037159) scale(0.12 -0.12)">
       <defs>
        <path id="DejaVuSans-31" d="M 794 531 
L 1825 531 
L 1825 4091 
L 703 3866 
L 703 4441 
L 1819 4666 
L 2450 4666 
L 2450 531 
L 3481 531 
L 3481 0 
L 794 0 
L 794 531 
z
" transform="scale(0.015625)"/>
       </defs>
       <use xlink:href="#DejaVuSans-31"/>
       <use xlink:href="#DejaVuSans-30" x="63.623047"/>
      </g>
     </g>
    </g>
    <g id="ytick_4">
     <g id="line2d_8">
      <path d="M 47.019375 219.629337 
L 412.669375 219.629337 
" clip-path="url(#p365d366601)" style="fill: none; stroke: #b0b0b0; stroke-width: 0.8; stroke-linecap: square"/>
     </g>
     <g id="line2d_9">
      <g>
       <use xlink:href="#m17a2c1356a" x="47.019375" y="219.629337" style="stroke: #000000; stroke-width: 0.8"/>
      </g>
     </g>
     <g id="text_4">
      <!-- 15 -->
      <g transform="translate(24.749375 224.188399) scale(0.12 -0.12)">
       <use xlink:href="#DejaVuSans-31"/>
       <use xlink:href="#DejaVuSans-35" x="63.623047"/>
      </g>
     </g>
    </g>
    <g id="ytick_5">
     <g id="line2d_10">
      <path d="M 47.019375 162.780578 
L 412.669375 162.780578 
" clip-path="url(#p365d366601)" style="fill: none; stroke: #b0b0b0; stroke-width: 0.8; stroke-linecap: square"/>
     </g>
     <g id="line2d_11">
      <g>
       <use xlink:href="#m17a2c1356a" x="47.019375" y="162.780578" style="stroke: #000000; stroke-width: 0.8"/>
      </g>
     </g>
     <g id="text_5">
      <!-- 20 -->
      <g transform="translate(24.749375 167.33964) scale(0.12 -0.12)">
       <defs>
        <path id="DejaVuSans-32" d="M 1228 531 
L 3431 531 
L 3431 0 
L 469 0 
L 469 531 
Q 828 903 1448 1529 
Q 2069 2156 2228 2338 
Q 2531 2678 2651 2914 
Q 2772 3150 2772 3378 
Q 2772 3750 2511 3984 
Q 2250 4219 1831 4219 
Q 1534 4219 1204 4116 
Q 875 4013 500 3803 
L 500 4441 
Q 881 4594 1212 4672 
Q 1544 4750 1819 4750 
Q 2544 4750 2975 4387 
Q 3406 4025 3406 3419 
Q 3406 3131 3298 2873 
Q 3191 2616 2906 2266 
Q 2828 2175 2409 1742 
Q 1991 1309 1228 531 
z
" transform="scale(0.015625)"/>
       </defs>
       <use xlink:href="#DejaVuSans-32"/>
       <use xlink:href="#DejaVuSans-30" x="63.623047"/>
      </g>
     </g>
    </g>
    <g id="ytick_6">
     <g id="line2d_12">
      <path d="M 47.019375 105.931818 
L 412.669375 105.931818 
" clip-path="url(#p365d366601)" style="fill: none; stroke: #b0b0b0; stroke-width: 0.8; stroke-linecap: square"/>
     </g>
     <g id="line2d_13">
      <g>
       <use xlink:href="#m17a2c1356a" x="47.019375" y="105.931818" style="stroke: #000000; stroke-width: 0.8"/>
      </g>
     </g>
     <g id="text_6">
      <!-- 25 -->
      <g transform="translate(24.749375 110.490881) scale(0.12 -0.12)">
       <use xlink:href="#DejaVuSans-32"/>
       <use xlink:href="#DejaVuSans-35" x="63.623047"/>
      </g>
     </g>
    </g>
    <g id="text_7">
     <!-- Fresh Mass Increase [g/Lh] -->
     <g transform="translate(17.837813 344.797031) rotate(-90) scale(0.14 -0.14)">
      <defs>
       <path id="DejaVuSans-46" d="M 628 4666 
L 3309 4666 
L 3309 4134 
L 1259 4134 
L 1259 2759 
L 3109 2759 
L 3109 2228 
L 1259 2228 
L 1259 0 
L 628 0 
L 628 4666 
z
" transform="scale(0.015625)"/>
       <path id="DejaVuSans-72" d="M 2631 2963 
Q 2534 3019 2420 3045 
Q 2306 3072 2169 3072 
Q 1681 3072 1420 2755 
Q 1159 2438 1159 1844 
L 1159 0 
L 581 0 
L 581 3500 
L 1159 3500 
L 1159 2956 
Q 1341 3275 1631 3429 
Q 1922 3584 2338 3584 
Q 2397 3584 2469 3576 
Q 2541 3569 2628 3553 
L 2631 2963 
z
" transform="scale(0.015625)"/>
       <path id="DejaVuSans-65" d="M 3597 1894 
L 3597 1613 
L 953 1613 
Q 991 1019 1311 708 
Q 1631 397 2203 397 
Q 2534 397 2845 478 
Q 3156 559 3463 722 
L 3463 178 
Q 3153 47 2828 -22 
Q 2503 -91 2169 -91 
Q 1331 -91 842 396 
Q 353 884 353 1716 
Q 353 2575 817 3079 
Q 1281 3584 2069 3584 
Q 2775 3584 3186 3129 
Q 3597 2675 3597 1894 
z
M 3022 2063 
Q 3016 2534 2758 2815 
Q 2500 3097 2075 3097 
Q 1594 3097 1305 2825 
Q 1016 2553 972 2059 
L 3022 2063 
z
" transform="scale(0.015625)"/>
       <path id="DejaVuSans-73" d="M 2834 3397 
L 2834 2853 
Q 2591 2978 2328 3040 
Q 2066 3103 1784 3103 
Q 1356 3103 1142 2972 
Q 928 2841 928 2578 
Q 928 2378 1081 2264 
Q 1234 2150 1697 2047 
L 1894 2003 
Q 2506 1872 2764 1633 
Q 3022 1394 3022 966 
Q 3022 478 2636 193 
Q 2250 -91 1575 -91 
Q 1294 -91 989 -36 
Q 684 19 347 128 
L 347 722 
Q 666 556 975 473 
Q 1284 391 1588 391 
Q 1994 391 2212 530 
Q 2431 669 2431 922 
Q 2431 1156 2273 1281 
Q 2116 1406 1581 1522 
L 1381 1569 
Q 847 1681 609 1914 
Q 372 2147 372 2553 
Q 372 3047 722 3315 
Q 1072 3584 1716 3584 
Q 2034 3584 2315 3537 
Q 2597 3491 2834 3397 
z
" transform="scale(0.015625)"/>
       <path id="DejaVuSans-68" d="M 3513 2113 
L 3513 0 
L 2938 0 
L 2938 2094 
Q 2938 2591 2744 2837 
Q 2550 3084 2163 3084 
Q 1697 3084 1428 2787 
Q 1159 2491 1159 1978 
L 1159 0 
L 581 0 
L 581 4863 
L 1159 4863 
L 1159 2956 
Q 1366 3272 1645 3428 
Q 1925 3584 2291 3584 
Q 2894 3584 3203 3211 
Q 3513 2838 3513 2113 
z
" transform="scale(0.015625)"/>
       <path id="DejaVuSans-20" transform="scale(0.015625)"/>
       <path id="DejaVuSans-4d" d="M 628 4666 
L 1569 4666 
L 2759 1491 
L 3956 4666 
L 4897 4666 
L 4897 0 
L 4281 0 
L 4281 4097 
L 3078 897 
L 2444 897 
L 1241 4097 
L 1241 0 
L 628 0 
L 628 4666 
z
" transform="scale(0.015625)"/>
       <path id="DejaVuSans-61" d="M 2194 1759 
Q 1497 1759 1228 1600 
Q 959 1441 959 1056 
Q 959 750 1161 570 
Q 1363 391 1709 391 
Q 2188 391 2477 730 
Q 2766 1069 2766 1631 
L 2766 1759 
L 2194 1759 
z
M 3341 1997 
L 3341 0 
L 2766 0 
L 2766 531 
Q 2569 213 2275 61 
Q 1981 -91 1556 -91 
Q 1019 -91 701 211 
Q 384 513 384 1019 
Q 384 1609 779 1909 
Q 1175 2209 1959 2209 
L 2766 2209 
L 2766 2266 
Q 2766 2663 2505 2880 
Q 2244 3097 1772 3097 
Q 1472 3097 1187 3025 
Q 903 2953 641 2809 
L 641 3341 
Q 956 3463 1253 3523 
Q 1550 3584 1831 3584 
Q 2591 3584 2966 3190 
Q 3341 2797 3341 1997 
z
" transform="scale(0.015625)"/>
       <path id="DejaVuSans-49" d="M 628 4666 
L 1259 4666 
L 1259 0 
L 628 0 
L 628 4666 
z
" transform="scale(0.015625)"/>
       <path id="DejaVuSans-6e" d="M 3513 2113 
L 3513 0 
L 2938 0 
L 2938 2094 
Q 2938 2591 2744 2837 
Q 2550 3084 2163 3084 
Q 1697 3084 1428 2787 
Q 1159 2491 1159 1978 
L 1159 0 
L 581 0 
L 581 3500 
L 1159 3500 
L 1159 2956 
Q 1366 3272 1645 3428 
Q 1925 3584 2291 3584 
Q 2894 3584 3203 3211 
Q 3513 2838 3513 2113 
z
" transform="scale(0.015625)"/>
       <path id="DejaVuSans-63" d="M 3122 3366 
L 3122 2828 
Q 2878 2963 2633 3030 
Q 2388 3097 2138 3097 
Q 1578 3097 1268 2742 
Q 959 2388 959 1747 
Q 959 1106 1268 751 
Q 1578 397 2138 397 
Q 2388 397 2633 464 
Q 2878 531 3122 666 
L 3122 134 
Q 2881 22 2623 -34 
Q 2366 -91 2075 -91 
Q 1284 -91 818 406 
Q 353 903 353 1747 
Q 353 2603 823 3093 
Q 1294 3584 2113 3584 
Q 2378 3584 2631 3529 
Q 2884 3475 3122 3366 
z
" transform="scale(0.015625)"/>
       <path id="DejaVuSans-5b" d="M 550 4863 
L 1875 4863 
L 1875 4416 
L 1125 4416 
L 1125 -397 
L 1875 -397 
L 1875 -844 
L 550 -844 
L 550 4863 
z
" transform="scale(0.015625)"/>
       <path id="DejaVuSans-67" d="M 2906 1791 
Q 2906 2416 2648 2759 
Q 2391 3103 1925 3103 
Q 1463 3103 1205 2759 
Q 947 2416 947 1791 
Q 947 1169 1205 825 
Q 1463 481 1925 481 
Q 2391 481 2648 825 
Q 2906 1169 2906 1791 
z
M 3481 434 
Q 3481 -459 3084 -895 
Q 2688 -1331 1869 -1331 
Q 1566 -1331 1297 -1286 
Q 1028 -1241 775 -1147 
L 775 -588 
Q 1028 -725 1275 -790 
Q 1522 -856 1778 -856 
Q 2344 -856 2625 -561 
Q 2906 -266 2906 331 
L 2906 616 
Q 2728 306 2450 153 
Q 2172 0 1784 0 
Q 1141 0 747 490 
Q 353 981 353 1791 
Q 353 2603 747 3093 
Q 1141 3584 1784 3584 
Q 2172 3584 2450 3431 
Q 2728 3278 2906 2969 
L 2906 3500 
L 3481 3500 
L 3481 434 
z
" transform="scale(0.015625)"/>
       <path id="DejaVuSans-2f" d="M 1625 4666 
L 2156 4666 
L 531 -594 
L 0 -594 
L 1625 4666 
z
" transform="scale(0.015625)"/>
       <path id="DejaVuSans-4c" d="M 628 4666 
L 1259 4666 
L 1259 531 
L 3531 531 
L 3531 0 
L 628 0 
L 628 4666 
z
" transform="scale(0.015625)"/>
       <path id="DejaVuSans-5d" d="M 1947 4863 
L 1947 -844 
L 622 -844 
L 622 -397 
L 1369 -397 
L 1369 4416 
L 622 4416 
L 622 4863 
L 1947 4863 
z
" transform="scale(0.015625)"/>
      </defs>
      <use xlink:href="#DejaVuSans-46"/>
      <use xlink:href="#DejaVuSans-72" x="50.269531"/>
      <use xlink:href="#DejaVuSans-65" x="89.132812"/>
      <use xlink:href="#DejaVuSans-73" x="150.65625"/>
      <use xlink:href="#DejaVuSans-68" x="202.755859"/>
      <use xlink:href="#DejaVuSans-20" x="266.134766"/>
      <use xlink:href="#DejaVuSans-4d" x="297.921875"/>
      <use xlink:href="#DejaVuSans-61" x="384.201172"/>
      <use xlink:href="#DejaVuSans-73" x="445.480469"/>
      <use xlink:href="#DejaVuSans-73" x="497.580078"/>
      <use xlink:href="#DejaVuSans-20" x="549.679688"/>
      <use xlink:href="#DejaVuSans-49" x="581.466797"/>
      <use xlink:href="#DejaVuSans-6e" x="610.958984"/>
      <use xlink:href="#DejaVuSans-63" x="674.337891"/>
      <use xlink:href="#DejaVuSans-72" x="729.318359"/>
      <use xlink:href="#DejaVuSans-65" x="768.181641"/>
      <use xlink:href="#DejaVuSans-61" x="829.705078"/>
      <use xlink:href="#DejaVuSans-73" x="890.984375"/>
      <use xlink:href="#DejaVuSans-65" x="943.083984"/>
      <use xlink:href="#DejaVuSans-20" x="1004.607422"/>
      <use xlink:href="#DejaVuSans-5b" x="1036.394531"/>
      <use xlink:href="#DejaVuSans-67" x="1075.408203"/>
      <use xlink:href="#DejaVuSans-2f" x="1138.884766"/>
      <use xlink:href="#DejaVuSans-4c" x="1172.576172"/>
      <use xlink:href="#DejaVuSans-68" x="1228.289062"/>
      <use xlink:href="#DejaVuSans-5d" x="1291.667969"/>
     </g>
    </g>
   </g>
   <g id="line2d_14">
    <path d="M 229.844375 390.40301 
L 229.844375 371.188129 
" clip-path="url(#p365d366601)" style="fill: none; stroke: #545454; stroke-width: 1.875; stroke-linecap: square"/>
   </g>
   <g id="line2d_15">
    <path d="M 229.844375 383.231303 
L 229.844375 378.051253 
" clip-path="url(#p365d366601)" style="fill: none; stroke: #545454; stroke-width: 5.625; stroke-linecap: square"/>
   </g>
   <g id="line2d_16">
    <path d="M 229.844375 380.974586 
" clip-path="url(#p365d366601)" style="fill: none; stroke: #545454; stroke-width: 1.5; stroke-linecap: square"/>
    <defs>
     <path id="m73bc85cedf" d="M 2.34375 0 
L -2.34375 -0 
" style="stroke: #ffffff; stroke-width: 1.125"/>
    </defs>
    <g clip-path="url(#p365d366601)">
     <use xlink:href="#m73bc85cedf" x="229.844375" y="380.974586" style="fill: #ffffff; stroke: #ffffff; stroke-width: 1.125"/>
    </g>
   </g>
   <g id="line2d_17">
    <path d="M 47.019375 105.931818 
L 412.669375 105.931818 
" clip-path="url(#p365d366601)" style="fill: none; stroke-dasharray: 7.4,3.2; stroke-dashoffset: 0; stroke: #0000ff; stroke-width: 2"/>
   </g>
   <g id="line2d_18">
    <path d="M 47.019375 390.175615 
L 412.669375 390.175615 
" clip-path="url(#p365d366601)" style="fill: none; stroke-dasharray: 7.4,3.2; stroke-dashoffset: 0; stroke: #ff0000; stroke-width: 2"/>
   </g>
   <g id="patch_3">
    <path d="M 47.019375 411.94 
L 47.019375 91.36 
" style="fill: none; stroke: #000000; stroke-width: 0.8; stroke-linejoin: miter; stroke-linecap: square"/>
   </g>
   <g id="patch_4">
    <path d="M 412.669375 411.94 
L 412.669375 91.36 
" style="fill: none; stroke: #000000; stroke-width: 0.8; stroke-linejoin: miter; stroke-linecap: square"/>
   </g>
   <g id="patch_5">
    <path d="M 47.019375 411.94 
L 412.669375 411.94 
" style="fill: none; stroke: #000000; stroke-width: 0.8; stroke-linejoin: miter; stroke-linecap: square"/>
   </g>
   <g id="patch_6">
    <path d="M 47.019375 91.36 
L 412.669375 91.36 
" style="fill: none; stroke: #000000; stroke-width: 0.8; stroke-linejoin: miter; stroke-linecap: square"/>
   </g>
   <g id="text_8">
    <!-- Fresh Mass Increase [g/Lh] -->
    <g transform="translate(136.697344 81.36) scale(0.14 -0.14)">
     <use xlink:href="#DejaVuSans-46"/>
     <use xlink:href="#DejaVuSans-72" x="50.269531"/>
     <use xlink:href="#DejaVuSans-65" x="89.132812"/>
     <use xlink:href="#DejaVuSans-73" x="150.65625"/>
     <use xlink:href="#DejaVuSans-68" x="202.755859"/>
     <use xlink:href="#DejaVuSans-20" x="266.134766"/>
     <use xlink:href="#DejaVuSans-4d" x="297.921875"/>
     <use xlink:href="#DejaVuSans-61" x="384.201172"/>
     <use xlink:href="#DejaVuSans-73" x="445.480469"/>
     <use xlink:href="#DejaVuSans-73" x="497.580078"/>
     <use xlink:href="#DejaVuSans-20" x="549.679688"/>
     <use xlink:href="#DejaVuSans-49" x="581.466797"/>
     <use xlink:href="#DejaVuSans-6e" x="610.958984"/>
     <use xlink:href="#DejaVuSans-63" x="674.337891"/>
     <use xlink:href="#DejaVuSans-72" x="729.318359"/>
     <use xlink:href="#DejaVuSans-65" x="768.181641"/>
     <use xlink:href="#DejaVuSans-61" x="829.705078"/>
     <use xlink:href="#DejaVuSans-73" x="890.984375"/>
     <use xlink:href="#DejaVuSans-65" x="943.083984"/>
     <use xlink:href="#DejaVuSans-20" x="1004.607422"/>
     <use xlink:href="#DejaVuSans-5b" x="1036.394531"/>
     <use xlink:href="#DejaVuSans-67" x="1075.408203"/>
     <use xlink:href="#DejaVuSans-2f" x="1138.884766"/>
     <use xlink:href="#DejaVuSans-4c" x="1172.576172"/>
     <use xlink:href="#DejaVuSans-68" x="1228.289062"/>
     <use xlink:href="#DejaVuSans-5d" x="1291.667969"/>
    </g>
   </g>
  </g>
  <g id="axes_2">
   <g id="patch_7">
    <path d="M 475.239375 411.94 
L 840.889375 411.94 
L 840.889375 91.36 
L 475.239375 91.36 
z
" style="fill: #ffffff"/>
   </g>
   <g id="PolyCollection_2">
    <defs>
     <path id="m56b011dfb5" d="M 662.318491 -25.271818 
L 653.810259 -25.271818 
L 652.57218 -28.21562 
L 651.058084 -31.159421 
L 649.23124 -34.103223 
L 647.056283 -37.047025 
L 644.500829 -39.990826 
L 641.537163 -42.934628 
L 638.143881 -45.87843 
L 634.307386 -48.822231 
L 630.023109 -51.766033 
L 625.296375 -54.709835 
L 620.142861 -57.653636 
L 614.588605 -60.597438 
L 608.669606 -63.54124 
L 602.431063 -66.485041 
L 595.926359 -69.428843 
L 589.215887 -72.372645 
L 582.365819 -75.316446 
L 575.446924 -78.260248 
L 568.53346 -81.20405 
L 561.702154 -84.147851 
L 555.031232 -87.091653 
L 548.59941 -90.035455 
L 542.484739 -92.979256 
L 536.763213 -95.923058 
L 531.507049 -98.86686 
L 526.782612 -101.810661 
L 522.648018 -104.754463 
L 519.150524 -107.698264 
L 516.323874 -110.642066 
L 514.185836 -113.585868 
L 512.736193 -116.529669 
L 511.955431 -119.473471 
L 511.804375 -122.417273 
L 512.224906 -125.361074 
L 513.141863 -128.304876 
L 514.466076 -131.248678 
L 516.09843 -134.192479 
L 517.934715 -137.136281 
L 519.870974 -140.080083 
L 521.809003 -143.023884 
L 523.661625 -145.967686 
L 525.357392 -148.911488 
L 526.84438 -151.855289 
L 528.092828 -154.799091 
L 529.096434 -157.742893 
L 529.872241 -160.686694 
L 530.459091 -163.630496 
L 530.914794 -166.574298 
L 531.312168 -169.518099 
L 531.734239 -172.461901 
L 532.268908 -175.405702 
L 533.003435 -178.349504 
L 534.019086 -181.293306 
L 535.386285 -184.237107 
L 537.160553 -187.180909 
L 539.379464 -190.124711 
L 542.060775 -193.068512 
L 545.201787 -196.012314 
L 548.779942 -198.956116 
L 552.754538 -201.899917 
L 557.069425 -204.843719 
L 561.656449 -207.787521 
L 566.439406 -210.731322 
L 571.338237 -213.675124 
L 576.273186 -216.618926 
L 581.168696 -219.562727 
L 585.956805 -222.506529 
L 590.579879 -225.450331 
L 594.992555 -228.394132 
L 599.162829 -231.337934 
L 603.072283 -234.281736 
L 606.715487 -237.225537 
L 610.098681 -240.169339 
L 613.237865 -243.11314 
L 616.156475 -246.056942 
L 618.882816 -249.000744 
L 621.447448 -251.944545 
L 623.880713 -254.888347 
L 626.210542 -257.832149 
L 628.460692 -260.77595 
L 630.649478 -263.719752 
L 632.789063 -266.663554 
L 634.885291 -269.607355 
L 636.938029 -272.551157 
L 638.941935 -275.494959 
L 640.887555 -278.43876 
L 642.762622 -281.382562 
L 644.553441 -284.326364 
L 646.246232 -287.270165 
L 647.828336 -290.213967 
L 649.289208 -293.157769 
L 650.621135 -296.10157 
L 651.819663 -299.045372 
L 652.883738 -301.989174 
L 653.815589 -304.932975 
L 654.6204 -307.876777 
L 655.305816 -310.820579 
L 655.881374 -313.76438 
L 656.357876 -316.708182 
L 659.770874 -316.708182 
L 659.770874 -316.708182 
L 660.247376 -313.76438 
L 660.822934 -310.820579 
L 661.50835 -307.876777 
L 662.313161 -304.932975 
L 663.245012 -301.989174 
L 664.309087 -299.045372 
L 665.507615 -296.10157 
L 666.839542 -293.157769 
L 668.300414 -290.213967 
L 669.882518 -287.270165 
L 671.575309 -284.326364 
L 673.366128 -281.382562 
L 675.241195 -278.43876 
L 677.186815 -275.494959 
L 679.190721 -272.551157 
L 681.243459 -269.607355 
L 683.339687 -266.663554 
L 685.479272 -263.719752 
L 687.668058 -260.77595 
L 689.918208 -257.832149 
L 692.248037 -254.888347 
L 694.681302 -251.944545 
L 697.245934 -249.000744 
L 699.972275 -246.056942 
L 702.890885 -243.11314 
L 706.030069 -240.169339 
L 709.413263 -237.225537 
L 713.056467 -234.281736 
L 716.965921 -231.337934 
L 721.136195 -228.394132 
L 725.548871 -225.450331 
L 730.171945 -222.506529 
L 734.960054 -219.562727 
L 739.855564 -216.618926 
L 744.790513 -213.675124 
L 749.689344 -210.731322 
L 754.472301 -207.787521 
L 759.059325 -204.843719 
L 763.374212 -201.899917 
L 767.348808 -198.956116 
L 770.926963 -196.012314 
L 774.067975 -193.068512 
L 776.749286 -190.124711 
L 778.968197 -187.180909 
L 780.742465 -184.237107 
L 782.109664 -181.293306 
L 783.125315 -178.349504 
L 783.859842 -175.405702 
L 784.394511 -172.461901 
L 784.816582 -169.518099 
L 785.213956 -166.574298 
L 785.669659 -163.630496 
L 786.256509 -160.686694 
L 787.032316 -157.742893 
L 788.035922 -154.799091 
L 789.28437 -151.855289 
L 790.771358 -148.911488 
L 792.467125 -145.967686 
L 794.319747 -143.023884 
L 796.257776 -140.080083 
L 798.194035 -137.136281 
L 800.03032 -134.192479 
L 801.662674 -131.248678 
L 802.986887 -128.304876 
L 803.903844 -125.361074 
L 804.324375 -122.417273 
L 804.173319 -119.473471 
L 803.392557 -116.529669 
L 801.942914 -113.585868 
L 799.804876 -110.642066 
L 796.978226 -107.698264 
L 793.480732 -104.754463 
L 789.346138 -101.810661 
L 784.621701 -98.86686 
L 779.365537 -95.923058 
L 773.644011 -92.979256 
L 767.52934 -90.035455 
L 761.097518 -87.091653 
L 754.426596 -84.147851 
L 747.59529 -81.20405 
L 740.681826 -78.260248 
L 733.762931 -75.316446 
L 726.912863 -72.372645 
L 720.202391 -69.428843 
L 713.697687 -66.485041 
L 707.459144 -63.54124 
L 701.540145 -60.597438 
L 695.985889 -57.653636 
L 690.832375 -54.709835 
L 686.105641 -51.766033 
L 681.821364 -48.822231 
L 677.984869 -45.87843 
L 674.591587 -42.934628 
L 671.627921 -39.990826 
L 669.072467 -37.047025 
L 666.89751 -34.103223 
L 665.070666 -31.159421 
L 663.55657 -28.21562 
L 662.318491 -25.271818 
z
" style="stroke: #545454; stroke-width: 1.25"/>
    </defs>
    <g clip-path="url(#pa664dbb486)">
     <use xlink:href="#m56b011dfb5" x="0" y="422.64" style="fill: #597dbf; stroke: #545454; stroke-width: 1.25"/>
    </g>
   </g>
   <g id="matplotlib.axis_3">
    <g id="xtick_2">
     <g id="line2d_19">
      <g>
       <use xlink:href="#m30cbbd7d7c" x="658.064375" y="411.94" style="stroke: #000000; stroke-width: 0.8"/>
      </g>
     </g>
    </g>
   </g>
   <g id="matplotlib.axis_4">
    <g id="ytick_7">
     <g id="line2d_20">
      <path d="M 475.239375 350.054175 
L 840.889375 350.054175 
" clip-path="url(#pa664dbb486)" style="fill: none; stroke: #b0b0b0; stroke-width: 0.8; stroke-linecap: square"/>
     </g>
     <g id="line2d_21">
      <g>
       <use xlink:href="#m17a2c1356a" x="475.239375" y="350.054175" style="stroke: #000000; stroke-width: 0.8"/>
      </g>
     </g>
     <g id="text_9">
      <!-- 0 -->
      <g transform="translate(460.604375 354.613237) scale(0.12 -0.12)">
       <use xlink:href="#DejaVuSans-30"/>
      </g>
     </g>
    </g>
    <g id="ytick_8">
     <g id="line2d_22">
      <path d="M 475.239375 284.766947 
L 840.889375 284.766947 
" clip-path="url(#pa664dbb486)" style="fill: none; stroke: #b0b0b0; stroke-width: 0.8; stroke-linecap: square"/>
     </g>
     <g id="line2d_23">
      <g>
       <use xlink:href="#m17a2c1356a" x="475.239375" y="284.766947" style="stroke: #000000; stroke-width: 0.8"/>
      </g>
     </g>
     <g id="text_10">
      <!-- 100 -->
      <g transform="translate(445.334375 289.326009) scale(0.12 -0.12)">
       <use xlink:href="#DejaVuSans-31"/>
       <use xlink:href="#DejaVuSans-30" x="63.623047"/>
       <use xlink:href="#DejaVuSans-30" x="127.246094"/>
      </g>
     </g>
    </g>
    <g id="ytick_9">
     <g id="line2d_24">
      <path d="M 475.239375 219.479718 
L 840.889375 219.479718 
" clip-path="url(#pa664dbb486)" style="fill: none; stroke: #b0b0b0; stroke-width: 0.8; stroke-linecap: square"/>
     </g>
     <g id="line2d_25">
      <g>
       <use xlink:href="#m17a2c1356a" x="475.239375" y="219.479718" style="stroke: #000000; stroke-width: 0.8"/>
      </g>
     </g>
     <g id="text_11">
      <!-- 200 -->
      <g transform="translate(445.334375 224.038781) scale(0.12 -0.12)">
       <use xlink:href="#DejaVuSans-32"/>
       <use xlink:href="#DejaVuSans-30" x="63.623047"/>
       <use xlink:href="#DejaVuSans-30" x="127.246094"/>
      </g>
     </g>
    </g>
    <g id="ytick_10">
     <g id="line2d_26">
      <path d="M 475.239375 154.19249 
L 840.889375 154.19249 
" clip-path="url(#pa664dbb486)" style="fill: none; stroke: #b0b0b0; stroke-width: 0.8; stroke-linecap: square"/>
     </g>
     <g id="line2d_27">
      <g>
       <use xlink:href="#m17a2c1356a" x="475.239375" y="154.19249" style="stroke: #000000; stroke-width: 0.8"/>
      </g>
     </g>
     <g id="text_12">
      <!-- 300 -->
      <g transform="translate(445.334375 158.751552) scale(0.12 -0.12)">
       <defs>
        <path id="DejaVuSans-33" d="M 2597 2516 
Q 3050 2419 3304 2112 
Q 3559 1806 3559 1356 
Q 3559 666 3084 287 
Q 2609 -91 1734 -91 
Q 1441 -91 1130 -33 
Q 819 25 488 141 
L 488 750 
Q 750 597 1062 519 
Q 1375 441 1716 441 
Q 2309 441 2620 675 
Q 2931 909 2931 1356 
Q 2931 1769 2642 2001 
Q 2353 2234 1838 2234 
L 1294 2234 
L 1294 2753 
L 1863 2753 
Q 2328 2753 2575 2939 
Q 2822 3125 2822 3475 
Q 2822 3834 2567 4026 
Q 2313 4219 1838 4219 
Q 1578 4219 1281 4162 
Q 984 4106 628 3988 
L 628 4550 
Q 988 4650 1302 4700 
Q 1616 4750 1894 4750 
Q 2613 4750 3031 4423 
Q 3450 4097 3450 3541 
Q 3450 3153 3228 2886 
Q 3006 2619 2597 2516 
z
" transform="scale(0.015625)"/>
       </defs>
       <use xlink:href="#DejaVuSans-33"/>
       <use xlink:href="#DejaVuSans-30" x="63.623047"/>
       <use xlink:href="#DejaVuSans-30" x="127.246094"/>
      </g>
     </g>
    </g>
    <g id="text_13">
     <!-- Fresh Mass [g/L] -->
     <g transform="translate(438.422812 308.515156) rotate(-90) scale(0.14 -0.14)">
      <use xlink:href="#DejaVuSans-46"/>
      <use xlink:href="#DejaVuSans-72" x="50.269531"/>
      <use xlink:href="#DejaVuSans-65" x="89.132812"/>
      <use xlink:href="#DejaVuSans-73" x="150.65625"/>
      <use xlink:href="#DejaVuSans-68" x="202.755859"/>
      <use xlink:href="#DejaVuSans-20" x="266.134766"/>
      <use xlink:href="#DejaVuSans-4d" x="297.921875"/>
      <use xlink:href="#DejaVuSans-61" x="384.201172"/>
      <use xlink:href="#DejaVuSans-73" x="445.480469"/>
      <use xlink:href="#DejaVuSans-73" x="497.580078"/>
      <use xlink:href="#DejaVuSans-20" x="549.679688"/>
      <use xlink:href="#DejaVuSans-5b" x="581.466797"/>
      <use xlink:href="#DejaVuSans-67" x="620.480469"/>
      <use xlink:href="#DejaVuSans-2f" x="683.957031"/>
      <use xlink:href="#DejaVuSans-4c" x="717.648438"/>
      <use xlink:href="#DejaVuSans-5d" x="773.361328"/>
     </g>
    </g>
   </g>
   <g id="line2d_28">
    <path d="M 658.064375 347.357812 
L 658.064375 155.942188 
" clip-path="url(#pa664dbb486)" style="fill: none; stroke: #545454; stroke-width: 1.875; stroke-linecap: square"/>
   </g>
   <g id="line2d_29">
    <path d="M 658.064375 307.532603 
L 658.064375 235.915778 
" clip-path="url(#pa664dbb486)" style="fill: none; stroke: #545454; stroke-width: 5.625; stroke-linecap: square"/>
   </g>
   <g id="line2d_30">
    <path d="M 658.064375 278.629947 
" clip-path="url(#pa664dbb486)" style="fill: none; stroke: #545454; stroke-width: 1.5; stroke-linecap: square"/>
    <g clip-path="url(#pa664dbb486)">
     <use xlink:href="#m73bc85cedf" x="658.064375" y="278.629947" style="fill: #ffffff; stroke: #ffffff; stroke-width: 1.125"/>
    </g>
   </g>
   <g id="line2d_31">
    <path d="M 475.239375 219.479718 
L 840.889375 219.479718 
" clip-path="url(#pa664dbb486)" style="fill: none; stroke-dasharray: 7.4,3.2; stroke-dashoffset: 0; stroke: #0000ff; stroke-width: 2"/>
   </g>
   <g id="line2d_32">
    <path d="M 475.239375 350.054175 
L 840.889375 350.054175 
" clip-path="url(#pa664dbb486)" style="fill: none; stroke-dasharray: 7.4,3.2; stroke-dashoffset: 0; stroke: #ff0000; stroke-width: 2"/>
   </g>
   <g id="patch_8">
    <path d="M 475.239375 411.94 
L 475.239375 91.36 
" style="fill: none; stroke: #000000; stroke-width: 0.8; stroke-linejoin: miter; stroke-linecap: square"/>
   </g>
   <g id="patch_9">
    <path d="M 840.889375 411.94 
L 840.889375 91.36 
" style="fill: none; stroke: #000000; stroke-width: 0.8; stroke-linejoin: miter; stroke-linecap: square"/>
   </g>
   <g id="patch_10">
    <path d="M 475.239375 411.94 
L 840.889375 411.94 
" style="fill: none; stroke: #000000; stroke-width: 0.8; stroke-linejoin: miter; stroke-linecap: square"/>
   </g>
   <g id="patch_11">
    <path d="M 475.239375 91.36 
L 840.889375 91.36 
" style="fill: none; stroke: #000000; stroke-width: 0.8; stroke-linejoin: miter; stroke-linecap: square"/>
   </g>
   <g id="text_14">
    <!-- Fresh Mass [g/L] -->
    <g transform="translate(601.199219 81.36) scale(0.14 -0.14)">
     <use xlink:href="#DejaVuSans-46"/>
     <use xlink:href="#DejaVuSans-72" x="50.269531"/>
     <use xlink:href="#DejaVuSans-65" x="89.132812"/>
     <use xlink:href="#DejaVuSans-73" x="150.65625"/>
     <use xlink:href="#DejaVuSans-68" x="202.755859"/>
     <use xlink:href="#DejaVuSans-20" x="266.134766"/>
     <use xlink:href="#DejaVuSans-4d" x="297.921875"/>
     <use xlink:href="#DejaVuSans-61" x="384.201172"/>
     <use xlink:href="#DejaVuSans-73" x="445.480469"/>
     <use xlink:href="#DejaVuSans-73" x="497.580078"/>
     <use xlink:href="#DejaVuSans-20" x="549.679688"/>
     <use xlink:href="#DejaVuSans-5b" x="581.466797"/>
     <use xlink:href="#DejaVuSans-67" x="620.480469"/>
     <use xlink:href="#DejaVuSans-2f" x="683.957031"/>
     <use xlink:href="#DejaVuSans-4c" x="717.648438"/>
     <use xlink:href="#DejaVuSans-5d" x="773.361328"/>
    </g>
   </g>
  </g>
  <g id="text_15">
   <!-- Distribution of target values over all iterations -->
   <g transform="translate(192.592187 22.396875) scale(0.2 -0.2)">
    <defs>
     <path id="DejaVuSans-44" d="M 1259 4147 
L 1259 519 
L 2022 519 
Q 2988 519 3436 956 
Q 3884 1394 3884 2338 
Q 3884 3275 3436 3711 
Q 2988 4147 2022 4147 
L 1259 4147 
z
M 628 4666 
L 1925 4666 
Q 3281 4666 3915 4102 
Q 4550 3538 4550 2338 
Q 4550 1131 3912 565 
Q 3275 0 1925 0 
L 628 0 
L 628 4666 
z
" transform="scale(0.015625)"/>
     <path id="DejaVuSans-69" d="M 603 3500 
L 1178 3500 
L 1178 0 
L 603 0 
L 603 3500 
z
M 603 4863 
L 1178 4863 
L 1178 4134 
L 603 4134 
L 603 4863 
z
" transform="scale(0.015625)"/>
     <path id="DejaVuSans-74" d="M 1172 4494 
L 1172 3500 
L 2356 3500 
L 2356 3053 
L 1172 3053 
L 1172 1153 
Q 1172 725 1289 603 
Q 1406 481 1766 481 
L 2356 481 
L 2356 0 
L 1766 0 
Q 1100 0 847 248 
Q 594 497 594 1153 
L 594 3053 
L 172 3053 
L 172 3500 
L 594 3500 
L 594 4494 
L 1172 4494 
z
" transform="scale(0.015625)"/>
     <path id="DejaVuSans-62" d="M 3116 1747 
Q 3116 2381 2855 2742 
Q 2594 3103 2138 3103 
Q 1681 3103 1420 2742 
Q 1159 2381 1159 1747 
Q 1159 1113 1420 752 
Q 1681 391 2138 391 
Q 2594 391 2855 752 
Q 3116 1113 3116 1747 
z
M 1159 2969 
Q 1341 3281 1617 3432 
Q 1894 3584 2278 3584 
Q 2916 3584 3314 3078 
Q 3713 2572 3713 1747 
Q 3713 922 3314 415 
Q 2916 -91 2278 -91 
Q 1894 -91 1617 61 
Q 1341 213 1159 525 
L 1159 0 
L 581 0 
L 581 4863 
L 1159 4863 
L 1159 2969 
z
" transform="scale(0.015625)"/>
     <path id="DejaVuSans-75" d="M 544 1381 
L 544 3500 
L 1119 3500 
L 1119 1403 
Q 1119 906 1312 657 
Q 1506 409 1894 409 
Q 2359 409 2629 706 
Q 2900 1003 2900 1516 
L 2900 3500 
L 3475 3500 
L 3475 0 
L 2900 0 
L 2900 538 
Q 2691 219 2414 64 
Q 2138 -91 1772 -91 
Q 1169 -91 856 284 
Q 544 659 544 1381 
z
M 1991 3584 
L 1991 3584 
z
" transform="scale(0.015625)"/>
     <path id="DejaVuSans-6f" d="M 1959 3097 
Q 1497 3097 1228 2736 
Q 959 2375 959 1747 
Q 959 1119 1226 758 
Q 1494 397 1959 397 
Q 2419 397 2687 759 
Q 2956 1122 2956 1747 
Q 2956 2369 2687 2733 
Q 2419 3097 1959 3097 
z
M 1959 3584 
Q 2709 3584 3137 3096 
Q 3566 2609 3566 1747 
Q 3566 888 3137 398 
Q 2709 -91 1959 -91 
Q 1206 -91 779 398 
Q 353 888 353 1747 
Q 353 2609 779 3096 
Q 1206 3584 1959 3584 
z
" transform="scale(0.015625)"/>
     <path id="DejaVuSans-66" d="M 2375 4863 
L 2375 4384 
L 1825 4384 
Q 1516 4384 1395 4259 
Q 1275 4134 1275 3809 
L 1275 3500 
L 2222 3500 
L 2222 3053 
L 1275 3053 
L 1275 0 
L 697 0 
L 697 3053 
L 147 3053 
L 147 3500 
L 697 3500 
L 697 3744 
Q 697 4328 969 4595 
Q 1241 4863 1831 4863 
L 2375 4863 
z
" transform="scale(0.015625)"/>
     <path id="DejaVuSans-76" d="M 191 3500 
L 800 3500 
L 1894 563 
L 2988 3500 
L 3597 3500 
L 2284 0 
L 1503 0 
L 191 3500 
z
" transform="scale(0.015625)"/>
     <path id="DejaVuSans-6c" d="M 603 4863 
L 1178 4863 
L 1178 0 
L 603 0 
L 603 4863 
z
" transform="scale(0.015625)"/>
    </defs>
    <use xlink:href="#DejaVuSans-44"/>
    <use xlink:href="#DejaVuSans-69" x="77.001953"/>
    <use xlink:href="#DejaVuSans-73" x="104.785156"/>
    <use xlink:href="#DejaVuSans-74" x="156.884766"/>
    <use xlink:href="#DejaVuSans-72" x="196.09375"/>
    <use xlink:href="#DejaVuSans-69" x="237.207031"/>
    <use xlink:href="#DejaVuSans-62" x="264.990234"/>
    <use xlink:href="#DejaVuSans-75" x="328.466797"/>
    <use xlink:href="#DejaVuSans-74" x="391.845703"/>
    <use xlink:href="#DejaVuSans-69" x="431.054688"/>
    <use xlink:href="#DejaVuSans-6f" x="458.837891"/>
    <use xlink:href="#DejaVuSans-6e" x="520.019531"/>
    <use xlink:href="#DejaVuSans-20" x="583.398438"/>
    <use xlink:href="#DejaVuSans-6f" x="615.185547"/>
    <use xlink:href="#DejaVuSans-66" x="676.367188"/>
    <use xlink:href="#DejaVuSans-20" x="711.572266"/>
    <use xlink:href="#DejaVuSans-74" x="743.359375"/>
    <use xlink:href="#DejaVuSans-61" x="782.568359"/>
    <use xlink:href="#DejaVuSans-72" x="843.847656"/>
    <use xlink:href="#DejaVuSans-67" x="883.210938"/>
    <use xlink:href="#DejaVuSans-65" x="946.6875"/>
    <use xlink:href="#DejaVuSans-74" x="1008.210938"/>
    <use xlink:href="#DejaVuSans-20" x="1047.419922"/>
    <use xlink:href="#DejaVuSans-76" x="1079.207031"/>
    <use xlink:href="#DejaVuSans-61" x="1138.386719"/>
    <use xlink:href="#DejaVuSans-6c" x="1199.666016"/>
    <use xlink:href="#DejaVuSans-75" x="1227.449219"/>
    <use xlink:href="#DejaVuSans-65" x="1290.828125"/>
    <use xlink:href="#DejaVuSans-73" x="1352.351562"/>
    <use xlink:href="#DejaVuSans-20" x="1404.451172"/>
    <use xlink:href="#DejaVuSans-6f" x="1436.238281"/>
    <use xlink:href="#DejaVuSans-76" x="1497.419922"/>
    <use xlink:href="#DejaVuSans-65" x="1556.599609"/>
    <use xlink:href="#DejaVuSans-72" x="1618.123047"/>
    <use xlink:href="#DejaVuSans-20" x="1659.236328"/>
    <use xlink:href="#DejaVuSans-61" x="1691.023438"/>
    <use xlink:href="#DejaVuSans-6c" x="1752.302734"/>
    <use xlink:href="#DejaVuSans-6c" x="1780.085938"/>
    <use xlink:href="#DejaVuSans-20" x="1807.869141"/>
    <use xlink:href="#DejaVuSans-69" x="1839.65625"/>
    <use xlink:href="#DejaVuSans-74" x="1867.439453"/>
    <use xlink:href="#DejaVuSans-65" x="1906.648438"/>
    <use xlink:href="#DejaVuSans-72" x="1968.171875"/>
    <use xlink:href="#DejaVuSans-61" x="2009.285156"/>
    <use xlink:href="#DejaVuSans-74" x="2070.564453"/>
    <use xlink:href="#DejaVuSans-69" x="2109.773438"/>
    <use xlink:href="#DejaVuSans-6f" x="2137.556641"/>
    <use xlink:href="#DejaVuSans-6e" x="2198.738281"/>
    <use xlink:href="#DejaVuSans-73" x="2262.117188"/>
   </g>
  </g>
 </g>
 <defs>
  <clipPath id="p365d366601">
   <rect x="47.019375" y="91.36" width="365.65" height="320.58"/>
  </clipPath>
  <clipPath id="pa664dbb486">
   <rect x="475.239375" y="91.36" width="365.65" height="320.58"/>
  </clipPath>
 </defs>
</svg>
