<?xml version="1.0" encoding="utf-8" standalone="no"?>
<!DOCTYPE svg PUBLIC "-//W3C//DTD SVG 1.1//EN"
  "http://www.w3.org/Graphics/SVG/1.1/DTD/svg11.dtd">
<svg xmlns:xlink="http://www.w3.org/1999/xlink" width="1008pt" height="576pt" viewBox="0 0 1008 576" xmlns="http://www.w3.org/2000/svg" version="1.1">
 <metadata>
  <rdf:RDF xmlns:dc="http://purl.org/dc/elements/1.1/" xmlns:cc="http://creativecommons.org/ns#" xmlns:rdf="http://www.w3.org/1999/02/22-rdf-syntax-ns#">
   <cc:Work>
    <dc:type rdf:resource="http://purl.org/dc/dcmitype/StillImage"/>
    <dc:date>2025-06-10T13:28:32.319304</dc:date>
    <dc:format>image/svg+xml</dc:format>
    <dc:creator>
     <cc:Agent>
      <dc:title>Matplotlib v3.9.2, https://matplotlib.org/</dc:title>
     </cc:Agent>
    </dc:creator>
   </cc:Work>
  </rdf:RDF>
 </metadata>
 <defs>
  <style type="text/css">*{stroke-linejoin: round; stroke-linecap: butt}</style>
 </defs>
 <g id="figure_1">
  <g id="patch_1">
   <path d="M 0 576 
L 1008 576 
L 1008 0 
L 0 0 
z
" style="fill: #ffffff"/>
  </g>
  <g id="axes_1">
   <g id="patch_2">
    <path d="M 55.1 554.569988 
L 189.504 554.569988 
L 189.504 89.52 
L 55.1 89.52 
z
" style="fill: #ffffff"/>
   </g>
   <g id="PolyCollection_1">
    <defs>
     <path id="m824f7240dd" d="M 125.729262 -42.568648 
L 118.874738 -42.568648 
L 117.515793 -46.83908 
L 115.765563 -51.109511 
L 113.571103 -55.379943 
L 110.894013 -59.650374 
L 107.71866 -63.920806 
L 104.060123 -68.191237 
L 99.970671 -72.461668 
L 95.543515 -76.7321 
L 90.912701 -81.002531 
L 86.248405 -85.272963 
L 81.747472 -89.543394 
L 77.619698 -93.813826 
L 74.071151 -98.084257 
L 71.286332 -102.354689 
L 69.411366 -106.62512 
L 68.5404 -110.895552 
L 68.707002 -115.165983 
L 69.881711 -119.436415 
L 71.975993 -123.706846 
L 74.851957 -127.977278 
L 78.336407 -132.247709 
L 82.237279 -136.518141 
L 86.360338 -140.788572 
L 90.524187 -145.059004 
L 94.572092 -149.329435 
L 98.379755 -153.599867 
L 101.858831 -157.870298 
L 104.95658 -162.140729 
L 107.652431 -166.411161 
L 109.952483 -170.681592 
L 111.882944 -174.952024 
L 113.483419 -179.222455 
L 114.800707 -183.492887 
L 115.883552 -187.763318 
L 116.778574 -192.03375 
L 117.527404 -196.304181 
L 118.164983 -200.574613 
L 118.718849 -204.845044 
L 119.209253 -209.115476 
L 119.649887 -213.385907 
L 120.049029 -217.656339 
L 120.410896 -221.92677 
L 120.737034 -226.197202 
L 121.027589 -230.467633 
L 121.28234 -234.738065 
L 121.501448 -239.008496 
L 121.685886 -243.278927 
L 121.837586 -247.549359 
L 121.959371 -251.81979 
L 122.054728 -256.090222 
L 122.127513 -260.360653 
L 122.181655 -264.631085 
L 122.220896 -268.901516 
L 122.248604 -273.171948 
L 122.267661 -277.442379 
L 122.280424 -281.712811 
L 122.288739 -285.983242 
L 122.293993 -290.253674 
L 122.297182 -294.524105 
L 122.29898 -298.794537 
L 122.299804 -303.064968 
L 122.299856 -307.3354 
L 122.299154 -311.605831 
L 122.297528 -315.876263 
L 122.294609 -320.146694 
L 122.289785 -324.417126 
L 122.28216 -328.687557 
L 122.270492 -332.957988 
L 122.253149 -337.22842 
L 122.228094 -341.498851 
L 122.192909 -345.769283 
L 122.144898 -350.039714 
L 122.081272 -354.310146 
L 121.999442 -358.580577 
L 121.897389 -362.851009 
L 121.77411 -367.12144 
L 121.630066 -371.391872 
L 121.467576 -375.662303 
L 121.291063 -379.932735 
L 121.107082 -384.203166 
L 120.924063 -388.473598 
L 120.751764 -392.744029 
L 120.600456 -397.014461 
L 120.479927 -401.284892 
L 120.398446 -405.555324 
L 120.361821 -409.825755 
L 120.37272 -414.096186 
L 120.430344 -418.366618 
L 120.53053 -422.637049 
L 120.666244 -426.907481 
L 120.828397 -431.177912 
L 121.006852 -435.448344 
L 121.191457 -439.718775 
L 121.372973 -443.989207 
L 121.543775 -448.259638 
L 121.698266 -452.53007 
L 121.833004 -456.800501 
L 121.946556 -461.070933 
L 122.039186 -465.341364 
L 122.564814 -465.341364 
L 122.564814 -465.341364 
L 122.657444 -461.070933 
L 122.770996 -456.800501 
L 122.905734 -452.53007 
L 123.060225 -448.259638 
L 123.231027 -443.989207 
L 123.412543 -439.718775 
L 123.597148 -435.448344 
L 123.775603 -431.177912 
L 123.937756 -426.907481 
L 124.07347 -422.637049 
L 124.173656 -418.366618 
L 124.23128 -414.096186 
L 124.242179 -409.825755 
L 124.205554 -405.555324 
L 124.124073 -401.284892 
L 124.003544 -397.014461 
L 123.852236 -392.744029 
L 123.679937 -388.473598 
L 123.496918 -384.203166 
L 123.312937 -379.932735 
L 123.136424 -375.662303 
L 122.973934 -371.391872 
L 122.82989 -367.12144 
L 122.706611 -362.851009 
L 122.604558 -358.580577 
L 122.522728 -354.310146 
L 122.459102 -350.039714 
L 122.411091 -345.769283 
L 122.375906 -341.498851 
L 122.350851 -337.22842 
L 122.333508 -332.957988 
L 122.32184 -328.687557 
L 122.314215 -324.417126 
L 122.309391 -320.146694 
L 122.306472 -315.876263 
L 122.304846 -311.605831 
L 122.304144 -307.3354 
L 122.304196 -303.064968 
L 122.30502 -298.794537 
L 122.306818 -294.524105 
L 122.310007 -290.253674 
L 122.315261 -285.983242 
L 122.323576 -281.712811 
L 122.336339 -277.442379 
L 122.355396 -273.171948 
L 122.383104 -268.901516 
L 122.422345 -264.631085 
L 122.476487 -260.360653 
L 122.549272 -256.090222 
L 122.644629 -251.81979 
L 122.766414 -247.549359 
L 122.918114 -243.278927 
L 123.102552 -239.008496 
L 123.32166 -234.738065 
L 123.576411 -230.467633 
L 123.866966 -226.197202 
L 124.193104 -221.92677 
L 124.554971 -217.656339 
L 124.954113 -213.385907 
L 125.394747 -209.115476 
L 125.885151 -204.845044 
L 126.439017 -200.574613 
L 127.076596 -196.304181 
L 127.825426 -192.03375 
L 128.720448 -187.763318 
L 129.803293 -183.492887 
L 131.120581 -179.222455 
L 132.721056 -174.952024 
L 134.651517 -170.681592 
L 136.951569 -166.411161 
L 139.64742 -162.140729 
L 142.745169 -157.870298 
L 146.224245 -153.599867 
L 150.031908 -149.329435 
L 154.079813 -145.059004 
L 158.243662 -140.788572 
L 162.366721 -136.518141 
L 166.267593 -132.247709 
L 169.752043 -127.977278 
L 172.628007 -123.706846 
L 174.722289 -119.436415 
L 175.896998 -115.165983 
L 176.0636 -110.895552 
L 175.192634 -106.62512 
L 173.317668 -102.354689 
L 170.532849 -98.084257 
L 166.984302 -93.813826 
L 162.856528 -89.543394 
L 158.355595 -85.272963 
L 153.691299 -81.002531 
L 149.060485 -76.7321 
L 144.633329 -72.461668 
L 140.543877 -68.191237 
L 136.88534 -63.920806 
L 133.709987 -59.650374 
L 131.032897 -55.379943 
L 128.838437 -51.109511 
L 127.088207 -46.83908 
L 125.729262 -42.568648 
z
" style="stroke: #545454; stroke-width: 1.25"/>
    </defs>
    <g clip-path="url(#p83e5e68f58)">
     <use xlink:href="#m824f7240dd" x="0" y="576" style="fill: #597dbf; stroke: #545454; stroke-width: 1.25"/>
    </g>
   </g>
   <g id="matplotlib.axis_1">
    <g id="xtick_1">
     <g id="line2d_1">
      <defs>
       <path id="mbeae413935" d="M 0 0 
L 0 3.5 
" style="stroke: #000000; stroke-width: 0.8"/>
      </defs>
      <g>
       <use xlink:href="#mbeae413935" x="122.302" y="554.569988" style="stroke: #000000; stroke-width: 0.8"/>
      </g>
     </g>
    </g>
   </g>
   <g id="matplotlib.axis_2">
    <g id="ytick_1">
     <g id="line2d_2">
      <path d="M 55.1 534.516186 
L 189.504 534.516186 
" clip-path="url(#p83e5e68f58)" style="fill: none; stroke: #b0b0b0; stroke-width: 0.8; stroke-linecap: square"/>
     </g>
     <g id="line2d_3">
      <defs>
       <path id="maffdc41249" d="M 0 0 
L -3.5 0 
" style="stroke: #000000; stroke-width: 0.8"/>
      </defs>
      <g>
       <use xlink:href="#maffdc41249" x="55.1" y="534.516186" style="stroke: #000000; stroke-width: 0.8"/>
      </g>
     </g>
     <g id="text_1">
      <!-- 0 -->
      <g transform="translate(40.465 539.075249) scale(0.12 -0.12)">
       <defs>
        <path id="DejaVuSans-30" d="M 2034 4250 
Q 1547 4250 1301 3770 
Q 1056 3291 1056 2328 
Q 1056 1369 1301 889 
Q 1547 409 2034 409 
Q 2525 409 2770 889 
Q 3016 1369 3016 2328 
Q 3016 3291 2770 3770 
Q 2525 4250 2034 4250 
z
M 2034 4750 
Q 2819 4750 3233 4129 
Q 3647 3509 3647 2328 
Q 3647 1150 3233 529 
Q 2819 -91 2034 -91 
Q 1250 -91 836 529 
Q 422 1150 422 2328 
Q 422 3509 836 4129 
Q 1250 4750 2034 4750 
z
" transform="scale(0.015625)"/>
       </defs>
       <use xlink:href="#DejaVuSans-30"/>
      </g>
     </g>
    </g>
    <g id="ytick_2">
     <g id="line2d_4">
      <path d="M 55.1 478.232427 
L 189.504 478.232427 
" clip-path="url(#p83e5e68f58)" style="fill: none; stroke: #b0b0b0; stroke-width: 0.8; stroke-linecap: square"/>
     </g>
     <g id="line2d_5">
      <g>
       <use xlink:href="#maffdc41249" x="55.1" y="478.232427" style="stroke: #000000; stroke-width: 0.8"/>
      </g>
     </g>
     <g id="text_2">
      <!-- 2 -->
      <g transform="translate(40.465 482.791489) scale(0.12 -0.12)">
       <defs>
        <path id="DejaVuSans-32" d="M 1228 531 
L 3431 531 
L 3431 0 
L 469 0 
L 469 531 
Q 828 903 1448 1529 
Q 2069 2156 2228 2338 
Q 2531 2678 2651 2914 
Q 2772 3150 2772 3378 
Q 2772 3750 2511 3984 
Q 2250 4219 1831 4219 
Q 1534 4219 1204 4116 
Q 875 4013 500 3803 
L 500 4441 
Q 881 4594 1212 4672 
Q 1544 4750 1819 4750 
Q 2544 4750 2975 4387 
Q 3406 4025 3406 3419 
Q 3406 3131 3298 2873 
Q 3191 2616 2906 2266 
Q 2828 2175 2409 1742 
Q 1991 1309 1228 531 
z
" transform="scale(0.015625)"/>
       </defs>
       <use xlink:href="#DejaVuSans-32"/>
      </g>
     </g>
    </g>
    <g id="ytick_3">
     <g id="line2d_6">
      <path d="M 55.1 421.948667 
L 189.504 421.948667 
" clip-path="url(#p83e5e68f58)" style="fill: none; stroke: #b0b0b0; stroke-width: 0.8; stroke-linecap: square"/>
     </g>
     <g id="line2d_7">
      <g>
       <use xlink:href="#maffdc41249" x="55.1" y="421.948667" style="stroke: #000000; stroke-width: 0.8"/>
      </g>
     </g>
     <g id="text_3">
      <!-- 4 -->
      <g transform="translate(40.465 426.50773) scale(0.12 -0.12)">
       <defs>
        <path id="DejaVuSans-34" d="M 2419 4116 
L 825 1625 
L 2419 1625 
L 2419 4116 
z
M 2253 4666 
L 3047 4666 
L 3047 1625 
L 3713 1625 
L 3713 1100 
L 3047 1100 
L 3047 0 
L 2419 0 
L 2419 1100 
L 313 1100 
L 313 1709 
L 2253 4666 
z
" transform="scale(0.015625)"/>
       </defs>
       <use xlink:href="#DejaVuSans-34"/>
      </g>
     </g>
    </g>
    <g id="ytick_4">
     <g id="line2d_8">
      <path d="M 55.1 365.664907 
L 189.504 365.664907 
" clip-path="url(#p83e5e68f58)" style="fill: none; stroke: #b0b0b0; stroke-width: 0.8; stroke-linecap: square"/>
     </g>
     <g id="line2d_9">
      <g>
       <use xlink:href="#maffdc41249" x="55.1" y="365.664907" style="stroke: #000000; stroke-width: 0.8"/>
      </g>
     </g>
     <g id="text_4">
      <!-- 6 -->
      <g transform="translate(40.465 370.22397) scale(0.12 -0.12)">
       <defs>
        <path id="DejaVuSans-36" d="M 2113 2584 
Q 1688 2584 1439 2293 
Q 1191 2003 1191 1497 
Q 1191 994 1439 701 
Q 1688 409 2113 409 
Q 2538 409 2786 701 
Q 3034 994 3034 1497 
Q 3034 2003 2786 2293 
Q 2538 2584 2113 2584 
z
M 3366 4563 
L 3366 3988 
Q 3128 4100 2886 4159 
Q 2644 4219 2406 4219 
Q 1781 4219 1451 3797 
Q 1122 3375 1075 2522 
Q 1259 2794 1537 2939 
Q 1816 3084 2150 3084 
Q 2853 3084 3261 2657 
Q 3669 2231 3669 1497 
Q 3669 778 3244 343 
Q 2819 -91 2113 -91 
Q 1303 -91 875 529 
Q 447 1150 447 2328 
Q 447 3434 972 4092 
Q 1497 4750 2381 4750 
Q 2619 4750 2861 4703 
Q 3103 4656 3366 4563 
z
" transform="scale(0.015625)"/>
       </defs>
       <use xlink:href="#DejaVuSans-36"/>
      </g>
     </g>
    </g>
    <g id="ytick_5">
     <g id="line2d_10">
      <path d="M 55.1 309.381148 
L 189.504 309.381148 
" clip-path="url(#p83e5e68f58)" style="fill: none; stroke: #b0b0b0; stroke-width: 0.8; stroke-linecap: square"/>
     </g>
     <g id="line2d_11">
      <g>
       <use xlink:href="#maffdc41249" x="55.1" y="309.381148" style="stroke: #000000; stroke-width: 0.8"/>
      </g>
     </g>
     <g id="text_5">
      <!-- 8 -->
      <g transform="translate(40.465 313.94021) scale(0.12 -0.12)">
       <defs>
        <path id="DejaVuSans-38" d="M 2034 2216 
Q 1584 2216 1326 1975 
Q 1069 1734 1069 1313 
Q 1069 891 1326 650 
Q 1584 409 2034 409 
Q 2484 409 2743 651 
Q 3003 894 3003 1313 
Q 3003 1734 2745 1975 
Q 2488 2216 2034 2216 
z
M 1403 2484 
Q 997 2584 770 2862 
Q 544 3141 544 3541 
Q 544 4100 942 4425 
Q 1341 4750 2034 4750 
Q 2731 4750 3128 4425 
Q 3525 4100 3525 3541 
Q 3525 3141 3298 2862 
Q 3072 2584 2669 2484 
Q 3125 2378 3379 2068 
Q 3634 1759 3634 1313 
Q 3634 634 3220 271 
Q 2806 -91 2034 -91 
Q 1263 -91 848 271 
Q 434 634 434 1313 
Q 434 1759 690 2068 
Q 947 2378 1403 2484 
z
M 1172 3481 
Q 1172 3119 1398 2916 
Q 1625 2713 2034 2713 
Q 2441 2713 2670 2916 
Q 2900 3119 2900 3481 
Q 2900 3844 2670 4047 
Q 2441 4250 2034 4250 
Q 1625 4250 1398 4047 
Q 1172 3844 1172 3481 
z
" transform="scale(0.015625)"/>
       </defs>
       <use xlink:href="#DejaVuSans-38"/>
      </g>
     </g>
    </g>
    <g id="ytick_6">
     <g id="line2d_12">
      <path d="M 55.1 253.097388 
L 189.504 253.097388 
" clip-path="url(#p83e5e68f58)" style="fill: none; stroke: #b0b0b0; stroke-width: 0.8; stroke-linecap: square"/>
     </g>
     <g id="line2d_13">
      <g>
       <use xlink:href="#maffdc41249" x="55.1" y="253.097388" style="stroke: #000000; stroke-width: 0.8"/>
      </g>
     </g>
     <g id="text_6">
      <!-- 10 -->
      <g transform="translate(32.83 257.656451) scale(0.12 -0.12)">
       <defs>
        <path id="DejaVuSans-31" d="M 794 531 
L 1825 531 
L 1825 4091 
L 703 3866 
L 703 4441 
L 1819 4666 
L 2450 4666 
L 2450 531 
L 3481 531 
L 3481 0 
L 794 0 
L 794 531 
z
" transform="scale(0.015625)"/>
       </defs>
       <use xlink:href="#DejaVuSans-31"/>
       <use xlink:href="#DejaVuSans-30" x="63.623047"/>
      </g>
     </g>
    </g>
    <g id="ytick_7">
     <g id="line2d_14">
      <path d="M 55.1 196.813629 
L 189.504 196.813629 
" clip-path="url(#p83e5e68f58)" style="fill: none; stroke: #b0b0b0; stroke-width: 0.8; stroke-linecap: square"/>
     </g>
     <g id="line2d_15">
      <g>
       <use xlink:href="#maffdc41249" x="55.1" y="196.813629" style="stroke: #000000; stroke-width: 0.8"/>
      </g>
     </g>
     <g id="text_7">
      <!-- 12 -->
      <g transform="translate(32.83 201.372691) scale(0.12 -0.12)">
       <use xlink:href="#DejaVuSans-31"/>
       <use xlink:href="#DejaVuSans-32" x="63.623047"/>
      </g>
     </g>
    </g>
    <g id="ytick_8">
     <g id="line2d_16">
      <path d="M 55.1 140.529869 
L 189.504 140.529869 
" clip-path="url(#p83e5e68f58)" style="fill: none; stroke: #b0b0b0; stroke-width: 0.8; stroke-linecap: square"/>
     </g>
     <g id="line2d_17">
      <g>
       <use xlink:href="#maffdc41249" x="55.1" y="140.529869" style="stroke: #000000; stroke-width: 0.8"/>
      </g>
     </g>
     <g id="text_8">
      <!-- 14 -->
      <g transform="translate(32.83 145.088932) scale(0.12 -0.12)">
       <use xlink:href="#DejaVuSans-31"/>
       <use xlink:href="#DejaVuSans-34" x="63.623047"/>
      </g>
     </g>
    </g>
    <g id="text_9">
     <!-- Phosphate [mM] -->
     <g transform="translate(25.918437 379.397963) rotate(-90) scale(0.14 -0.14)">
      <defs>
       <path id="DejaVuSans-50" d="M 1259 4147 
L 1259 2394 
L 2053 2394 
Q 2494 2394 2734 2622 
Q 2975 2850 2975 3272 
Q 2975 3691 2734 3919 
Q 2494 4147 2053 4147 
L 1259 4147 
z
M 628 4666 
L 2053 4666 
Q 2838 4666 3239 4311 
Q 3641 3956 3641 3272 
Q 3641 2581 3239 2228 
Q 2838 1875 2053 1875 
L 1259 1875 
L 1259 0 
L 628 0 
L 628 4666 
z
" transform="scale(0.015625)"/>
       <path id="DejaVuSans-68" d="M 3513 2113 
L 3513 0 
L 2938 0 
L 2938 2094 
Q 2938 2591 2744 2837 
Q 2550 3084 2163 3084 
Q 1697 3084 1428 2787 
Q 1159 2491 1159 1978 
L 1159 0 
L 581 0 
L 581 4863 
L 1159 4863 
L 1159 2956 
Q 1366 3272 1645 3428 
Q 1925 3584 2291 3584 
Q 2894 3584 3203 3211 
Q 3513 2838 3513 2113 
z
" transform="scale(0.015625)"/>
       <path id="DejaVuSans-6f" d="M 1959 3097 
Q 1497 3097 1228 2736 
Q 959 2375 959 1747 
Q 959 1119 1226 758 
Q 1494 397 1959 397 
Q 2419 397 2687 759 
Q 2956 1122 2956 1747 
Q 2956 2369 2687 2733 
Q 2419 3097 1959 3097 
z
M 1959 3584 
Q 2709 3584 3137 3096 
Q 3566 2609 3566 1747 
Q 3566 888 3137 398 
Q 2709 -91 1959 -91 
Q 1206 -91 779 398 
Q 353 888 353 1747 
Q 353 2609 779 3096 
Q 1206 3584 1959 3584 
z
" transform="scale(0.015625)"/>
       <path id="DejaVuSans-73" d="M 2834 3397 
L 2834 2853 
Q 2591 2978 2328 3040 
Q 2066 3103 1784 3103 
Q 1356 3103 1142 2972 
Q 928 2841 928 2578 
Q 928 2378 1081 2264 
Q 1234 2150 1697 2047 
L 1894 2003 
Q 2506 1872 2764 1633 
Q 3022 1394 3022 966 
Q 3022 478 2636 193 
Q 2250 -91 1575 -91 
Q 1294 -91 989 -36 
Q 684 19 347 128 
L 347 722 
Q 666 556 975 473 
Q 1284 391 1588 391 
Q 1994 391 2212 530 
Q 2431 669 2431 922 
Q 2431 1156 2273 1281 
Q 2116 1406 1581 1522 
L 1381 1569 
Q 847 1681 609 1914 
Q 372 2147 372 2553 
Q 372 3047 722 3315 
Q 1072 3584 1716 3584 
Q 2034 3584 2315 3537 
Q 2597 3491 2834 3397 
z
" transform="scale(0.015625)"/>
       <path id="DejaVuSans-70" d="M 1159 525 
L 1159 -1331 
L 581 -1331 
L 581 3500 
L 1159 3500 
L 1159 2969 
Q 1341 3281 1617 3432 
Q 1894 3584 2278 3584 
Q 2916 3584 3314 3078 
Q 3713 2572 3713 1747 
Q 3713 922 3314 415 
Q 2916 -91 2278 -91 
Q 1894 -91 1617 61 
Q 1341 213 1159 525 
z
M 3116 1747 
Q 3116 2381 2855 2742 
Q 2594 3103 2138 3103 
Q 1681 3103 1420 2742 
Q 1159 2381 1159 1747 
Q 1159 1113 1420 752 
Q 1681 391 2138 391 
Q 2594 391 2855 752 
Q 3116 1113 3116 1747 
z
" transform="scale(0.015625)"/>
       <path id="DejaVuSans-61" d="M 2194 1759 
Q 1497 1759 1228 1600 
Q 959 1441 959 1056 
Q 959 750 1161 570 
Q 1363 391 1709 391 
Q 2188 391 2477 730 
Q 2766 1069 2766 1631 
L 2766 1759 
L 2194 1759 
z
M 3341 1997 
L 3341 0 
L 2766 0 
L 2766 531 
Q 2569 213 2275 61 
Q 1981 -91 1556 -91 
Q 1019 -91 701 211 
Q 384 513 384 1019 
Q 384 1609 779 1909 
Q 1175 2209 1959 2209 
L 2766 2209 
L 2766 2266 
Q 2766 2663 2505 2880 
Q 2244 3097 1772 3097 
Q 1472 3097 1187 3025 
Q 903 2953 641 2809 
L 641 3341 
Q 956 3463 1253 3523 
Q 1550 3584 1831 3584 
Q 2591 3584 2966 3190 
Q 3341 2797 3341 1997 
z
" transform="scale(0.015625)"/>
       <path id="DejaVuSans-74" d="M 1172 4494 
L 1172 3500 
L 2356 3500 
L 2356 3053 
L 1172 3053 
L 1172 1153 
Q 1172 725 1289 603 
Q 1406 481 1766 481 
L 2356 481 
L 2356 0 
L 1766 0 
Q 1100 0 847 248 
Q 594 497 594 1153 
L 594 3053 
L 172 3053 
L 172 3500 
L 594 3500 
L 594 4494 
L 1172 4494 
z
" transform="scale(0.015625)"/>
       <path id="DejaVuSans-65" d="M 3597 1894 
L 3597 1613 
L 953 1613 
Q 991 1019 1311 708 
Q 1631 397 2203 397 
Q 2534 397 2845 478 
Q 3156 559 3463 722 
L 3463 178 
Q 3153 47 2828 -22 
Q 2503 -91 2169 -91 
Q 1331 -91 842 396 
Q 353 884 353 1716 
Q 353 2575 817 3079 
Q 1281 3584 2069 3584 
Q 2775 3584 3186 3129 
Q 3597 2675 3597 1894 
z
M 3022 2063 
Q 3016 2534 2758 2815 
Q 2500 3097 2075 3097 
Q 1594 3097 1305 2825 
Q 1016 2553 972 2059 
L 3022 2063 
z
" transform="scale(0.015625)"/>
       <path id="DejaVuSans-20" transform="scale(0.015625)"/>
       <path id="DejaVuSans-5b" d="M 550 4863 
L 1875 4863 
L 1875 4416 
L 1125 4416 
L 1125 -397 
L 1875 -397 
L 1875 -844 
L 550 -844 
L 550 4863 
z
" transform="scale(0.015625)"/>
       <path id="DejaVuSans-6d" d="M 3328 2828 
Q 3544 3216 3844 3400 
Q 4144 3584 4550 3584 
Q 5097 3584 5394 3201 
Q 5691 2819 5691 2113 
L 5691 0 
L 5113 0 
L 5113 2094 
Q 5113 2597 4934 2840 
Q 4756 3084 4391 3084 
Q 3944 3084 3684 2787 
Q 3425 2491 3425 1978 
L 3425 0 
L 2847 0 
L 2847 2094 
Q 2847 2600 2669 2842 
Q 2491 3084 2119 3084 
Q 1678 3084 1418 2786 
Q 1159 2488 1159 1978 
L 1159 0 
L 581 0 
L 581 3500 
L 1159 3500 
L 1159 2956 
Q 1356 3278 1631 3431 
Q 1906 3584 2284 3584 
Q 2666 3584 2933 3390 
Q 3200 3197 3328 2828 
z
" transform="scale(0.015625)"/>
       <path id="DejaVuSans-4d" d="M 628 4666 
L 1569 4666 
L 2759 1491 
L 3956 4666 
L 4897 4666 
L 4897 0 
L 4281 0 
L 4281 4097 
L 3078 897 
L 2444 897 
L 1241 4097 
L 1241 0 
L 628 0 
L 628 4666 
z
" transform="scale(0.015625)"/>
       <path id="DejaVuSans-5d" d="M 1947 4863 
L 1947 -844 
L 622 -844 
L 622 -397 
L 1369 -397 
L 1369 4416 
L 622 4416 
L 622 4863 
L 1947 4863 
z
" transform="scale(0.015625)"/>
      </defs>
      <use xlink:href="#DejaVuSans-50"/>
      <use xlink:href="#DejaVuSans-68" x="60.302734"/>
      <use xlink:href="#DejaVuSans-6f" x="123.681641"/>
      <use xlink:href="#DejaVuSans-73" x="184.863281"/>
      <use xlink:href="#DejaVuSans-70" x="236.962891"/>
      <use xlink:href="#DejaVuSans-68" x="300.439453"/>
      <use xlink:href="#DejaVuSans-61" x="363.818359"/>
      <use xlink:href="#DejaVuSans-74" x="425.097656"/>
      <use xlink:href="#DejaVuSans-65" x="464.306641"/>
      <use xlink:href="#DejaVuSans-20" x="525.830078"/>
      <use xlink:href="#DejaVuSans-5b" x="557.617188"/>
      <use xlink:href="#DejaVuSans-6d" x="596.630859"/>
      <use xlink:href="#DejaVuSans-4d" x="694.042969"/>
      <use xlink:href="#DejaVuSans-5d" x="780.322266"/>
     </g>
    </g>
   </g>
   <g id="line2d_18">
    <path d="M 122.302 479.076683 
L 122.302 429.828393 
" clip-path="url(#p83e5e68f58)" style="fill: none; stroke: #545454; stroke-width: 1.875; stroke-linecap: square"/>
   </g>
   <g id="line2d_19">
    <path d="M 122.302 475.066465 
L 122.302 456.28176 
" clip-path="url(#p83e5e68f58)" style="fill: none; stroke: #545454; stroke-width: 5.625; stroke-linecap: square"/>
   </g>
   <g id="line2d_20">
    <path d="M 122.302 461.488008 
" clip-path="url(#p83e5e68f58)" style="fill: none; stroke: #545454; stroke-width: 1.5; stroke-linecap: square"/>
    <defs>
     <path id="m98d4bca1cb" d="M 2.34375 0 
L -2.34375 -0 
" style="stroke: #ffffff; stroke-width: 1.125"/>
    </defs>
    <g clip-path="url(#p83e5e68f58)">
     <use xlink:href="#m98d4bca1cb" x="122.302" y="461.488008" style="fill: #ffffff; stroke: #ffffff; stroke-width: 1.125"/>
    </g>
   </g>
   <g id="line2d_21">
    <path d="M 55.1 478.232427 
L 189.504 478.232427 
" clip-path="url(#p83e5e68f58)" style="fill: none; stroke-dasharray: 7.4,3.2; stroke-dashoffset: 0; stroke: #ff0000; stroke-width: 2"/>
   </g>
   <g id="line2d_22">
    <path d="M 55.1 112.38799 
L 189.504 112.38799 
" clip-path="url(#p83e5e68f58)" style="fill: none; stroke-dasharray: 7.4,3.2; stroke-dashoffset: 0; stroke: #0000ff; stroke-width: 2"/>
   </g>
   <g id="patch_3">
    <path d="M 55.1 554.569988 
L 55.1 89.52 
" style="fill: none; stroke: #000000; stroke-width: 0.8; stroke-linejoin: miter; stroke-linecap: square"/>
   </g>
   <g id="patch_4">
    <path d="M 189.504 554.569988 
L 189.504 89.52 
" style="fill: none; stroke: #000000; stroke-width: 0.8; stroke-linejoin: miter; stroke-linecap: square"/>
   </g>
   <g id="patch_5">
    <path d="M 55.1 554.569988 
L 189.504 554.569988 
" style="fill: none; stroke: #000000; stroke-width: 0.8; stroke-linejoin: miter; stroke-linecap: square"/>
   </g>
   <g id="patch_6">
    <path d="M 55.1 89.52 
L 189.504 89.52 
" style="fill: none; stroke: #000000; stroke-width: 0.8; stroke-linejoin: miter; stroke-linecap: square"/>
   </g>
   <g id="text_10">
    <!-- Phosphate [mM] -->
    <g transform="translate(69.045672 83.52) scale(0.13 -0.13)">
     <use xlink:href="#DejaVuSans-50"/>
     <use xlink:href="#DejaVuSans-68" x="60.302734"/>
     <use xlink:href="#DejaVuSans-6f" x="123.681641"/>
     <use xlink:href="#DejaVuSans-73" x="184.863281"/>
     <use xlink:href="#DejaVuSans-70" x="236.962891"/>
     <use xlink:href="#DejaVuSans-68" x="300.439453"/>
     <use xlink:href="#DejaVuSans-61" x="363.818359"/>
     <use xlink:href="#DejaVuSans-74" x="425.097656"/>
     <use xlink:href="#DejaVuSans-65" x="464.306641"/>
     <use xlink:href="#DejaVuSans-20" x="525.830078"/>
     <use xlink:href="#DejaVuSans-5b" x="557.617188"/>
     <use xlink:href="#DejaVuSans-6d" x="596.630859"/>
     <use xlink:href="#DejaVuSans-4d" x="694.042969"/>
     <use xlink:href="#DejaVuSans-5d" x="780.322266"/>
    </g>
   </g>
  </g>
  <g id="axes_2">
   <g id="patch_7">
    <path d="M 255.944 554.569988 
L 390.348 554.569988 
L 390.348 89.52 
L 255.944 89.52 
z
" style="fill: #ffffff"/>
   </g>
   <g id="PolyCollection_2">
    <defs>
     <path id="m018032a7a5" d="M 323.492494 -42.568648 
L 322.799506 -42.568648 
L 322.667406 -46.418739 
L 322.498514 -50.268831 
L 322.287525 -54.118922 
L 322.029805 -57.969013 
L 321.72173 -61.819104 
L 321.360918 -65.669196 
L 320.94627 -69.519287 
L 320.477753 -73.369378 
L 319.955894 -77.21947 
L 319.380947 -81.069561 
L 318.751769 -84.919652 
L 318.064464 -88.769743 
L 317.31091 -92.619835 
L 316.477329 -96.469926 
L 315.543115 -100.320017 
L 314.480182 -104.170108 
L 313.253126 -108.0202 
L 311.820482 -111.870291 
L 310.137335 -115.720382 
L 308.159395 -119.570473 
L 305.848505 -123.420565 
L 303.179264 -127.270656 
L 300.146191 -131.120747 
L 296.770574 -134.970839 
L 293.105956 -138.82093 
L 289.241141 -142.671021 
L 285.299741 -146.521112 
L 281.435584 -150.371204 
L 277.823856 -154.221295 
L 274.648455 -158.071386 
L 272.08671 -161.921477 
L 270.293158 -165.771569 
L 269.3844 -169.62166 
L 269.427089 -173.471751 
L 270.430725 -177.321843 
L 272.346343 -181.171934 
L 275.071306 -185.022025 
L 278.459518 -188.872116 
L 282.335617 -192.722208 
L 286.511155 -196.572299 
L 290.80063 -200.42239 
L 295.035395 -204.272481 
L 299.074017 -208.122573 
L 302.808281 -211.972664 
L 306.164852 -215.822755 
L 309.103159 -219.672846 
L 311.61059 -223.522938 
L 313.696226 -227.373029 
L 315.38432 -231.22312 
L 316.708479 -235.073212 
L 317.707161 -238.923303 
L 318.420695 -242.773394 
L 318.889725 -246.623485 
L 319.154693 -250.473577 
L 319.255897 -254.323668 
L 319.233626 -258.173759 
L 319.127982 -262.02385 
L 318.978176 -265.873942 
L 318.821239 -269.724033 
L 318.690322 -273.574124 
L 318.612828 -277.424215 
L 318.608739 -281.274307 
L 318.689448 -285.124398 
L 318.857345 -288.974489 
L 319.106258 -292.824581 
L 319.422717 -296.674672 
L 319.787843 -300.524763 
L 320.179609 -304.374854 
L 320.575137 -308.224946 
L 320.952768 -312.075037 
L 321.293686 -315.925128 
L 321.582997 -319.775219 
L 321.810269 -323.625311 
L 321.969624 -327.475402 
L 322.059514 -331.325493 
L 322.082325 -335.175584 
L 322.043912 -339.025676 
L 321.953132 -342.875767 
L 321.821352 -346.725858 
L 321.661916 -350.57595 
L 321.48949 -354.426041 
L 321.319267 -358.276132 
L 321.166021 -362.126223 
L 321.043065 -365.976315 
L 320.961229 -369.826406 
L 320.927981 -373.676497 
L 320.946836 -377.526588 
L 321.017152 -381.37668 
L 321.134369 -385.226771 
L 321.290654 -389.076862 
L 321.47587 -392.926954 
L 321.678729 -396.777045 
L 321.887951 -400.627136 
L 322.093293 -404.477227 
L 322.286317 -408.327319 
L 322.460847 -412.17741 
L 322.613088 -416.027501 
L 322.741479 -419.877592 
L 322.846329 -423.727684 
L 323.445671 -423.727684 
L 323.445671 -423.727684 
L 323.550521 -419.877592 
L 323.678912 -416.027501 
L 323.831153 -412.17741 
L 324.005683 -408.327319 
L 324.198707 -404.477227 
L 324.404049 -400.627136 
L 324.613271 -396.777045 
L 324.81613 -392.926954 
L 325.001346 -389.076862 
L 325.157631 -385.226771 
L 325.274848 -381.37668 
L 325.345164 -377.526588 
L 325.364019 -373.676497 
L 325.330771 -369.826406 
L 325.248935 -365.976315 
L 325.125979 -362.126223 
L 324.972733 -358.276132 
L 324.80251 -354.426041 
L 324.630084 -350.57595 
L 324.470648 -346.725858 
L 324.338868 -342.875767 
L 324.248088 -339.025676 
L 324.209675 -335.175584 
L 324.232486 -331.325493 
L 324.322376 -327.475402 
L 324.481731 -323.625311 
L 324.709003 -319.775219 
L 324.998314 -315.925128 
L 325.339232 -312.075037 
L 325.716863 -308.224946 
L 326.112391 -304.374854 
L 326.504157 -300.524763 
L 326.869283 -296.674672 
L 327.185742 -292.824581 
L 327.434655 -288.974489 
L 327.602552 -285.124398 
L 327.683261 -281.274307 
L 327.679172 -277.424215 
L 327.601678 -273.574124 
L 327.470761 -269.724033 
L 327.313824 -265.873942 
L 327.164018 -262.02385 
L 327.058374 -258.173759 
L 327.036103 -254.323668 
L 327.137307 -250.473577 
L 327.402275 -246.623485 
L 327.871305 -242.773394 
L 328.584839 -238.923303 
L 329.583521 -235.073212 
L 330.90768 -231.22312 
L 332.595774 -227.373029 
L 334.68141 -223.522938 
L 337.188841 -219.672846 
L 340.127148 -215.822755 
L 343.483719 -211.972664 
L 347.217983 -208.122573 
L 351.256605 -204.272481 
L 355.49137 -200.42239 
L 359.780845 -196.572299 
L 363.956383 -192.722208 
L 367.832482 -188.872116 
L 371.220694 -185.022025 
L 373.945657 -181.171934 
L 375.861275 -177.321843 
L 376.864911 -173.471751 
L 376.9076 -169.62166 
L 375.998842 -165.771569 
L 374.20529 -161.921477 
L 371.643545 -158.071386 
L 368.468144 -154.221295 
L 364.856416 -150.371204 
L 360.992259 -146.521112 
L 357.050859 -142.671021 
L 353.186044 -138.82093 
L 349.521426 -134.970839 
L 346.145809 -131.120747 
L 343.112736 -127.270656 
L 340.443495 -123.420565 
L 338.132605 -119.570473 
L 336.154665 -115.720382 
L 334.471518 -111.870291 
L 333.038874 -108.0202 
L 331.811818 -104.170108 
L 330.748885 -100.320017 
L 329.814671 -96.469926 
L 328.98109 -92.619835 
L 328.227536 -88.769743 
L 327.540231 -84.919652 
L 326.911053 -81.069561 
L 326.336106 -77.21947 
L 325.814247 -73.369378 
L 325.34573 -69.519287 
L 324.931082 -65.669196 
L 324.57027 -61.819104 
L 324.262195 -57.969013 
L 324.004475 -54.118922 
L 323.793486 -50.268831 
L 323.624594 -46.418739 
L 323.492494 -42.568648 
z
" style="stroke: #545454; stroke-width: 1.25"/>
    </defs>
    <g clip-path="url(#p45874660b7)">
     <use xlink:href="#m018032a7a5" x="0" y="576" style="fill: #597dbf; stroke: #545454; stroke-width: 1.25"/>
    </g>
   </g>
   <g id="matplotlib.axis_3">
    <g id="xtick_2">
     <g id="line2d_23">
      <g>
       <use xlink:href="#mbeae413935" x="323.146" y="554.569988" style="stroke: #000000; stroke-width: 0.8"/>
      </g>
     </g>
    </g>
   </g>
   <g id="matplotlib.axis_4">
    <g id="ytick_9">
     <g id="line2d_24">
      <path d="M 255.944 552.881846 
L 390.348 552.881846 
" clip-path="url(#p45874660b7)" style="fill: none; stroke: #b0b0b0; stroke-width: 0.8; stroke-linecap: square"/>
     </g>
     <g id="line2d_25">
      <g>
       <use xlink:href="#maffdc41249" x="255.944" y="552.881846" style="stroke: #000000; stroke-width: 0.8"/>
      </g>
     </g>
     <g id="text_11">
      <!-- −20 -->
      <g transform="translate(223.618375 557.440908) scale(0.12 -0.12)">
       <defs>
        <path id="DejaVuSans-2212" d="M 678 2272 
L 4684 2272 
L 4684 1741 
L 678 1741 
L 678 2272 
z
" transform="scale(0.015625)"/>
       </defs>
       <use xlink:href="#DejaVuSans-2212"/>
       <use xlink:href="#DejaVuSans-32" x="83.789062"/>
       <use xlink:href="#DejaVuSans-30" x="147.412109"/>
      </g>
     </g>
    </g>
    <g id="ytick_10">
     <g id="line2d_26">
      <path d="M 255.944 500.855586 
L 390.348 500.855586 
" clip-path="url(#p45874660b7)" style="fill: none; stroke: #b0b0b0; stroke-width: 0.8; stroke-linecap: square"/>
     </g>
     <g id="line2d_27">
      <g>
       <use xlink:href="#maffdc41249" x="255.944" y="500.855586" style="stroke: #000000; stroke-width: 0.8"/>
      </g>
     </g>
     <g id="text_12">
      <!-- 0 -->
      <g transform="translate(241.309 505.414648) scale(0.12 -0.12)">
       <use xlink:href="#DejaVuSans-30"/>
      </g>
     </g>
    </g>
    <g id="ytick_11">
     <g id="line2d_28">
      <path d="M 255.944 448.829326 
L 390.348 448.829326 
" clip-path="url(#p45874660b7)" style="fill: none; stroke: #b0b0b0; stroke-width: 0.8; stroke-linecap: square"/>
     </g>
     <g id="line2d_29">
      <g>
       <use xlink:href="#maffdc41249" x="255.944" y="448.829326" style="stroke: #000000; stroke-width: 0.8"/>
      </g>
     </g>
     <g id="text_13">
      <!-- 20 -->
      <g transform="translate(233.674 453.388388) scale(0.12 -0.12)">
       <use xlink:href="#DejaVuSans-32"/>
       <use xlink:href="#DejaVuSans-30" x="63.623047"/>
      </g>
     </g>
    </g>
    <g id="ytick_12">
     <g id="line2d_30">
      <path d="M 255.944 396.803066 
L 390.348 396.803066 
" clip-path="url(#p45874660b7)" style="fill: none; stroke: #b0b0b0; stroke-width: 0.8; stroke-linecap: square"/>
     </g>
     <g id="line2d_31">
      <g>
       <use xlink:href="#maffdc41249" x="255.944" y="396.803066" style="stroke: #000000; stroke-width: 0.8"/>
      </g>
     </g>
     <g id="text_14">
      <!-- 40 -->
      <g transform="translate(233.674 401.362128) scale(0.12 -0.12)">
       <use xlink:href="#DejaVuSans-34"/>
       <use xlink:href="#DejaVuSans-30" x="63.623047"/>
      </g>
     </g>
    </g>
    <g id="ytick_13">
     <g id="line2d_32">
      <path d="M 255.944 344.776806 
L 390.348 344.776806 
" clip-path="url(#p45874660b7)" style="fill: none; stroke: #b0b0b0; stroke-width: 0.8; stroke-linecap: square"/>
     </g>
     <g id="line2d_33">
      <g>
       <use xlink:href="#maffdc41249" x="255.944" y="344.776806" style="stroke: #000000; stroke-width: 0.8"/>
      </g>
     </g>
     <g id="text_15">
      <!-- 60 -->
      <g transform="translate(233.674 349.335868) scale(0.12 -0.12)">
       <use xlink:href="#DejaVuSans-36"/>
       <use xlink:href="#DejaVuSans-30" x="63.623047"/>
      </g>
     </g>
    </g>
    <g id="ytick_14">
     <g id="line2d_34">
      <path d="M 255.944 292.750546 
L 390.348 292.750546 
" clip-path="url(#p45874660b7)" style="fill: none; stroke: #b0b0b0; stroke-width: 0.8; stroke-linecap: square"/>
     </g>
     <g id="line2d_35">
      <g>
       <use xlink:href="#maffdc41249" x="255.944" y="292.750546" style="stroke: #000000; stroke-width: 0.8"/>
      </g>
     </g>
     <g id="text_16">
      <!-- 80 -->
      <g transform="translate(233.674 297.309608) scale(0.12 -0.12)">
       <use xlink:href="#DejaVuSans-38"/>
       <use xlink:href="#DejaVuSans-30" x="63.623047"/>
      </g>
     </g>
    </g>
    <g id="ytick_15">
     <g id="line2d_36">
      <path d="M 255.944 240.724286 
L 390.348 240.724286 
" clip-path="url(#p45874660b7)" style="fill: none; stroke: #b0b0b0; stroke-width: 0.8; stroke-linecap: square"/>
     </g>
     <g id="line2d_37">
      <g>
       <use xlink:href="#maffdc41249" x="255.944" y="240.724286" style="stroke: #000000; stroke-width: 0.8"/>
      </g>
     </g>
     <g id="text_17">
      <!-- 100 -->
      <g transform="translate(226.039 245.283348) scale(0.12 -0.12)">
       <use xlink:href="#DejaVuSans-31"/>
       <use xlink:href="#DejaVuSans-30" x="63.623047"/>
       <use xlink:href="#DejaVuSans-30" x="127.246094"/>
      </g>
     </g>
    </g>
    <g id="ytick_16">
     <g id="line2d_38">
      <path d="M 255.944 188.698026 
L 390.348 188.698026 
" clip-path="url(#p45874660b7)" style="fill: none; stroke: #b0b0b0; stroke-width: 0.8; stroke-linecap: square"/>
     </g>
     <g id="line2d_39">
      <g>
       <use xlink:href="#maffdc41249" x="255.944" y="188.698026" style="stroke: #000000; stroke-width: 0.8"/>
      </g>
     </g>
     <g id="text_18">
      <!-- 120 -->
      <g transform="translate(226.039 193.257088) scale(0.12 -0.12)">
       <use xlink:href="#DejaVuSans-31"/>
       <use xlink:href="#DejaVuSans-32" x="63.623047"/>
       <use xlink:href="#DejaVuSans-30" x="127.246094"/>
      </g>
     </g>
    </g>
    <g id="ytick_17">
     <g id="line2d_40">
      <path d="M 255.944 136.671766 
L 390.348 136.671766 
" clip-path="url(#p45874660b7)" style="fill: none; stroke: #b0b0b0; stroke-width: 0.8; stroke-linecap: square"/>
     </g>
     <g id="line2d_41">
      <g>
       <use xlink:href="#maffdc41249" x="255.944" y="136.671766" style="stroke: #000000; stroke-width: 0.8"/>
      </g>
     </g>
     <g id="text_19">
      <!-- 140 -->
      <g transform="translate(226.039 141.230828) scale(0.12 -0.12)">
       <use xlink:href="#DejaVuSans-31"/>
       <use xlink:href="#DejaVuSans-34" x="63.623047"/>
       <use xlink:href="#DejaVuSans-30" x="127.246094"/>
      </g>
     </g>
    </g>
    <g id="text_20">
     <!-- Nitrate [mM] -->
     <g transform="translate(216.706812 366.734525) rotate(-90) scale(0.14 -0.14)">
      <defs>
       <path id="DejaVuSans-4e" d="M 628 4666 
L 1478 4666 
L 3547 763 
L 3547 4666 
L 4159 4666 
L 4159 0 
L 3309 0 
L 1241 3903 
L 1241 0 
L 628 0 
L 628 4666 
z
" transform="scale(0.015625)"/>
       <path id="DejaVuSans-69" d="M 603 3500 
L 1178 3500 
L 1178 0 
L 603 0 
L 603 3500 
z
M 603 4863 
L 1178 4863 
L 1178 4134 
L 603 4134 
L 603 4863 
z
" transform="scale(0.015625)"/>
       <path id="DejaVuSans-72" d="M 2631 2963 
Q 2534 3019 2420 3045 
Q 2306 3072 2169 3072 
Q 1681 3072 1420 2755 
Q 1159 2438 1159 1844 
L 1159 0 
L 581 0 
L 581 3500 
L 1159 3500 
L 1159 2956 
Q 1341 3275 1631 3429 
Q 1922 3584 2338 3584 
Q 2397 3584 2469 3576 
Q 2541 3569 2628 3553 
L 2631 2963 
z
" transform="scale(0.015625)"/>
      </defs>
      <use xlink:href="#DejaVuSans-4e"/>
      <use xlink:href="#DejaVuSans-69" x="74.804688"/>
      <use xlink:href="#DejaVuSans-74" x="102.587891"/>
      <use xlink:href="#DejaVuSans-72" x="141.796875"/>
      <use xlink:href="#DejaVuSans-61" x="182.910156"/>
      <use xlink:href="#DejaVuSans-74" x="244.189453"/>
      <use xlink:href="#DejaVuSans-65" x="283.398438"/>
      <use xlink:href="#DejaVuSans-20" x="344.921875"/>
      <use xlink:href="#DejaVuSans-5b" x="376.708984"/>
      <use xlink:href="#DejaVuSans-6d" x="415.722656"/>
      <use xlink:href="#DejaVuSans-4d" x="513.134766"/>
      <use xlink:href="#DejaVuSans-5d" x="599.414062"/>
     </g>
    </g>
   </g>
   <g id="line2d_42">
    <path d="M 323.146 424.975285 
L 323.146 372.662881 
" clip-path="url(#p45874660b7)" style="fill: none; stroke: #545454; stroke-width: 1.875; stroke-linecap: square"/>
   </g>
   <g id="line2d_43">
    <path d="M 323.146 411.942707 
L 323.146 395.697508 
" clip-path="url(#p45874660b7)" style="fill: none; stroke: #545454; stroke-width: 5.625; stroke-linecap: square"/>
   </g>
   <g id="line2d_44">
    <path d="M 323.146 401.472423 
" clip-path="url(#p45874660b7)" style="fill: none; stroke: #545454; stroke-width: 1.5; stroke-linecap: square"/>
    <g clip-path="url(#p45874660b7)">
     <use xlink:href="#m98d4bca1cb" x="323.146" y="401.472423" style="fill: #ffffff; stroke: #ffffff; stroke-width: 1.125"/>
    </g>
   </g>
   <g id="line2d_45">
    <path d="M 255.944 487.849021 
L 390.348 487.849021 
" clip-path="url(#p45874660b7)" style="fill: none; stroke-dasharray: 7.4,3.2; stroke-dashoffset: 0; stroke: #ff0000; stroke-width: 2"/>
   </g>
   <g id="line2d_46">
    <path d="M 255.944 110.658636 
L 390.348 110.658636 
" clip-path="url(#p45874660b7)" style="fill: none; stroke-dasharray: 7.4,3.2; stroke-dashoffset: 0; stroke: #0000ff; stroke-width: 2"/>
   </g>
   <g id="patch_8">
    <path d="M 255.944 554.569988 
L 255.944 89.52 
" style="fill: none; stroke: #000000; stroke-width: 0.8; stroke-linejoin: miter; stroke-linecap: square"/>
   </g>
   <g id="patch_9">
    <path d="M 390.348 554.569988 
L 390.348 89.52 
" style="fill: none; stroke: #000000; stroke-width: 0.8; stroke-linejoin: miter; stroke-linecap: square"/>
   </g>
   <g id="patch_10">
    <path d="M 255.944 554.569988 
L 390.348 554.569988 
" style="fill: none; stroke: #000000; stroke-width: 0.8; stroke-linejoin: miter; stroke-linecap: square"/>
   </g>
   <g id="patch_11">
    <path d="M 255.944 89.52 
L 390.348 89.52 
" style="fill: none; stroke: #000000; stroke-width: 0.8; stroke-linejoin: miter; stroke-linecap: square"/>
   </g>
   <g id="text_21">
    <!-- Nitrate [mM] -->
    <g transform="translate(281.648578 83.52) scale(0.13 -0.13)">
     <use xlink:href="#DejaVuSans-4e"/>
     <use xlink:href="#DejaVuSans-69" x="74.804688"/>
     <use xlink:href="#DejaVuSans-74" x="102.587891"/>
     <use xlink:href="#DejaVuSans-72" x="141.796875"/>
     <use xlink:href="#DejaVuSans-61" x="182.910156"/>
     <use xlink:href="#DejaVuSans-74" x="244.189453"/>
     <use xlink:href="#DejaVuSans-65" x="283.398438"/>
     <use xlink:href="#DejaVuSans-20" x="344.921875"/>
     <use xlink:href="#DejaVuSans-5b" x="376.708984"/>
     <use xlink:href="#DejaVuSans-6d" x="415.722656"/>
     <use xlink:href="#DejaVuSans-4d" x="513.134766"/>
     <use xlink:href="#DejaVuSans-5d" x="599.414062"/>
    </g>
   </g>
  </g>
  <g id="axes_3">
   <g id="patch_12">
    <path d="M 456.788 554.569988 
L 591.192 554.569988 
L 591.192 89.52 
L 456.788 89.52 
z
" style="fill: #ffffff"/>
   </g>
   <g id="PolyCollection_3">
    <defs>
     <path id="ma1d4956dbd" d="M 528.323297 -42.568648 
L 519.656703 -42.568648 
L 518.349952 -46.83908 
L 516.77419 -51.109511 
L 514.914565 -55.379943 
L 512.767734 -59.650374 
L 510.344633 -63.920806 
L 507.672442 -68.191237 
L 504.795353 -72.461668 
L 501.773791 -76.7321 
L 498.681899 -81.002531 
L 495.60328 -85.272963 
L 492.625216 -89.543394 
L 489.831853 -93.813826 
L 487.29698 -98.084257 
L 485.077223 -102.354689 
L 483.206465 -106.62512 
L 481.692252 -110.895552 
L 480.514744 -115.165983 
L 479.628524 -119.436415 
L 478.967225 -123.706846 
L 478.450616 -127.977278 
L 477.993474 -132.247709 
L 477.51533 -136.518141 
L 476.950046 -140.788572 
L 476.254153 -145.059004 
L 475.412986 -149.329435 
L 474.443885 -153.599867 
L 473.396012 -157.870298 
L 472.346716 -162.140729 
L 471.394778 -166.411161 
L 470.651182 -170.681592 
L 470.2284 -174.952024 
L 470.229316 -179.222455 
L 470.736973 -183.492887 
L 471.806247 -187.763318 
L 473.458276 -192.03375 
L 475.678187 -196.304181 
L 478.416239 -200.574613 
L 481.592103 -204.845044 
L 485.101677 -209.115476 
L 488.825579 -213.385907 
L 492.638327 -217.656339 
L 496.417266 -221.92677 
L 500.050397 -226.197202 
L 503.44252 -230.467633 
L 506.519347 -234.738065 
L 509.229525 -239.008496 
L 511.544732 -243.278927 
L 513.45818 -247.549359 
L 514.981943 -251.81979 
L 516.143562 -256.090222 
L 516.982312 -260.360653 
L 517.545474 -264.631085 
L 517.884815 -268.901516 
L 518.053441 -273.171948 
L 518.103077 -277.442379 
L 518.081803 -281.712811 
L 518.032242 -285.983242 
L 517.990196 -290.253674 
L 517.983729 -294.524105 
L 518.032685 -298.794537 
L 518.148654 -303.064968 
L 518.335355 -307.3354 
L 518.589422 -311.605831 
L 518.901509 -315.876263 
L 519.257662 -320.146694 
L 519.640833 -324.417126 
L 520.032446 -328.687557 
L 520.4139 -332.957988 
L 520.767915 -337.22842 
L 521.079663 -341.498851 
L 521.337625 -345.769283 
L 521.534156 -350.039714 
L 521.665767 -354.310146 
L 521.733128 -358.580577 
L 521.740827 -362.851009 
L 521.696914 -367.12144 
L 521.612261 -371.391872 
L 521.499782 -375.662303 
L 521.373545 -379.932735 
L 521.247844 -384.203166 
L 521.13626 -388.473598 
L 521.050801 -392.744029 
L 521.001157 -397.014461 
L 520.994149 -401.284892 
L 521.033409 -405.555324 
L 521.119306 -409.825755 
L 521.249143 -414.096186 
L 521.417575 -418.366618 
L 521.617216 -422.637049 
L 521.839359 -426.907481 
L 522.074734 -431.177912 
L 522.314235 -435.448344 
L 522.549539 -439.718775 
L 522.773587 -443.989207 
L 522.980877 -448.259638 
L 523.167596 -452.53007 
L 523.331584 -456.800501 
L 523.47217 -461.070933 
L 523.589922 -465.341364 
L 524.390078 -465.341364 
L 524.390078 -465.341364 
L 524.50783 -461.070933 
L 524.648416 -456.800501 
L 524.812404 -452.53007 
L 524.999123 -448.259638 
L 525.206413 -443.989207 
L 525.430461 -439.718775 
L 525.665765 -435.448344 
L 525.905266 -431.177912 
L 526.140641 -426.907481 
L 526.362784 -422.637049 
L 526.562425 -418.366618 
L 526.730857 -414.096186 
L 526.860694 -409.825755 
L 526.946591 -405.555324 
L 526.985851 -401.284892 
L 526.978843 -397.014461 
L 526.929199 -392.744029 
L 526.84374 -388.473598 
L 526.732156 -384.203166 
L 526.606455 -379.932735 
L 526.480218 -375.662303 
L 526.367739 -371.391872 
L 526.283086 -367.12144 
L 526.239173 -362.851009 
L 526.246872 -358.580577 
L 526.314233 -354.310146 
L 526.445844 -350.039714 
L 526.642375 -345.769283 
L 526.900337 -341.498851 
L 527.212085 -337.22842 
L 527.5661 -332.957988 
L 527.947554 -328.687557 
L 528.339167 -324.417126 
L 528.722338 -320.146694 
L 529.078491 -315.876263 
L 529.390578 -311.605831 
L 529.644645 -307.3354 
L 529.831346 -303.064968 
L 529.947315 -298.794537 
L 529.996271 -294.524105 
L 529.989804 -290.253674 
L 529.947758 -285.983242 
L 529.898197 -281.712811 
L 529.876923 -277.442379 
L 529.926559 -273.171948 
L 530.095185 -268.901516 
L 530.434526 -264.631085 
L 530.997688 -260.360653 
L 531.836438 -256.090222 
L 532.998057 -251.81979 
L 534.52182 -247.549359 
L 536.435268 -243.278927 
L 538.750475 -239.008496 
L 541.460653 -234.738065 
L 544.53748 -230.467633 
L 547.929603 -226.197202 
L 551.562734 -221.92677 
L 555.341673 -217.656339 
L 559.154421 -213.385907 
L 562.878323 -209.115476 
L 566.387897 -204.845044 
L 569.563761 -200.574613 
L 572.301813 -196.304181 
L 574.521724 -192.03375 
L 576.173753 -187.763318 
L 577.243027 -183.492887 
L 577.750684 -179.222455 
L 577.7516 -174.952024 
L 577.328818 -170.681592 
L 576.585222 -166.411161 
L 575.633284 -162.140729 
L 574.583988 -157.870298 
L 573.536115 -153.599867 
L 572.567014 -149.329435 
L 571.725847 -145.059004 
L 571.029954 -140.788572 
L 570.46467 -136.518141 
L 569.986526 -132.247709 
L 569.529384 -127.977278 
L 569.012775 -123.706846 
L 568.351476 -119.436415 
L 567.465256 -115.165983 
L 566.287748 -110.895552 
L 564.773535 -106.62512 
L 562.902777 -102.354689 
L 560.68302 -98.084257 
L 558.148147 -93.813826 
L 555.354784 -89.543394 
L 552.37672 -85.272963 
L 549.298101 -81.002531 
L 546.206209 -76.7321 
L 543.184647 -72.461668 
L 540.307558 -68.191237 
L 537.635367 -63.920806 
L 535.212266 -59.650374 
L 533.065435 -55.379943 
L 531.20581 -51.109511 
L 529.630048 -46.83908 
L 528.323297 -42.568648 
z
" style="stroke: #545454; stroke-width: 1.25"/>
    </defs>
    <g clip-path="url(#pb70e5db463)">
     <use xlink:href="#ma1d4956dbd" x="0" y="576" style="fill: #597dbf; stroke: #545454; stroke-width: 1.25"/>
    </g>
   </g>
   <g id="matplotlib.axis_5">
    <g id="xtick_3">
     <g id="line2d_47">
      <g>
       <use xlink:href="#mbeae413935" x="523.99" y="554.569988" style="stroke: #000000; stroke-width: 0.8"/>
      </g>
     </g>
    </g>
   </g>
   <g id="matplotlib.axis_6">
    <g id="ytick_18">
     <g id="line2d_48">
      <path d="M 456.788 550.910871 
L 591.192 550.910871 
" clip-path="url(#pb70e5db463)" style="fill: none; stroke: #b0b0b0; stroke-width: 0.8; stroke-linecap: square"/>
     </g>
     <g id="line2d_49">
      <g>
       <use xlink:href="#maffdc41249" x="456.788" y="550.910871" style="stroke: #000000; stroke-width: 0.8"/>
      </g>
     </g>
     <g id="text_22">
      <!-- −10 -->
      <g transform="translate(424.462375 555.469933) scale(0.12 -0.12)">
       <use xlink:href="#DejaVuSans-2212"/>
       <use xlink:href="#DejaVuSans-31" x="83.789062"/>
       <use xlink:href="#DejaVuSans-30" x="147.412109"/>
      </g>
     </g>
    </g>
    <g id="ytick_19">
     <g id="line2d_50">
      <path d="M 456.788 496.58714 
L 591.192 496.58714 
" clip-path="url(#pb70e5db463)" style="fill: none; stroke: #b0b0b0; stroke-width: 0.8; stroke-linecap: square"/>
     </g>
     <g id="line2d_51">
      <g>
       <use xlink:href="#maffdc41249" x="456.788" y="496.58714" style="stroke: #000000; stroke-width: 0.8"/>
      </g>
     </g>
     <g id="text_23">
      <!-- 0 -->
      <g transform="translate(442.153 501.146203) scale(0.12 -0.12)">
       <use xlink:href="#DejaVuSans-30"/>
      </g>
     </g>
    </g>
    <g id="ytick_20">
     <g id="line2d_52">
      <path d="M 456.788 442.26341 
L 591.192 442.26341 
" clip-path="url(#pb70e5db463)" style="fill: none; stroke: #b0b0b0; stroke-width: 0.8; stroke-linecap: square"/>
     </g>
     <g id="line2d_53">
      <g>
       <use xlink:href="#maffdc41249" x="456.788" y="442.26341" style="stroke: #000000; stroke-width: 0.8"/>
      </g>
     </g>
     <g id="text_24">
      <!-- 10 -->
      <g transform="translate(434.518 446.822472) scale(0.12 -0.12)">
       <use xlink:href="#DejaVuSans-31"/>
       <use xlink:href="#DejaVuSans-30" x="63.623047"/>
      </g>
     </g>
    </g>
    <g id="ytick_21">
     <g id="line2d_54">
      <path d="M 456.788 387.939679 
L 591.192 387.939679 
" clip-path="url(#pb70e5db463)" style="fill: none; stroke: #b0b0b0; stroke-width: 0.8; stroke-linecap: square"/>
     </g>
     <g id="line2d_55">
      <g>
       <use xlink:href="#maffdc41249" x="456.788" y="387.939679" style="stroke: #000000; stroke-width: 0.8"/>
      </g>
     </g>
     <g id="text_25">
      <!-- 20 -->
      <g transform="translate(434.518 392.498741) scale(0.12 -0.12)">
       <use xlink:href="#DejaVuSans-32"/>
       <use xlink:href="#DejaVuSans-30" x="63.623047"/>
      </g>
     </g>
    </g>
    <g id="ytick_22">
     <g id="line2d_56">
      <path d="M 456.788 333.615948 
L 591.192 333.615948 
" clip-path="url(#pb70e5db463)" style="fill: none; stroke: #b0b0b0; stroke-width: 0.8; stroke-linecap: square"/>
     </g>
     <g id="line2d_57">
      <g>
       <use xlink:href="#maffdc41249" x="456.788" y="333.615948" style="stroke: #000000; stroke-width: 0.8"/>
      </g>
     </g>
     <g id="text_26">
      <!-- 30 -->
      <g transform="translate(434.518 338.175011) scale(0.12 -0.12)">
       <defs>
        <path id="DejaVuSans-33" d="M 2597 2516 
Q 3050 2419 3304 2112 
Q 3559 1806 3559 1356 
Q 3559 666 3084 287 
Q 2609 -91 1734 -91 
Q 1441 -91 1130 -33 
Q 819 25 488 141 
L 488 750 
Q 750 597 1062 519 
Q 1375 441 1716 441 
Q 2309 441 2620 675 
Q 2931 909 2931 1356 
Q 2931 1769 2642 2001 
Q 2353 2234 1838 2234 
L 1294 2234 
L 1294 2753 
L 1863 2753 
Q 2328 2753 2575 2939 
Q 2822 3125 2822 3475 
Q 2822 3834 2567 4026 
Q 2313 4219 1838 4219 
Q 1578 4219 1281 4162 
Q 984 4106 628 3988 
L 628 4550 
Q 988 4650 1302 4700 
Q 1616 4750 1894 4750 
Q 2613 4750 3031 4423 
Q 3450 4097 3450 3541 
Q 3450 3153 3228 2886 
Q 3006 2619 2597 2516 
z
" transform="scale(0.015625)"/>
       </defs>
       <use xlink:href="#DejaVuSans-33"/>
       <use xlink:href="#DejaVuSans-30" x="63.623047"/>
      </g>
     </g>
    </g>
    <g id="ytick_23">
     <g id="line2d_58">
      <path d="M 456.788 279.292218 
L 591.192 279.292218 
" clip-path="url(#pb70e5db463)" style="fill: none; stroke: #b0b0b0; stroke-width: 0.8; stroke-linecap: square"/>
     </g>
     <g id="line2d_59">
      <g>
       <use xlink:href="#maffdc41249" x="456.788" y="279.292218" style="stroke: #000000; stroke-width: 0.8"/>
      </g>
     </g>
     <g id="text_27">
      <!-- 40 -->
      <g transform="translate(434.518 283.85128) scale(0.12 -0.12)">
       <use xlink:href="#DejaVuSans-34"/>
       <use xlink:href="#DejaVuSans-30" x="63.623047"/>
      </g>
     </g>
    </g>
    <g id="ytick_24">
     <g id="line2d_60">
      <path d="M 456.788 224.968487 
L 591.192 224.968487 
" clip-path="url(#pb70e5db463)" style="fill: none; stroke: #b0b0b0; stroke-width: 0.8; stroke-linecap: square"/>
     </g>
     <g id="line2d_61">
      <g>
       <use xlink:href="#maffdc41249" x="456.788" y="224.968487" style="stroke: #000000; stroke-width: 0.8"/>
      </g>
     </g>
     <g id="text_28">
      <!-- 50 -->
      <g transform="translate(434.518 229.52755) scale(0.12 -0.12)">
       <defs>
        <path id="DejaVuSans-35" d="M 691 4666 
L 3169 4666 
L 3169 4134 
L 1269 4134 
L 1269 2991 
Q 1406 3038 1543 3061 
Q 1681 3084 1819 3084 
Q 2600 3084 3056 2656 
Q 3513 2228 3513 1497 
Q 3513 744 3044 326 
Q 2575 -91 1722 -91 
Q 1428 -91 1123 -41 
Q 819 9 494 109 
L 494 744 
Q 775 591 1075 516 
Q 1375 441 1709 441 
Q 2250 441 2565 725 
Q 2881 1009 2881 1497 
Q 2881 1984 2565 2268 
Q 2250 2553 1709 2553 
Q 1456 2553 1204 2497 
Q 953 2441 691 2322 
L 691 4666 
z
" transform="scale(0.015625)"/>
       </defs>
       <use xlink:href="#DejaVuSans-35"/>
       <use xlink:href="#DejaVuSans-30" x="63.623047"/>
      </g>
     </g>
    </g>
    <g id="ytick_25">
     <g id="line2d_62">
      <path d="M 456.788 170.644757 
L 591.192 170.644757 
" clip-path="url(#pb70e5db463)" style="fill: none; stroke: #b0b0b0; stroke-width: 0.8; stroke-linecap: square"/>
     </g>
     <g id="line2d_63">
      <g>
       <use xlink:href="#maffdc41249" x="456.788" y="170.644757" style="stroke: #000000; stroke-width: 0.8"/>
      </g>
     </g>
     <g id="text_29">
      <!-- 60 -->
      <g transform="translate(434.518 175.203819) scale(0.12 -0.12)">
       <use xlink:href="#DejaVuSans-36"/>
       <use xlink:href="#DejaVuSans-30" x="63.623047"/>
      </g>
     </g>
    </g>
    <g id="ytick_26">
     <g id="line2d_64">
      <path d="M 456.788 116.321026 
L 591.192 116.321026 
" clip-path="url(#pb70e5db463)" style="fill: none; stroke: #b0b0b0; stroke-width: 0.8; stroke-linecap: square"/>
     </g>
     <g id="line2d_65">
      <g>
       <use xlink:href="#maffdc41249" x="456.788" y="116.321026" style="stroke: #000000; stroke-width: 0.8"/>
      </g>
     </g>
     <g id="text_30">
      <!-- 70 -->
      <g transform="translate(434.518 120.880089) scale(0.12 -0.12)">
       <defs>
        <path id="DejaVuSans-37" d="M 525 4666 
L 3525 4666 
L 3525 4397 
L 1831 0 
L 1172 0 
L 2766 4134 
L 525 4134 
L 525 4666 
z
" transform="scale(0.015625)"/>
       </defs>
       <use xlink:href="#DejaVuSans-37"/>
       <use xlink:href="#DejaVuSans-30" x="63.623047"/>
      </g>
     </g>
    </g>
    <g id="text_31">
     <!-- Ammonium [mM] -->
     <g transform="translate(417.550812 382.934056) rotate(-90) scale(0.14 -0.14)">
      <defs>
       <path id="DejaVuSans-41" d="M 2188 4044 
L 1331 1722 
L 3047 1722 
L 2188 4044 
z
M 1831 4666 
L 2547 4666 
L 4325 0 
L 3669 0 
L 3244 1197 
L 1141 1197 
L 716 0 
L 50 0 
L 1831 4666 
z
" transform="scale(0.015625)"/>
       <path id="DejaVuSans-6e" d="M 3513 2113 
L 3513 0 
L 2938 0 
L 2938 2094 
Q 2938 2591 2744 2837 
Q 2550 3084 2163 3084 
Q 1697 3084 1428 2787 
Q 1159 2491 1159 1978 
L 1159 0 
L 581 0 
L 581 3500 
L 1159 3500 
L 1159 2956 
Q 1366 3272 1645 3428 
Q 1925 3584 2291 3584 
Q 2894 3584 3203 3211 
Q 3513 2838 3513 2113 
z
" transform="scale(0.015625)"/>
       <path id="DejaVuSans-75" d="M 544 1381 
L 544 3500 
L 1119 3500 
L 1119 1403 
Q 1119 906 1312 657 
Q 1506 409 1894 409 
Q 2359 409 2629 706 
Q 2900 1003 2900 1516 
L 2900 3500 
L 3475 3500 
L 3475 0 
L 2900 0 
L 2900 538 
Q 2691 219 2414 64 
Q 2138 -91 1772 -91 
Q 1169 -91 856 284 
Q 544 659 544 1381 
z
M 1991 3584 
L 1991 3584 
z
" transform="scale(0.015625)"/>
      </defs>
      <use xlink:href="#DejaVuSans-41"/>
      <use xlink:href="#DejaVuSans-6d" x="68.408203"/>
      <use xlink:href="#DejaVuSans-6d" x="165.820312"/>
      <use xlink:href="#DejaVuSans-6f" x="263.232422"/>
      <use xlink:href="#DejaVuSans-6e" x="324.414062"/>
      <use xlink:href="#DejaVuSans-69" x="387.792969"/>
      <use xlink:href="#DejaVuSans-75" x="415.576172"/>
      <use xlink:href="#DejaVuSans-6d" x="478.955078"/>
      <use xlink:href="#DejaVuSans-20" x="576.367188"/>
      <use xlink:href="#DejaVuSans-5b" x="608.154297"/>
      <use xlink:href="#DejaVuSans-6d" x="647.167969"/>
      <use xlink:href="#DejaVuSans-4d" x="744.580078"/>
      <use xlink:href="#DejaVuSans-5d" x="830.859375"/>
     </g>
    </g>
   </g>
   <g id="line2d_66">
    <path d="M 523.99 469.425275 
L 523.99 271.035011 
" clip-path="url(#pb70e5db463)" style="fill: none; stroke: #545454; stroke-width: 1.875; stroke-linecap: square"/>
   </g>
   <g id="line2d_67">
    <path d="M 523.99 469.425275 
L 523.99 388.089069 
" clip-path="url(#pb70e5db463)" style="fill: none; stroke: #545454; stroke-width: 5.625; stroke-linecap: square"/>
   </g>
   <g id="line2d_68">
    <path d="M 523.99 396.522828 
" clip-path="url(#pb70e5db463)" style="fill: none; stroke: #545454; stroke-width: 1.5; stroke-linecap: square"/>
    <g clip-path="url(#pb70e5db463)">
     <use xlink:href="#m98d4bca1cb" x="523.99" y="396.522828" style="fill: #ffffff; stroke: #ffffff; stroke-width: 1.125"/>
    </g>
   </g>
   <g id="line2d_69">
    <path d="M 456.788 469.425275 
L 591.192 469.425275 
" clip-path="url(#pb70e5db463)" style="fill: none; stroke-dasharray: 7.4,3.2; stroke-dashoffset: 0; stroke: #ff0000; stroke-width: 2"/>
   </g>
   <g id="line2d_70">
    <path d="M 456.788 170.644757 
L 591.192 170.644757 
" clip-path="url(#pb70e5db463)" style="fill: none; stroke-dasharray: 7.4,3.2; stroke-dashoffset: 0; stroke: #0000ff; stroke-width: 2"/>
   </g>
   <g id="patch_13">
    <path d="M 456.788 554.569988 
L 456.788 89.52 
" style="fill: none; stroke: #000000; stroke-width: 0.8; stroke-linejoin: miter; stroke-linecap: square"/>
   </g>
   <g id="patch_14">
    <path d="M 591.192 554.569988 
L 591.192 89.52 
" style="fill: none; stroke: #000000; stroke-width: 0.8; stroke-linejoin: miter; stroke-linecap: square"/>
   </g>
   <g id="patch_15">
    <path d="M 456.788 554.569988 
L 591.192 554.569988 
" style="fill: none; stroke: #000000; stroke-width: 0.8; stroke-linejoin: miter; stroke-linecap: square"/>
   </g>
   <g id="patch_16">
    <path d="M 456.788 89.52 
L 591.192 89.52 
" style="fill: none; stroke: #000000; stroke-width: 0.8; stroke-linejoin: miter; stroke-linecap: square"/>
   </g>
   <g id="text_32">
    <!-- Ammonium [mM] -->
    <g transform="translate(467.450156 83.52) scale(0.13 -0.13)">
     <use xlink:href="#DejaVuSans-41"/>
     <use xlink:href="#DejaVuSans-6d" x="68.408203"/>
     <use xlink:href="#DejaVuSans-6d" x="165.820312"/>
     <use xlink:href="#DejaVuSans-6f" x="263.232422"/>
     <use xlink:href="#DejaVuSans-6e" x="324.414062"/>
     <use xlink:href="#DejaVuSans-69" x="387.792969"/>
     <use xlink:href="#DejaVuSans-75" x="415.576172"/>
     <use xlink:href="#DejaVuSans-6d" x="478.955078"/>
     <use xlink:href="#DejaVuSans-20" x="576.367188"/>
     <use xlink:href="#DejaVuSans-5b" x="608.154297"/>
     <use xlink:href="#DejaVuSans-6d" x="647.167969"/>
     <use xlink:href="#DejaVuSans-4d" x="744.580078"/>
     <use xlink:href="#DejaVuSans-5d" x="830.859375"/>
    </g>
   </g>
  </g>
  <g id="axes_4">
   <g id="patch_17">
    <path d="M 657.632 554.569988 
L 792.036 554.569988 
L 792.036 89.52 
L 657.632 89.52 
z
" style="fill: #ffffff"/>
   </g>
   <g id="PolyCollection_4">
    <defs>
     <path id="meb8c44e18c" d="M 726.101315 -42.568648 
L 723.566685 -42.568648 
L 723.168461 -46.215766 
L 722.687368 -49.862885 
L 722.120393 -53.510003 
L 721.468923 -57.157121 
L 720.739535 -60.80424 
L 719.94432 -64.451358 
L 719.10058 -68.098476 
L 718.22979 -71.745594 
L 717.355788 -75.392713 
L 716.5023 -79.039831 
L 715.690013 -82.686949 
L 714.933495 -86.334067 
L 714.238375 -89.981186 
L 713.599164 -93.628304 
L 712.998083 -97.275422 
L 712.405138 -100.922541 
L 711.779555 -104.569659 
L 711.07249 -108.216777 
L 710.230801 -111.863895 
L 709.201519 -115.511014 
L 707.936607 -119.158132 
L 706.397562 -122.80525 
L 704.559472 -126.452368 
L 702.414212 -130.099487 
L 699.972541 -133.746605 
L 697.264981 -137.393723 
L 694.341389 -141.040842 
L 691.269215 -144.68796 
L 688.130484 -148.335078 
L 685.017589 -151.982196 
L 682.028055 -155.629315 
L 679.258548 -159.276433 
L 676.798535 -162.923551 
L 674.724087 -166.570669 
L 673.092446 -170.217788 
L 671.93795 -173.864906 
L 671.269855 -177.512024 
L 671.0724 -181.159143 
L 671.307197 -184.806261 
L 671.917718 -188.453379 
L 672.835377 -192.100497 
L 673.986447 -195.747616 
L 675.298987 -199.394734 
L 676.708947 -203.041852 
L 678.164806 -206.68897 
L 679.630329 -210.336089 
L 681.085334 -213.983207 
L 682.524646 -217.630325 
L 683.955618 -221.277444 
L 685.394717 -224.924562 
L 686.86371 -228.57168 
L 688.385917 -232.218798 
L 689.98287 -235.865917 
L 691.671601 -239.513035 
L 693.462656 -243.160153 
L 695.35885 -246.807272 
L 697.354715 -250.45439 
L 699.43659 -254.101508 
L 701.583283 -257.748626 
L 703.76724 -261.395745 
L 705.956134 -265.042863 
L 708.114779 -268.689981 
L 710.207227 -272.337099 
L 712.19888 -275.984218 
L 714.058451 -279.631336 
L 715.759611 -283.278454 
L 717.282175 -286.925573 
L 718.61278 -290.572691 
L 719.74502 -294.219809 
L 720.679118 -297.866927 
L 721.421237 -301.514046 
L 721.982555 -305.161164 
L 722.37827 -308.808282 
L 722.62662 -312.4554 
L 722.748009 -316.102519 
L 722.764269 -319.749637 
L 722.698026 -323.396755 
L 722.572136 -327.043874 
L 722.40913 -330.690992 
L 722.230618 -334.33811 
L 722.056635 -337.985228 
L 721.904938 -341.632347 
L 721.790304 -345.279465 
L 721.723914 -348.926583 
L 721.712895 -352.573701 
L 721.760112 -356.22082 
L 721.864255 -359.867938 
L 722.020242 -363.515056 
L 722.219901 -367.162175 
L 722.452862 -370.809293 
L 722.707578 -374.456411 
L 722.97233 -378.103529 
L 723.236154 -381.750648 
L 723.48956 -385.397766 
L 723.725032 -389.044884 
L 723.937261 -392.692002 
L 724.123145 -396.339121 
L 724.281588 -399.986239 
L 724.413164 -403.633357 
L 725.254836 -403.633357 
L 725.254836 -403.633357 
L 725.386412 -399.986239 
L 725.544855 -396.339121 
L 725.730739 -392.692002 
L 725.942968 -389.044884 
L 726.17844 -385.397766 
L 726.431846 -381.750648 
L 726.69567 -378.103529 
L 726.960422 -374.456411 
L 727.215138 -370.809293 
L 727.448099 -367.162175 
L 727.647758 -363.515056 
L 727.803745 -359.867938 
L 727.907888 -356.22082 
L 727.955105 -352.573701 
L 727.944086 -348.926583 
L 727.877696 -345.279465 
L 727.763062 -341.632347 
L 727.611365 -337.985228 
L 727.437382 -334.33811 
L 727.25887 -330.690992 
L 727.095864 -327.043874 
L 726.969974 -323.396755 
L 726.903731 -319.749637 
L 726.919991 -316.102519 
L 727.04138 -312.4554 
L 727.28973 -308.808282 
L 727.685445 -305.161164 
L 728.246763 -301.514046 
L 728.988882 -297.866927 
L 729.92298 -294.219809 
L 731.05522 -290.572691 
L 732.385825 -286.925573 
L 733.908389 -283.278454 
L 735.609549 -279.631336 
L 737.46912 -275.984218 
L 739.460773 -272.337099 
L 741.553221 -268.689981 
L 743.711866 -265.042863 
L 745.90076 -261.395745 
L 748.084717 -257.748626 
L 750.23141 -254.101508 
L 752.313285 -250.45439 
L 754.30915 -246.807272 
L 756.205344 -243.160153 
L 757.996399 -239.513035 
L 759.68513 -235.865917 
L 761.282083 -232.218798 
L 762.80429 -228.57168 
L 764.273283 -224.924562 
L 765.712382 -221.277444 
L 767.143354 -217.630325 
L 768.582666 -213.983207 
L 770.037671 -210.336089 
L 771.503194 -206.68897 
L 772.959053 -203.041852 
L 774.369013 -199.394734 
L 775.681553 -195.747616 
L 776.832623 -192.100497 
L 777.750282 -188.453379 
L 778.360803 -184.806261 
L 778.5956 -181.159143 
L 778.398145 -177.512024 
L 777.73005 -173.864906 
L 776.575554 -170.217788 
L 774.943913 -166.570669 
L 772.869465 -162.923551 
L 770.409452 -159.276433 
L 767.639945 -155.629315 
L 764.650411 -151.982196 
L 761.537516 -148.335078 
L 758.398785 -144.68796 
L 755.326611 -141.040842 
L 752.403019 -137.393723 
L 749.695459 -133.746605 
L 747.253788 -130.099487 
L 745.108528 -126.452368 
L 743.270438 -122.80525 
L 741.731393 -119.158132 
L 740.466481 -115.511014 
L 739.437199 -111.863895 
L 738.59551 -108.216777 
L 737.888445 -104.569659 
L 737.262862 -100.922541 
L 736.669917 -97.275422 
L 736.068836 -93.628304 
L 735.429625 -89.981186 
L 734.734505 -86.334067 
L 733.977987 -82.686949 
L 733.1657 -79.039831 
L 732.312212 -75.392713 
L 731.43821 -71.745594 
L 730.56742 -68.098476 
L 729.72368 -64.451358 
L 728.928465 -60.80424 
L 728.199077 -57.157121 
L 727.547607 -53.510003 
L 726.980632 -49.862885 
L 726.499539 -46.215766 
L 726.101315 -42.568648 
z
" style="stroke: #545454; stroke-width: 1.25"/>
    </defs>
    <g clip-path="url(#pae66f2d4db)">
     <use xlink:href="#meb8c44e18c" x="0" y="576" style="fill: #597dbf; stroke: #545454; stroke-width: 1.25"/>
    </g>
   </g>
   <g id="matplotlib.axis_7">
    <g id="xtick_4">
     <g id="line2d_71">
      <g>
       <use xlink:href="#mbeae413935" x="724.834" y="554.569988" style="stroke: #000000; stroke-width: 0.8"/>
      </g>
     </g>
    </g>
   </g>
   <g id="matplotlib.axis_8">
    <g id="ytick_27">
     <g id="line2d_72">
      <path d="M 657.632 529.573239 
L 792.036 529.573239 
" clip-path="url(#pae66f2d4db)" style="fill: none; stroke: #b0b0b0; stroke-width: 0.8; stroke-linecap: square"/>
     </g>
     <g id="line2d_73">
      <g>
       <use xlink:href="#maffdc41249" x="657.632" y="529.573239" style="stroke: #000000; stroke-width: 0.8"/>
      </g>
     </g>
     <g id="text_33">
      <!-- 0 -->
      <g transform="translate(642.997 534.132301) scale(0.12 -0.12)">
       <use xlink:href="#DejaVuSans-30"/>
      </g>
     </g>
    </g>
    <g id="ytick_28">
     <g id="line2d_74">
      <path d="M 657.632 469.728296 
L 792.036 469.728296 
" clip-path="url(#pae66f2d4db)" style="fill: none; stroke: #b0b0b0; stroke-width: 0.8; stroke-linecap: square"/>
     </g>
     <g id="line2d_75">
      <g>
       <use xlink:href="#maffdc41249" x="657.632" y="469.728296" style="stroke: #000000; stroke-width: 0.8"/>
      </g>
     </g>
     <g id="text_34">
      <!-- 25 -->
      <g transform="translate(635.362 474.287358) scale(0.12 -0.12)">
       <use xlink:href="#DejaVuSans-32"/>
       <use xlink:href="#DejaVuSans-35" x="63.623047"/>
      </g>
     </g>
    </g>
    <g id="ytick_29">
     <g id="line2d_76">
      <path d="M 657.632 409.883352 
L 792.036 409.883352 
" clip-path="url(#pae66f2d4db)" style="fill: none; stroke: #b0b0b0; stroke-width: 0.8; stroke-linecap: square"/>
     </g>
     <g id="line2d_77">
      <g>
       <use xlink:href="#maffdc41249" x="657.632" y="409.883352" style="stroke: #000000; stroke-width: 0.8"/>
      </g>
     </g>
     <g id="text_35">
      <!-- 50 -->
      <g transform="translate(635.362 414.442415) scale(0.12 -0.12)">
       <use xlink:href="#DejaVuSans-35"/>
       <use xlink:href="#DejaVuSans-30" x="63.623047"/>
      </g>
     </g>
    </g>
    <g id="ytick_30">
     <g id="line2d_78">
      <path d="M 657.632 350.038409 
L 792.036 350.038409 
" clip-path="url(#pae66f2d4db)" style="fill: none; stroke: #b0b0b0; stroke-width: 0.8; stroke-linecap: square"/>
     </g>
     <g id="line2d_79">
      <g>
       <use xlink:href="#maffdc41249" x="657.632" y="350.038409" style="stroke: #000000; stroke-width: 0.8"/>
      </g>
     </g>
     <g id="text_36">
      <!-- 75 -->
      <g transform="translate(635.362 354.597471) scale(0.12 -0.12)">
       <use xlink:href="#DejaVuSans-37"/>
       <use xlink:href="#DejaVuSans-35" x="63.623047"/>
      </g>
     </g>
    </g>
    <g id="ytick_31">
     <g id="line2d_80">
      <path d="M 657.632 290.193466 
L 792.036 290.193466 
" clip-path="url(#pae66f2d4db)" style="fill: none; stroke: #b0b0b0; stroke-width: 0.8; stroke-linecap: square"/>
     </g>
     <g id="line2d_81">
      <g>
       <use xlink:href="#maffdc41249" x="657.632" y="290.193466" style="stroke: #000000; stroke-width: 0.8"/>
      </g>
     </g>
     <g id="text_37">
      <!-- 100 -->
      <g transform="translate(627.727 294.752528) scale(0.12 -0.12)">
       <use xlink:href="#DejaVuSans-31"/>
       <use xlink:href="#DejaVuSans-30" x="63.623047"/>
       <use xlink:href="#DejaVuSans-30" x="127.246094"/>
      </g>
     </g>
    </g>
    <g id="ytick_32">
     <g id="line2d_82">
      <path d="M 657.632 230.348522 
L 792.036 230.348522 
" clip-path="url(#pae66f2d4db)" style="fill: none; stroke: #b0b0b0; stroke-width: 0.8; stroke-linecap: square"/>
     </g>
     <g id="line2d_83">
      <g>
       <use xlink:href="#maffdc41249" x="657.632" y="230.348522" style="stroke: #000000; stroke-width: 0.8"/>
      </g>
     </g>
     <g id="text_38">
      <!-- 125 -->
      <g transform="translate(627.727 234.907585) scale(0.12 -0.12)">
       <use xlink:href="#DejaVuSans-31"/>
       <use xlink:href="#DejaVuSans-32" x="63.623047"/>
       <use xlink:href="#DejaVuSans-35" x="127.246094"/>
      </g>
     </g>
    </g>
    <g id="ytick_33">
     <g id="line2d_84">
      <path d="M 657.632 170.503579 
L 792.036 170.503579 
" clip-path="url(#pae66f2d4db)" style="fill: none; stroke: #b0b0b0; stroke-width: 0.8; stroke-linecap: square"/>
     </g>
     <g id="line2d_85">
      <g>
       <use xlink:href="#maffdc41249" x="657.632" y="170.503579" style="stroke: #000000; stroke-width: 0.8"/>
      </g>
     </g>
     <g id="text_39">
      <!-- 150 -->
      <g transform="translate(627.727 175.062642) scale(0.12 -0.12)">
       <use xlink:href="#DejaVuSans-31"/>
       <use xlink:href="#DejaVuSans-35" x="63.623047"/>
       <use xlink:href="#DejaVuSans-30" x="127.246094"/>
      </g>
     </g>
    </g>
    <g id="ytick_34">
     <g id="line2d_86">
      <path d="M 657.632 110.658636 
L 792.036 110.658636 
" clip-path="url(#pae66f2d4db)" style="fill: none; stroke: #b0b0b0; stroke-width: 0.8; stroke-linecap: square"/>
     </g>
     <g id="line2d_87">
      <g>
       <use xlink:href="#maffdc41249" x="657.632" y="110.658636" style="stroke: #000000; stroke-width: 0.8"/>
      </g>
     </g>
     <g id="text_40">
      <!-- 175 -->
      <g transform="translate(627.727 115.217698) scale(0.12 -0.12)">
       <use xlink:href="#DejaVuSans-31"/>
       <use xlink:href="#DejaVuSans-37" x="63.623047"/>
       <use xlink:href="#DejaVuSans-35" x="127.246094"/>
      </g>
     </g>
    </g>
    <g id="text_41">
     <!-- Sucrose [mM] -->
     <g transform="translate(620.815437 370.276088) rotate(-90) scale(0.14 -0.14)">
      <defs>
       <path id="DejaVuSans-53" d="M 3425 4513 
L 3425 3897 
Q 3066 4069 2747 4153 
Q 2428 4238 2131 4238 
Q 1616 4238 1336 4038 
Q 1056 3838 1056 3469 
Q 1056 3159 1242 3001 
Q 1428 2844 1947 2747 
L 2328 2669 
Q 3034 2534 3370 2195 
Q 3706 1856 3706 1288 
Q 3706 609 3251 259 
Q 2797 -91 1919 -91 
Q 1588 -91 1214 -16 
Q 841 59 441 206 
L 441 856 
Q 825 641 1194 531 
Q 1563 422 1919 422 
Q 2459 422 2753 634 
Q 3047 847 3047 1241 
Q 3047 1584 2836 1778 
Q 2625 1972 2144 2069 
L 1759 2144 
Q 1053 2284 737 2584 
Q 422 2884 422 3419 
Q 422 4038 858 4394 
Q 1294 4750 2059 4750 
Q 2388 4750 2728 4690 
Q 3069 4631 3425 4513 
z
" transform="scale(0.015625)"/>
       <path id="DejaVuSans-63" d="M 3122 3366 
L 3122 2828 
Q 2878 2963 2633 3030 
Q 2388 3097 2138 3097 
Q 1578 3097 1268 2742 
Q 959 2388 959 1747 
Q 959 1106 1268 751 
Q 1578 397 2138 397 
Q 2388 397 2633 464 
Q 2878 531 3122 666 
L 3122 134 
Q 2881 22 2623 -34 
Q 2366 -91 2075 -91 
Q 1284 -91 818 406 
Q 353 903 353 1747 
Q 353 2603 823 3093 
Q 1294 3584 2113 3584 
Q 2378 3584 2631 3529 
Q 2884 3475 3122 3366 
z
" transform="scale(0.015625)"/>
      </defs>
      <use xlink:href="#DejaVuSans-53"/>
      <use xlink:href="#DejaVuSans-75" x="63.476562"/>
      <use xlink:href="#DejaVuSans-63" x="126.855469"/>
      <use xlink:href="#DejaVuSans-72" x="181.835938"/>
      <use xlink:href="#DejaVuSans-6f" x="220.699219"/>
      <use xlink:href="#DejaVuSans-73" x="281.880859"/>
      <use xlink:href="#DejaVuSans-65" x="333.980469"/>
      <use xlink:href="#DejaVuSans-20" x="395.503906"/>
      <use xlink:href="#DejaVuSans-5b" x="427.291016"/>
      <use xlink:href="#DejaVuSans-6d" x="466.304688"/>
      <use xlink:href="#DejaVuSans-4d" x="563.716797"/>
      <use xlink:href="#DejaVuSans-5d" x="649.996094"/>
     </g>
    </g>
   </g>
   <g id="line2d_88">
    <path d="M 724.834 481.697284 
L 724.834 315.304404 
" clip-path="url(#pae66f2d4db)" style="fill: none; stroke: #545454; stroke-width: 1.875; stroke-linecap: square"/>
   </g>
   <g id="line2d_89">
    <path d="M 724.834 409.338763 
L 724.834 354.490873 
" clip-path="url(#pae66f2d4db)" style="fill: none; stroke: #545454; stroke-width: 5.625; stroke-linecap: square"/>
   </g>
   <g id="line2d_90">
    <path d="M 724.834 397.651046 
" clip-path="url(#pae66f2d4db)" style="fill: none; stroke: #545454; stroke-width: 1.5; stroke-linecap: square"/>
    <g clip-path="url(#pae66f2d4db)">
     <use xlink:href="#m98d4bca1cb" x="724.834" y="397.651046" style="fill: #ffffff; stroke: #ffffff; stroke-width: 1.125"/>
    </g>
   </g>
   <g id="line2d_91">
    <path d="M 657.632 481.697284 
L 792.036 481.697284 
" clip-path="url(#pae66f2d4db)" style="fill: none; stroke-dasharray: 7.4,3.2; stroke-dashoffset: 0; stroke: #ff0000; stroke-width: 2"/>
   </g>
   <g id="line2d_92">
    <path d="M 657.632 110.658636 
L 792.036 110.658636 
" clip-path="url(#pae66f2d4db)" style="fill: none; stroke-dasharray: 7.4,3.2; stroke-dashoffset: 0; stroke: #0000ff; stroke-width: 2"/>
   </g>
   <g id="patch_18">
    <path d="M 657.632 554.569988 
L 657.632 89.52 
" style="fill: none; stroke: #000000; stroke-width: 0.8; stroke-linejoin: miter; stroke-linecap: square"/>
   </g>
   <g id="patch_19">
    <path d="M 792.036 554.569988 
L 792.036 89.52 
" style="fill: none; stroke: #000000; stroke-width: 0.8; stroke-linejoin: miter; stroke-linecap: square"/>
   </g>
   <g id="patch_20">
    <path d="M 657.632 554.569988 
L 792.036 554.569988 
" style="fill: none; stroke: #000000; stroke-width: 0.8; stroke-linejoin: miter; stroke-linecap: square"/>
   </g>
   <g id="patch_21">
    <path d="M 657.632 89.52 
L 792.036 89.52 
" style="fill: none; stroke: #000000; stroke-width: 0.8; stroke-linejoin: miter; stroke-linecap: square"/>
   </g>
   <g id="text_42">
    <!-- Sucrose [mM] -->
    <g transform="translate(680.047984 83.52) scale(0.13 -0.13)">
     <use xlink:href="#DejaVuSans-53"/>
     <use xlink:href="#DejaVuSans-75" x="63.476562"/>
     <use xlink:href="#DejaVuSans-63" x="126.855469"/>
     <use xlink:href="#DejaVuSans-72" x="181.835938"/>
     <use xlink:href="#DejaVuSans-6f" x="220.699219"/>
     <use xlink:href="#DejaVuSans-73" x="281.880859"/>
     <use xlink:href="#DejaVuSans-65" x="333.980469"/>
     <use xlink:href="#DejaVuSans-20" x="395.503906"/>
     <use xlink:href="#DejaVuSans-5b" x="427.291016"/>
     <use xlink:href="#DejaVuSans-6d" x="466.304688"/>
     <use xlink:href="#DejaVuSans-4d" x="563.716797"/>
     <use xlink:href="#DejaVuSans-5d" x="649.996094"/>
    </g>
   </g>
  </g>
  <g id="axes_5">
   <g id="patch_22">
    <path d="M 858.476 554.569988 
L 992.88 554.569988 
L 992.88 89.52 
L 858.476 89.52 
z
" style="fill: #ffffff"/>
   </g>
   <g id="PolyCollection_5">
    <defs>
     <path id="m379ad4fbcb" d="M 926.402943 -87.781252 
L 924.953057 -87.781252 
L 924.756067 -91.594991 
L 924.51831 -95.408729 
L 924.234812 -99.222468 
L 923.900762 -103.036206 
L 923.511668 -106.849945 
L 923.063492 -110.663683 
L 922.552766 -114.477422 
L 921.976662 -118.29116 
L 921.333022 -122.104899 
L 920.620327 -125.918637 
L 919.837632 -129.732376 
L 918.984461 -133.546114 
L 918.06069 -137.359853 
L 917.066439 -141.173591 
L 916.002008 -144.98733 
L 914.86787 -148.801068 
L 913.664758 -152.614807 
L 912.393834 -156.428545 
L 911.056952 -160.242284 
L 909.656993 -164.056022 
L 908.198227 -167.869761 
L 906.686661 -171.683499 
L 905.130327 -175.497238 
L 903.539432 -179.310976 
L 901.926359 -183.124715 
L 900.305447 -186.938453 
L 898.692575 -190.752192 
L 897.10454 -194.56593 
L 895.558275 -198.379669 
L 894.069962 -202.193407 
L 892.654127 -206.007146 
L 891.32277 -209.820884 
L 890.084627 -213.634623 
L 888.944635 -217.448361 
L 887.903615 -221.2621 
L 886.958238 -225.075838 
L 886.101244 -228.889577 
L 885.321907 -232.703315 
L 884.606706 -236.517054 
L 883.940151 -240.330792 
L 883.30571 -244.144531 
L 882.686784 -247.958269 
L 882.067687 -251.772008 
L 881.434568 -255.585746 
L 880.776266 -259.399485 
L 880.085043 -263.213223 
L 879.357174 -267.026962 
L 878.593366 -270.8407 
L 877.79898 -274.654439 
L 876.984016 -278.468177 
L 876.162861 -282.281916 
L 875.353766 -286.095654 
L 874.578063 -289.909393 
L 873.85914 -293.723132 
L 873.221218 -297.53687 
L 872.687987 -301.350609 
L 872.281204 -305.164347 
L 872.019341 -308.978086 
L 871.9164 -312.791824 
L 871.981002 -316.605563 
L 872.215847 -320.419301 
L 872.617595 -324.23304 
L 873.177213 -328.046778 
L 873.880771 -331.860517 
L 874.710614 -335.674255 
L 875.646843 -339.487994 
L 876.668949 -343.301732 
L 877.757469 -347.115471 
L 878.895508 -350.929209 
L 880.069981 -354.742948 
L 881.272471 -358.556686 
L 882.499616 -362.370425 
L 883.752987 -366.184163 
L 885.038494 -369.997902 
L 886.365354 -373.81164 
L 887.744747 -377.625379 
L 889.188277 -381.439117 
L 890.706383 -385.252856 
L 892.306862 -389.066594 
L 893.993618 -392.880333 
L 895.765758 -396.694071 
L 897.61711 -400.50781 
L 899.53618 -404.321548 
L 901.506556 -408.135287 
L 903.507699 -411.949025 
L 905.516037 -415.762764 
L 907.506267 -419.576502 
L 909.452746 -423.390241 
L 911.330846 -427.203979 
L 913.118186 -431.017718 
L 914.795638 -434.831456 
L 916.348069 -438.645195 
L 917.764765 -442.458933 
L 919.039564 -446.272672 
L 920.170698 -450.08641 
L 921.16041 -453.900149 
L 922.014378 -457.713887 
L 922.741043 -461.527626 
L 923.35087 -465.341364 
L 928.00513 -465.341364 
L 928.00513 -465.341364 
L 928.614957 -461.527626 
L 929.341622 -457.713887 
L 930.19559 -453.900149 
L 931.185302 -450.08641 
L 932.316436 -446.272672 
L 933.591235 -442.458933 
L 935.007931 -438.645195 
L 936.560362 -434.831456 
L 938.237814 -431.017718 
L 940.025154 -427.203979 
L 941.903254 -423.390241 
L 943.849733 -419.576502 
L 945.839963 -415.762764 
L 947.848301 -411.949025 
L 949.849444 -408.135287 
L 951.81982 -404.321548 
L 953.73889 -400.50781 
L 955.590242 -396.694071 
L 957.362382 -392.880333 
L 959.049138 -389.066594 
L 960.649617 -385.252856 
L 962.167723 -381.439117 
L 963.611253 -377.625379 
L 964.990646 -373.81164 
L 966.317506 -369.997902 
L 967.603013 -366.184163 
L 968.856384 -362.370425 
L 970.083529 -358.556686 
L 971.286019 -354.742948 
L 972.460492 -350.929209 
L 973.598531 -347.115471 
L 974.687051 -343.301732 
L 975.709157 -339.487994 
L 976.645386 -335.674255 
L 977.475229 -331.860517 
L 978.178787 -328.046778 
L 978.738405 -324.23304 
L 979.140153 -320.419301 
L 979.374998 -316.605563 
L 979.4396 -312.791824 
L 979.336659 -308.978086 
L 979.074796 -305.164347 
L 978.668013 -301.350609 
L 978.134782 -297.53687 
L 977.49686 -293.723132 
L 976.777937 -289.909393 
L 976.002234 -286.095654 
L 975.193139 -282.281916 
L 974.371984 -278.468177 
L 973.55702 -274.654439 
L 972.762634 -270.8407 
L 971.998826 -267.026962 
L 971.270957 -263.213223 
L 970.579734 -259.399485 
L 969.921432 -255.585746 
L 969.288313 -251.772008 
L 968.669216 -247.958269 
L 968.05029 -244.144531 
L 967.415849 -240.330792 
L 966.749294 -236.517054 
L 966.034093 -232.703315 
L 965.254756 -228.889577 
L 964.397762 -225.075838 
L 963.452385 -221.2621 
L 962.411365 -217.448361 
L 961.271373 -213.634623 
L 960.03323 -209.820884 
L 958.701873 -206.007146 
L 957.286038 -202.193407 
L 955.797725 -198.379669 
L 954.25146 -194.56593 
L 952.663425 -190.752192 
L 951.050553 -186.938453 
L 949.429641 -183.124715 
L 947.816568 -179.310976 
L 946.225673 -175.497238 
L 944.669339 -171.683499 
L 943.157773 -167.869761 
L 941.699007 -164.056022 
L 940.299048 -160.242284 
L 938.962166 -156.428545 
L 937.691242 -152.614807 
L 936.48813 -148.801068 
L 935.353992 -144.98733 
L 934.289561 -141.173591 
L 933.29531 -137.359853 
L 932.371539 -133.546114 
L 931.518368 -129.732376 
L 930.735673 -125.918637 
L 930.022978 -122.104899 
L 929.379338 -118.29116 
L 928.803234 -114.477422 
L 928.292508 -110.663683 
L 927.844332 -106.849945 
L 927.455238 -103.036206 
L 927.121188 -99.222468 
L 926.83769 -95.408729 
L 926.599933 -91.594991 
L 926.402943 -87.781252 
z
" style="stroke: #545454; stroke-width: 1.25"/>
    </defs>
    <g clip-path="url(#p4467420879)">
     <use xlink:href="#m379ad4fbcb" x="0" y="576" style="fill: #597dbf; stroke: #545454; stroke-width: 1.25"/>
    </g>
   </g>
   <g id="matplotlib.axis_9">
    <g id="xtick_5">
     <g id="line2d_93">
      <g>
       <use xlink:href="#mbeae413935" x="925.678" y="554.569988" style="stroke: #000000; stroke-width: 0.8"/>
      </g>
     </g>
    </g>
   </g>
   <g id="matplotlib.axis_10">
    <g id="ytick_35">
     <g id="line2d_94">
      <path d="M 858.476 533.431352 
L 992.88 533.431352 
" clip-path="url(#p4467420879)" style="fill: none; stroke: #b0b0b0; stroke-width: 0.8; stroke-linecap: square"/>
     </g>
     <g id="line2d_95">
      <g>
       <use xlink:href="#maffdc41249" x="858.476" y="533.431352" style="stroke: #000000; stroke-width: 0.8"/>
      </g>
     </g>
     <g id="text_43">
      <!-- 5.0 -->
      <g transform="translate(832.39225 537.990414) scale(0.12 -0.12)">
       <defs>
        <path id="DejaVuSans-2e" d="M 684 794 
L 1344 794 
L 1344 0 
L 684 0 
L 684 794 
z
" transform="scale(0.015625)"/>
       </defs>
       <use xlink:href="#DejaVuSans-35"/>
       <use xlink:href="#DejaVuSans-2e" x="63.623047"/>
       <use xlink:href="#DejaVuSans-30" x="95.410156"/>
      </g>
     </g>
    </g>
    <g id="ytick_36">
     <g id="line2d_96">
      <path d="M 858.476 481.200847 
L 992.88 481.200847 
" clip-path="url(#p4467420879)" style="fill: none; stroke: #b0b0b0; stroke-width: 0.8; stroke-linecap: square"/>
     </g>
     <g id="line2d_97">
      <g>
       <use xlink:href="#maffdc41249" x="858.476" y="481.200847" style="stroke: #000000; stroke-width: 0.8"/>
      </g>
     </g>
     <g id="text_44">
      <!-- 7.5 -->
      <g transform="translate(832.39225 485.75991) scale(0.12 -0.12)">
       <use xlink:href="#DejaVuSans-37"/>
       <use xlink:href="#DejaVuSans-2e" x="63.623047"/>
       <use xlink:href="#DejaVuSans-35" x="95.410156"/>
      </g>
     </g>
    </g>
    <g id="ytick_37">
     <g id="line2d_98">
      <path d="M 858.476 428.970343 
L 992.88 428.970343 
" clip-path="url(#p4467420879)" style="fill: none; stroke: #b0b0b0; stroke-width: 0.8; stroke-linecap: square"/>
     </g>
     <g id="line2d_99">
      <g>
       <use xlink:href="#maffdc41249" x="858.476" y="428.970343" style="stroke: #000000; stroke-width: 0.8"/>
      </g>
     </g>
     <g id="text_45">
      <!-- 10.0 -->
      <g transform="translate(824.75725 433.529405) scale(0.12 -0.12)">
       <use xlink:href="#DejaVuSans-31"/>
       <use xlink:href="#DejaVuSans-30" x="63.623047"/>
       <use xlink:href="#DejaVuSans-2e" x="127.246094"/>
       <use xlink:href="#DejaVuSans-30" x="159.033203"/>
      </g>
     </g>
    </g>
    <g id="ytick_38">
     <g id="line2d_100">
      <path d="M 858.476 376.739838 
L 992.88 376.739838 
" clip-path="url(#p4467420879)" style="fill: none; stroke: #b0b0b0; stroke-width: 0.8; stroke-linecap: square"/>
     </g>
     <g id="line2d_101">
      <g>
       <use xlink:href="#maffdc41249" x="858.476" y="376.739838" style="stroke: #000000; stroke-width: 0.8"/>
      </g>
     </g>
     <g id="text_46">
      <!-- 12.5 -->
      <g transform="translate(824.75725 381.298901) scale(0.12 -0.12)">
       <use xlink:href="#DejaVuSans-31"/>
       <use xlink:href="#DejaVuSans-32" x="63.623047"/>
       <use xlink:href="#DejaVuSans-2e" x="127.246094"/>
       <use xlink:href="#DejaVuSans-35" x="159.033203"/>
      </g>
     </g>
    </g>
    <g id="ytick_39">
     <g id="line2d_102">
      <path d="M 858.476 324.509334 
L 992.88 324.509334 
" clip-path="url(#p4467420879)" style="fill: none; stroke: #b0b0b0; stroke-width: 0.8; stroke-linecap: square"/>
     </g>
     <g id="line2d_103">
      <g>
       <use xlink:href="#maffdc41249" x="858.476" y="324.509334" style="stroke: #000000; stroke-width: 0.8"/>
      </g>
     </g>
     <g id="text_47">
      <!-- 15.0 -->
      <g transform="translate(824.75725 329.068396) scale(0.12 -0.12)">
       <use xlink:href="#DejaVuSans-31"/>
       <use xlink:href="#DejaVuSans-35" x="63.623047"/>
       <use xlink:href="#DejaVuSans-2e" x="127.246094"/>
       <use xlink:href="#DejaVuSans-30" x="159.033203"/>
      </g>
     </g>
    </g>
    <g id="ytick_40">
     <g id="line2d_104">
      <path d="M 858.476 272.278829 
L 992.88 272.278829 
" clip-path="url(#p4467420879)" style="fill: none; stroke: #b0b0b0; stroke-width: 0.8; stroke-linecap: square"/>
     </g>
     <g id="line2d_105">
      <g>
       <use xlink:href="#maffdc41249" x="858.476" y="272.278829" style="stroke: #000000; stroke-width: 0.8"/>
      </g>
     </g>
     <g id="text_48">
      <!-- 17.5 -->
      <g transform="translate(824.75725 276.837892) scale(0.12 -0.12)">
       <use xlink:href="#DejaVuSans-31"/>
       <use xlink:href="#DejaVuSans-37" x="63.623047"/>
       <use xlink:href="#DejaVuSans-2e" x="127.246094"/>
       <use xlink:href="#DejaVuSans-35" x="159.033203"/>
      </g>
     </g>
    </g>
    <g id="ytick_41">
     <g id="line2d_106">
      <path d="M 858.476 220.048325 
L 992.88 220.048325 
" clip-path="url(#p4467420879)" style="fill: none; stroke: #b0b0b0; stroke-width: 0.8; stroke-linecap: square"/>
     </g>
     <g id="line2d_107">
      <g>
       <use xlink:href="#maffdc41249" x="858.476" y="220.048325" style="stroke: #000000; stroke-width: 0.8"/>
      </g>
     </g>
     <g id="text_49">
      <!-- 20.0 -->
      <g transform="translate(824.75725 224.607387) scale(0.12 -0.12)">
       <use xlink:href="#DejaVuSans-32"/>
       <use xlink:href="#DejaVuSans-30" x="63.623047"/>
       <use xlink:href="#DejaVuSans-2e" x="127.246094"/>
       <use xlink:href="#DejaVuSans-30" x="159.033203"/>
      </g>
     </g>
    </g>
    <g id="ytick_42">
     <g id="line2d_108">
      <path d="M 858.476 167.81782 
L 992.88 167.81782 
" clip-path="url(#p4467420879)" style="fill: none; stroke: #b0b0b0; stroke-width: 0.8; stroke-linecap: square"/>
     </g>
     <g id="line2d_109">
      <g>
       <use xlink:href="#maffdc41249" x="858.476" y="167.81782" style="stroke: #000000; stroke-width: 0.8"/>
      </g>
     </g>
     <g id="text_50">
      <!-- 22.5 -->
      <g transform="translate(824.75725 172.376883) scale(0.12 -0.12)">
       <use xlink:href="#DejaVuSans-32"/>
       <use xlink:href="#DejaVuSans-32" x="63.623047"/>
       <use xlink:href="#DejaVuSans-2e" x="127.246094"/>
       <use xlink:href="#DejaVuSans-35" x="159.033203"/>
      </g>
     </g>
    </g>
    <g id="ytick_43">
     <g id="line2d_110">
      <path d="M 858.476 115.587316 
L 992.88 115.587316 
" clip-path="url(#p4467420879)" style="fill: none; stroke: #b0b0b0; stroke-width: 0.8; stroke-linecap: square"/>
     </g>
     <g id="line2d_111">
      <g>
       <use xlink:href="#maffdc41249" x="858.476" y="115.587316" style="stroke: #000000; stroke-width: 0.8"/>
      </g>
     </g>
     <g id="text_51">
      <!-- 25.0 -->
      <g transform="translate(824.75725 120.146378) scale(0.12 -0.12)">
       <use xlink:href="#DejaVuSans-32"/>
       <use xlink:href="#DejaVuSans-35" x="63.623047"/>
       <use xlink:href="#DejaVuSans-2e" x="127.246094"/>
       <use xlink:href="#DejaVuSans-30" x="159.033203"/>
      </g>
     </g>
    </g>
    <g id="text_52">
     <!-- Start Fresh Mass [g/L] -->
     <g transform="translate(817.845687 398.234525) rotate(-90) scale(0.14 -0.14)">
      <defs>
       <path id="DejaVuSans-46" d="M 628 4666 
L 3309 4666 
L 3309 4134 
L 1259 4134 
L 1259 2759 
L 3109 2759 
L 3109 2228 
L 1259 2228 
L 1259 0 
L 628 0 
L 628 4666 
z
" transform="scale(0.015625)"/>
       <path id="DejaVuSans-67" d="M 2906 1791 
Q 2906 2416 2648 2759 
Q 2391 3103 1925 3103 
Q 1463 3103 1205 2759 
Q 947 2416 947 1791 
Q 947 1169 1205 825 
Q 1463 481 1925 481 
Q 2391 481 2648 825 
Q 2906 1169 2906 1791 
z
M 3481 434 
Q 3481 -459 3084 -895 
Q 2688 -1331 1869 -1331 
Q 1566 -1331 1297 -1286 
Q 1028 -1241 775 -1147 
L 775 -588 
Q 1028 -725 1275 -790 
Q 1522 -856 1778 -856 
Q 2344 -856 2625 -561 
Q 2906 -266 2906 331 
L 2906 616 
Q 2728 306 2450 153 
Q 2172 0 1784 0 
Q 1141 0 747 490 
Q 353 981 353 1791 
Q 353 2603 747 3093 
Q 1141 3584 1784 3584 
Q 2172 3584 2450 3431 
Q 2728 3278 2906 2969 
L 2906 3500 
L 3481 3500 
L 3481 434 
z
" transform="scale(0.015625)"/>
       <path id="DejaVuSans-2f" d="M 1625 4666 
L 2156 4666 
L 531 -594 
L 0 -594 
L 1625 4666 
z
" transform="scale(0.015625)"/>
       <path id="DejaVuSans-4c" d="M 628 4666 
L 1259 4666 
L 1259 531 
L 3531 531 
L 3531 0 
L 628 0 
L 628 4666 
z
" transform="scale(0.015625)"/>
      </defs>
      <use xlink:href="#DejaVuSans-53"/>
      <use xlink:href="#DejaVuSans-74" x="63.476562"/>
      <use xlink:href="#DejaVuSans-61" x="102.685547"/>
      <use xlink:href="#DejaVuSans-72" x="163.964844"/>
      <use xlink:href="#DejaVuSans-74" x="205.078125"/>
      <use xlink:href="#DejaVuSans-20" x="244.287109"/>
      <use xlink:href="#DejaVuSans-46" x="276.074219"/>
      <use xlink:href="#DejaVuSans-72" x="326.34375"/>
      <use xlink:href="#DejaVuSans-65" x="365.207031"/>
      <use xlink:href="#DejaVuSans-73" x="426.730469"/>
      <use xlink:href="#DejaVuSans-68" x="478.830078"/>
      <use xlink:href="#DejaVuSans-20" x="542.208984"/>
      <use xlink:href="#DejaVuSans-4d" x="573.996094"/>
      <use xlink:href="#DejaVuSans-61" x="660.275391"/>
      <use xlink:href="#DejaVuSans-73" x="721.554688"/>
      <use xlink:href="#DejaVuSans-73" x="773.654297"/>
      <use xlink:href="#DejaVuSans-20" x="825.753906"/>
      <use xlink:href="#DejaVuSans-5b" x="857.541016"/>
      <use xlink:href="#DejaVuSans-67" x="896.554688"/>
      <use xlink:href="#DejaVuSans-2f" x="960.03125"/>
      <use xlink:href="#DejaVuSans-4c" x="993.722656"/>
      <use xlink:href="#DejaVuSans-5d" x="1049.435547"/>
     </g>
    </g>
   </g>
   <g id="line2d_112">
    <path d="M 925.678 420.613462 
L 925.678 178.263921 
" clip-path="url(#p4467420879)" style="fill: none; stroke: #545454; stroke-width: 1.875; stroke-linecap: square"/>
   </g>
   <g id="line2d_113">
    <path d="M 925.678 327.382012 
L 925.678 233.158182 
" clip-path="url(#p4467420879)" style="fill: none; stroke: #545454; stroke-width: 5.625; stroke-linecap: square"/>
   </g>
   <g id="line2d_114">
    <path d="M 925.678 276.45727 
" clip-path="url(#p4467420879)" style="fill: none; stroke: #545454; stroke-width: 1.5; stroke-linecap: square"/>
    <g clip-path="url(#p4467420879)">
     <use xlink:href="#m98d4bca1cb" x="925.678" y="276.45727" style="fill: #ffffff; stroke: #ffffff; stroke-width: 1.125"/>
    </g>
   </g>
   <g id="line2d_115">
    <path d="M 858.476 533.431352 
L 992.88 533.431352 
" clip-path="url(#p4467420879)" style="fill: none; stroke-dasharray: 7.4,3.2; stroke-dashoffset: 0; stroke: #ff0000; stroke-width: 2"/>
   </g>
   <g id="line2d_116">
    <path d="M 858.476 178.263921 
L 992.88 178.263921 
" clip-path="url(#p4467420879)" style="fill: none; stroke-dasharray: 7.4,3.2; stroke-dashoffset: 0; stroke: #0000ff; stroke-width: 2"/>
   </g>
   <g id="patch_23">
    <path d="M 858.476 554.569988 
L 858.476 89.52 
" style="fill: none; stroke: #000000; stroke-width: 0.8; stroke-linejoin: miter; stroke-linecap: square"/>
   </g>
   <g id="patch_24">
    <path d="M 992.88 554.569988 
L 992.88 89.52 
" style="fill: none; stroke: #000000; stroke-width: 0.8; stroke-linejoin: miter; stroke-linecap: square"/>
   </g>
   <g id="patch_25">
    <path d="M 858.476 554.569988 
L 992.88 554.569988 
" style="fill: none; stroke: #000000; stroke-width: 0.8; stroke-linejoin: miter; stroke-linecap: square"/>
   </g>
   <g id="patch_26">
    <path d="M 858.476 89.52 
L 992.88 89.52 
" style="fill: none; stroke: #000000; stroke-width: 0.8; stroke-linejoin: miter; stroke-linecap: square"/>
   </g>
   <g id="text_53">
    <!-- Start Fresh Mass [g/L] -->
    <g transform="translate(854.930578 83.52) scale(0.13 -0.13)">
     <use xlink:href="#DejaVuSans-53"/>
     <use xlink:href="#DejaVuSans-74" x="63.476562"/>
     <use xlink:href="#DejaVuSans-61" x="102.685547"/>
     <use xlink:href="#DejaVuSans-72" x="163.964844"/>
     <use xlink:href="#DejaVuSans-74" x="205.078125"/>
     <use xlink:href="#DejaVuSans-20" x="244.287109"/>
     <use xlink:href="#DejaVuSans-46" x="276.074219"/>
     <use xlink:href="#DejaVuSans-72" x="326.34375"/>
     <use xlink:href="#DejaVuSans-65" x="365.207031"/>
     <use xlink:href="#DejaVuSans-73" x="426.730469"/>
     <use xlink:href="#DejaVuSans-68" x="478.830078"/>
     <use xlink:href="#DejaVuSans-20" x="542.208984"/>
     <use xlink:href="#DejaVuSans-4d" x="573.996094"/>
     <use xlink:href="#DejaVuSans-61" x="660.275391"/>
     <use xlink:href="#DejaVuSans-73" x="721.554688"/>
     <use xlink:href="#DejaVuSans-73" x="773.654297"/>
     <use xlink:href="#DejaVuSans-20" x="825.753906"/>
     <use xlink:href="#DejaVuSans-5b" x="857.541016"/>
     <use xlink:href="#DejaVuSans-67" x="896.554688"/>
     <use xlink:href="#DejaVuSans-2f" x="960.03125"/>
     <use xlink:href="#DejaVuSans-4c" x="993.722656"/>
     <use xlink:href="#DejaVuSans-5d" x="1049.435547"/>
    </g>
   </g>
  </g>
  <g id="text_54">
   <!-- Distribution of each parameter over all iterations -->
   <g transform="translate(319.952344 22.917656) scale(0.15 -0.15)">
    <defs>
     <path id="DejaVuSans-44" d="M 1259 4147 
L 1259 519 
L 2022 519 
Q 2988 519 3436 956 
Q 3884 1394 3884 2338 
Q 3884 3275 3436 3711 
Q 2988 4147 2022 4147 
L 1259 4147 
z
M 628 4666 
L 1925 4666 
Q 3281 4666 3915 4102 
Q 4550 3538 4550 2338 
Q 4550 1131 3912 565 
Q 3275 0 1925 0 
L 628 0 
L 628 4666 
z
" transform="scale(0.015625)"/>
     <path id="DejaVuSans-62" d="M 3116 1747 
Q 3116 2381 2855 2742 
Q 2594 3103 2138 3103 
Q 1681 3103 1420 2742 
Q 1159 2381 1159 1747 
Q 1159 1113 1420 752 
Q 1681 391 2138 391 
Q 2594 391 2855 752 
Q 3116 1113 3116 1747 
z
M 1159 2969 
Q 1341 3281 1617 3432 
Q 1894 3584 2278 3584 
Q 2916 3584 3314 3078 
Q 3713 2572 3713 1747 
Q 3713 922 3314 415 
Q 2916 -91 2278 -91 
Q 1894 -91 1617 61 
Q 1341 213 1159 525 
L 1159 0 
L 581 0 
L 581 4863 
L 1159 4863 
L 1159 2969 
z
" transform="scale(0.015625)"/>
     <path id="DejaVuSans-66" d="M 2375 4863 
L 2375 4384 
L 1825 4384 
Q 1516 4384 1395 4259 
Q 1275 4134 1275 3809 
L 1275 3500 
L 2222 3500 
L 2222 3053 
L 1275 3053 
L 1275 0 
L 697 0 
L 697 3053 
L 147 3053 
L 147 3500 
L 697 3500 
L 697 3744 
Q 697 4328 969 4595 
Q 1241 4863 1831 4863 
L 2375 4863 
z
" transform="scale(0.015625)"/>
     <path id="DejaVuSans-76" d="M 191 3500 
L 800 3500 
L 1894 563 
L 2988 3500 
L 3597 3500 
L 2284 0 
L 1503 0 
L 191 3500 
z
" transform="scale(0.015625)"/>
     <path id="DejaVuSans-6c" d="M 603 4863 
L 1178 4863 
L 1178 0 
L 603 0 
L 603 4863 
z
" transform="scale(0.015625)"/>
    </defs>
    <use xlink:href="#DejaVuSans-44"/>
    <use xlink:href="#DejaVuSans-69" x="77.001953"/>
    <use xlink:href="#DejaVuSans-73" x="104.785156"/>
    <use xlink:href="#DejaVuSans-74" x="156.884766"/>
    <use xlink:href="#DejaVuSans-72" x="196.09375"/>
    <use xlink:href="#DejaVuSans-69" x="237.207031"/>
    <use xlink:href="#DejaVuSans-62" x="264.990234"/>
    <use xlink:href="#DejaVuSans-75" x="328.466797"/>
    <use xlink:href="#DejaVuSans-74" x="391.845703"/>
    <use xlink:href="#DejaVuSans-69" x="431.054688"/>
    <use xlink:href="#DejaVuSans-6f" x="458.837891"/>
    <use xlink:href="#DejaVuSans-6e" x="520.019531"/>
    <use xlink:href="#DejaVuSans-20" x="583.398438"/>
    <use xlink:href="#DejaVuSans-6f" x="615.185547"/>
    <use xlink:href="#DejaVuSans-66" x="676.367188"/>
    <use xlink:href="#DejaVuSans-20" x="711.572266"/>
    <use xlink:href="#DejaVuSans-65" x="743.359375"/>
    <use xlink:href="#DejaVuSans-61" x="804.882812"/>
    <use xlink:href="#DejaVuSans-63" x="866.162109"/>
    <use xlink:href="#DejaVuSans-68" x="921.142578"/>
    <use xlink:href="#DejaVuSans-20" x="984.521484"/>
    <use xlink:href="#DejaVuSans-70" x="1016.308594"/>
    <use xlink:href="#DejaVuSans-61" x="1079.785156"/>
    <use xlink:href="#DejaVuSans-72" x="1141.064453"/>
    <use xlink:href="#DejaVuSans-61" x="1182.177734"/>
    <use xlink:href="#DejaVuSans-6d" x="1243.457031"/>
    <use xlink:href="#DejaVuSans-65" x="1340.869141"/>
    <use xlink:href="#DejaVuSans-74" x="1402.392578"/>
    <use xlink:href="#DejaVuSans-65" x="1441.601562"/>
    <use xlink:href="#DejaVuSans-72" x="1503.125"/>
    <use xlink:href="#DejaVuSans-20" x="1544.238281"/>
    <use xlink:href="#DejaVuSans-6f" x="1576.025391"/>
    <use xlink:href="#DejaVuSans-76" x="1637.207031"/>
    <use xlink:href="#DejaVuSans-65" x="1696.386719"/>
    <use xlink:href="#DejaVuSans-72" x="1757.910156"/>
    <use xlink:href="#DejaVuSans-20" x="1799.023438"/>
    <use xlink:href="#DejaVuSans-61" x="1830.810547"/>
    <use xlink:href="#DejaVuSans-6c" x="1892.089844"/>
    <use xlink:href="#DejaVuSans-6c" x="1919.873047"/>
    <use xlink:href="#DejaVuSans-20" x="1947.65625"/>
    <use xlink:href="#DejaVuSans-69" x="1979.443359"/>
    <use xlink:href="#DejaVuSans-74" x="2007.226562"/>
    <use xlink:href="#DejaVuSans-65" x="2046.435547"/>
    <use xlink:href="#DejaVuSans-72" x="2107.958984"/>
    <use xlink:href="#DejaVuSans-61" x="2149.072266"/>
    <use xlink:href="#DejaVuSans-74" x="2210.351562"/>
    <use xlink:href="#DejaVuSans-69" x="2249.560547"/>
    <use xlink:href="#DejaVuSans-6f" x="2277.34375"/>
    <use xlink:href="#DejaVuSans-6e" x="2338.525391"/>
    <use xlink:href="#DejaVuSans-73" x="2401.904297"/>
   </g>
  </g>
 </g>
 <defs>
  <clipPath id="p83e5e68f58">
   <rect x="55.1" y="89.52" width="134.404" height="465.049988"/>
  </clipPath>
  <clipPath id="p45874660b7">
   <rect x="255.944" y="89.52" width="134.404" height="465.049988"/>
  </clipPath>
  <clipPath id="pb70e5db463">
   <rect x="456.788" y="89.52" width="134.404" height="465.049988"/>
  </clipPath>
  <clipPath id="pae66f2d4db">
   <rect x="657.632" y="89.52" width="134.404" height="465.049988"/>
  </clipPath>
  <clipPath id="p4467420879">
   <rect x="858.476" y="89.52" width="134.404" height="465.049988"/>
  </clipPath>
 </defs>
</svg>
